<svg xmlns="http://www.w3.org/2000/svg" x="0px" y="0px" viewBox="0 0 149.5 112.1">
  <path d="M14 83.5c-3.7 0-6 1.3-7.3 3.2h-.1V78c0-.4-.3-.6-.6-.6H.8c-.4 0-.6.3-.6.6v32.8c0 .4.3.6.6.6H6c.4 0 .6-.3.6-.6l.1-2c1.3 1.9 3.6 3.2 7.3 3.3 4.7 0 8.1-2.2 9.5-6.6.7-2.1 1-4 1-7.7s-.3-5.6-1-7.7c-1.4-4.5-4.8-6.6-9.5-6.6zm3.4 19.3c-.8 2.2-2.5 3.5-5 3.5-2.6 0-4.4-1.2-5.1-3.5-.4-1.2-.6-2.6-.6-5.1s.2-3.9.6-5.1c.7-2.3 2.5-3.5 5.1-3.5 2.5 0 4.3 1.2 5 3.5.4 1.2.6 2.6.6 5.1s-.2 3.9-.6 5.1zM35.5 84h-5.2c-.4 0-.6.3-.6.6v26.2c0 .4.3.6.6.6h5.2c.4 0 .6-.3.6-.6V84.6c0-.5-.3-.6-.6-.6zm20.7 10.6l-2.9-.3c-3.5-.3-4.5-1.3-4.5-2.9s1.4-2.8 4.1-2.8 5.4 1.1 7.1 2.3c.3.2.6.2.8-.1l2.8-3.3c.2-.2.2-.6-.1-.8-2.5-1.9-6-3.3-10.3-3.3-6.8 0-10.6 3.3-10.6 8.6 0 4.7 2.8 7.5 8.4 8.1l2.9.3c3.5.3 4.5 1.4 4.5 3 0 1.8-1.7 3.2-5 3.2-2.8 0-6-1.3-8-3.1-.2-.2-.6-.2-.8 0l-3.2 3.4c-.2.2-.2.6 0 .8 2.2 2.1 6.1 4.3 11.8 4.1 7.5 0 11.5-3.8 11.5-9.2 0-4.5-2.8-7.5-8.5-8zm24.3-5.5c2.2 0 3.6.9 5 2.4.2.3.5.3.8.1l3.6-2.9c.3-.2.3-.6.1-.8-2.2-2.7-5.4-4.3-9.5-4.3-5.5 0-9.7 2.6-11.3 7.5-.6 1.7-.9 3.8-.9 6.7 0 2.8.3 5 .9 6.7 1.6 4.9 5.8 7.5 11.3 7.4 4.1 0 7.3-1.6 9.5-4.2.1-.3.2-.6-.1-.8l-3.6-3.1c-.3-.2-.6-.2-.8.1-1.3 1.6-2.7 2.4-5 2.4-2.4 0-4.3-1.2-5.1-3.5-.5-1.4-.6-3-.6-5.1s.1-3.6.6-5c.8-2.4 2.7-3.6 5.1-3.6zm36.8-5h-5.2c-.4 0-.6.3-.6.6v15.8c0 3.5-1.9 5.9-5.1 5.9-3.5 0-5.1-2.5-5.1-6V84.6c0-.4-.3-.6-.6-.6h-5.2c-.4 0-.6.3-.6.6v17.2c0 5.9 3.6 10.2 9.4 10.2 3.5 0 5.6-1.3 7.1-3.2h.1v2c0 .4.3.6.6.6v.1h5.2c.4 0 .6-.3.6-.6V84.6c0-.3-.3-.5-.6-.5zm13.3-.1h-5.2c-.4 0-.6.3-.6.6v26.2c0 .4.3.6.6.6h5.2c.4 0 .6-.3.6-.6V84.6c0-.5-.3-.6-.6-.6zm18.2 22.1h-1.4c-1.8 0-2.6-.7-2.6-2.6V89.3c0-.2.1-.3.3-.3h3.6c.4 0 .6-.3.6-.6v-3.8c0-.4-.3-.6-.6-.6h-3.6c-.2 0-.3-.1-.3-.3V78c0-.4-.3-.6-.6-.6H139c-.4 0-.6.3-.6.6v5.7c0 .2-.1.3-.3.3h-1.8c-.4 0-.6.3-.6.6v3.8c0 .4.3.6.6.6h1.8c.2 0 .3.1.3.3v14.4c0 5.3 2.1 8 7.6 8v.1h2.8c.4 0 .6-.3.6-.6v-4.5c0-.4-.3-.6-.6-.6zm-80-35.5L101.4 38c-5.9-6.1-5.8-15.6.1-21.5L85.3.1c-.2-.2-.6-.2-.8 0L41.4 43.3c-.2.2-.2.6 0 .8L68 70.6c.2.2.6.2.8 0z" class="st0"/>
</svg>
