<svg xmlns="http://www.w3.org/2000/svg" x="0px" y="0px" viewBox="0 0 163.9 50.4">
  <path d="M4.8.1c1.2 0 2.2.4 3 1.2.8.8 1.2 1.8 1.2 3v3.2H6.9V4.3c0-.6-.2-1.1-.6-1.6S5.4 2 4.8 2h-.4c-.6 0-1.1.2-1.5.6s-.6.9-.6 1.5v23.6c0 .6.2 1.1.6 1.5s.9.6 1.5.6h.4c.6 0 1.1-.2 1.5-.7s.6-1 .6-1.6v-3.6H9v3.7c0 1.2-.4 2.2-1.2 3-.8.8-1.8 1.2-3 1.2h-.4c-1.2 0-2.2-.4-3-1.3-.8-.8-1.3-1.8-1.3-3V4.3c0-1.2.4-2.2 1.3-3C2.2.5 3.2 0 4.4 0l.4.1zm16.4 27.5V4.4c0-1.2.4-2.2 1.3-3 .8-.8 1.8-1.3 3-1.3h.4c1.2 0 2.2.4 3 1.3.8.8 1.2 1.8 1.2 3v23.2c0 1.2-.4 2.2-1.2 3-.8.8-1.8 1.2-3 1.2h-.4c-1.2 0-2.2-.4-3-1.2-.8-.8-1.3-1.8-1.3-3zm6.9-23.2c0-.6-.2-1.2-.6-1.6-.4-.5-.9-.7-1.5-.7h-.4c-.6 0-1.1.2-1.5.6s-.6.9-.6 1.5v23.5c0 .6.2 1.1.6 1.5s.9.6 1.5.6h.4c.6 0 1.1-.2 1.5-.7s.6-1 .6-1.6V4.4zM42.4.5h2.1v29.1h7.3v1.9h-9.4V.5zm20.1 0h2.1v29.1h7.3v1.9h-9.4V.5zm20.2 31V.4h2.2v31.1h-2.2zM101.9.1c1.2 0 2.2.4 3 1.3.8.8 1.3 1.8 1.3 3v3.2H104V4.4c0-.6-.2-1.1-.6-1.6-.4-.5-.9-.7-1.5-.7h-.4c-.6 0-1.1.2-1.5.6s-.6.9-.6 1.5v2.7c0 1.1.2 2 .5 2.8s1.4 2.7 3.3 5.6c1.4 2.2 2.2 3.8 2.5 4.8s.5 2.3.5 3.9v3.7c0 1.2-.4 2.2-1.3 3-.8.8-1.8 1.3-3 1.3h-.6c-1.2 0-2.2-.4-3-1.2-.8-.8-1.3-1.8-1.3-3v-3.7h2.2v3.6c0 .6.2 1.1.6 1.6.4.5.9.7 1.5.7h.6c.6 0 1.1-.2 1.5-.6s.6-.9.6-1.5v-4.3c0-1.9-.4-3.5-1.3-4.9-.8-1.4-1.6-2.6-2.2-3.6-.6-.9-1.2-2-2-3.4-.8-1.3-1.2-2.5-1.3-3.6-.1-.6-.1-1.1-.1-1.7v-2c0-1.2.4-2.2 1.3-3.1.8-.8 1.9-1.3 3.1-1.3h.4v.1zm16.4 31.4V.4h2.2v31.1h-2.2zm14.3-3.9V4.4c0-1.2.4-2.2 1.3-3 .8-.8 1.8-1.3 3-1.3h.4c1.2 0 2.2.4 3 1.3.8.8 1.2 1.8 1.2 3v23.2c0 1.2-.4 2.2-1.2 3s-1.8 1.2-3 1.2h-.4c-1.2 0-2.2-.4-3-1.2-.9-.8-1.3-1.8-1.3-3zm6.8-23.2c0-.6-.2-1.2-.6-1.6-.4-.5-.9-.7-1.5-.7h-.4c-.6 0-1.1.2-1.5.6s-.6.9-.6 1.5v23.5c0 .6.2 1.1.6 1.5.4.4.9.6 1.5.6h.4c.6 0 1.1-.2 1.5-.7s.6-1 .6-1.6V4.4zM161.5.5h2.2v31.1h-2.5l-5.3-24.7v24.7h-2.1V.5h2.6l5.3 24.7V.5h-.2zM52.8 42.8h3.7v1.1h-1.2v6.5h-1.2v-6.5h-1.2l-.1-1.1zm6.3 7.5h-1.2v-7.5h1.2V46h1.3v-3.2h1.2v7.5h-1.2v-3.2h-1.3v3.2zm5.6-4.3h1.6v1.1h-1.6v2.2h2v1.1h-3.2v-7.5h3.2V44h-2v2zm6.4-3.2H73c1.2 0 1.8.7 1.8 1.9v3.8c0 1.2-.6 1.9-1.8 1.9h-1.9v-7.6zm1.1 1.1v5.4h.7c.4 0 .6-.2.6-.7v-3.9c0-.5-.2-.7-.6-.7l-.7-.1zm8 6.4H79l-.2-1.4h-1.5l-.2 1.4H76l1.2-7.5h1.7l1.3 7.5zm-2.7-2.4h1.1l-.6-3.8-.5 3.8zm6.7 2.4c-.1-.2-.1-.3-.1-.9v-1.2c0-.7-.2-1-.8-1h-.4v3.1h-1.2v-7.5h1.8c1.2 0 1.8.6 1.8 1.7v.6c0 .8-.2 1.3-.8 1.5.6.2.8.8.8 1.6v1.2c0 .4 0 .6.1.9h-1.2zm-1.3-6.4v2.3h.5c.4 0 .7-.2.7-.8v-.7c0-.5-.2-.8-.6-.8h-.6zm5.7 3.4l-.4.7v2.3H87v-7.5h1.2v3.3l1.6-3.3H91l-1.6 3.4 1.6 4.2h-1.2l-1.2-3.1zm9.2-1l-.4 4h-1.6l-.8-7.5h1.2l.6 5.9.6-5.9h1.1l.6 6 .6-6h1l-.8 7.5h-1.6l-.5-4zm8 4h-1.2l-.2-1.4h-1.5l-.2 1.4h-1.1l1.2-7.5h1.7l1.3 7.5zm-2.7-2.4h1.1l-.6-3.8-.5 3.8zm6.7 2.4c-.1-.2-.1-.3-.1-.9v-1.2c0-.7-.2-1-.8-1h-.4v3.1h-1.2v-7.5h1.8c1.2 0 1.8.6 1.8 1.7v.6c0 .8-.2 1.3-.8 1.5.6.2.8.8.8 1.6v1.2c0 .4 0 .6.1.9h-1.2zm-1.3-6.4v2.3h.5c.4 0 .7-.2.7-.8v-.7c0-.5-.2-.8-.6-.8h-.6zM.1 46.2h50.3v1H.1zm113.6 0h50v1h-50z" class="st0"/>
</svg>
