<svg xmlns="http://www.w3.org/2000/svg" viewBox="0 0 190 76">
  <path d="M129.9 73.7l-4.1-4.5h-1.5v6.6h1.4V71l4.4 4.8h1.2v-6.6h-1.4v4.5zm-10.3-1.2c0-1.4-1-2.2-2.5-2.2s-2.5.8-2.5 2.2c0 1.4.9 2.2 2.5 2.2 1.5 0 2.5-.8 2.5-2.2zm1.4 0c0 2.2-1.5 3.5-3.9 3.5s-3.9-1.3-3.9-3.5 1.5-3.5 3.9-3.5 3.9 1.3 3.9 3.5zm-16.8-2h2.7v5.3h1.4v-5.3h2.7v-1.3h-6.8v1.3zm-4.3 1.3h-4.2v-2.6h-1.4v6.6h1.4v-2.7h4.2v2.7h1.4v-6.6h-1.4v2.6zm-12.5 1.5h2.3v.6c-.4.6-1.2.8-2.1.8-1.6 0-2.6-.8-2.6-2.2 0-1.5.9-2.2 2.5-2.2.9 0 1.6.3 2.1.8l1.1-.9c-.6-.6-1.7-1.2-3.2-1.2-2.5 0-4 1.3-4 3.5s1.5 3.5 4 3.5c1.7 0 2.9-.6 3.5-1.5v-2.4h-3.6v1.2zM79 75.8h1.4v-6.6H79v6.6zm-5.9-3.5c.7 0 1.3-.2 1.3-.9s-.5-.9-1.3-.9h-2.8v1.8h2.8zm1 1.2l1.9 2.3h-1.7l-1.8-2.2h-2.2v2.2h-1.4v-6.6h4.2c1.5 0 2.6.7 2.6 2.2.1 1.1-.6 1.8-1.6 2.1zm-9.8.3c0-.7-.5-.8-1.3-.8h-2.9v1.6H63c.9 0 1.3-.1 1.3-.8zm-4.1-1.9h2.6c.8 0 1.2-.1 1.2-.7s-.5-.7-1.2-.7h-2.6v1.4zm5.6 2.1c0 1.2-.9 1.8-2.4 1.8h-4.6v-6.6H63c1.5 0 2.4.6 2.4 1.7 0 .8-.5 1.4-1.4 1.5 1 0 1.8.5 1.8 1.6zM93 5.4h5.8v4.9h1.6V0h-1.6v4.7H93V0h-1.6v10.3H93V5.4zm-9.9 4.9h1.6V.7h3.9V0h-9.3v.7h3.9v9.6zm22.2-4.9h4v-.7h-4V.8h5.3V0h-6.9v10.3h7.1v-.7h-5.5V5.4zm6.9 22.2h10.1v25h3.2v-25h10.1v-1.1h-23.5v1.1zM45.3 38.5c1.3-1 2-2.6 2-4.8 0-2.1-.6-3.6-1.8-4.6-1.1-.9-2.8-1.4-4.9-1.4h-6.1v12.2h6.1c2-.1 3.6-.6 4.7-1.4zm7.1 13.4l.7.6h-4l-.1-.2c-.5-.8-1-1.8-1.5-3.2L46.1 45c-.6-1.6-1.2-2.6-2.1-3.2-.9-.7-2.2-1-4-1h-5.4v11.7h-3.3v-26h9.5c6.4 0 10.1 2.6 10.1 7.1 0 2.3-1 4.1-2.9 5.5-.9.6-2 1.1-3.1 1.4 2.1.6 3.4 1.9 4.2 4.1l1.5 4.2c.4 1.4 1 2.5 1.8 3.1zm107.1-12.4c0-3.9-.9-7-2.5-9.1-1.6-2.1-3.9-3.2-6.8-3.2s-5.2 1.1-6.9 3.2c-1.6 2.1-2.5 5.3-2.5 9.1 0 3.9.9 7 2.5 9.1 1.6 2.1 3.9 3.2 6.9 3.2 2.9 0 5.2-1.1 6.8-3.2 1.7-2.1 2.5-5.2 2.5-9.1zm-.3-9.6c2.5 2.5 3.8 5.9 3.8 9.6 0 3.7-1.4 7.1-3.8 9.6-2.4 2.4-5.6 3.8-9 3.8-3.4 0-6.6-1.3-9.1-3.8s-3.8-5.9-3.8-9.6c0-3.7 1.4-7.1 3.8-9.6 2.4-2.4 5.6-3.8 9.1-3.8 3.4 0 6.6 1.4 9 3.8zm29.7-3.4v21.3l-19.3-21.5-.1-.1h-.7v26.5h1.1V31.2l19.4 21.7h.7V26.5h-1.1zm-116 16l-5.4-11.9-5.2 11.9h10.6zm-4-16.4l12 26.5h-3.4l-4-8.9H62l-3.9 8.9h-1.2l11.5-26.5h.5zM24.1 40.5h-8.4v1.1h5.1v3c-.1 2.1-1 4-2.5 5.3-1.4 1.2-3.3 1.9-5.4 1.9-2.8 0-5.2-1.1-6.8-3.1-1.7-2.1-2.6-5.3-2.6-9.1s1-7 2.7-9.2c1.7-2.1 4.2-3.1 7.1-3.1 2.1 0 3.9.5 5.4 1.5 1.6 1 2.8 2.5 3.6 4.5l.1.4 1-.4-.1-.3c-1.7-4.3-5.3-6.6-10.2-6.6-3.5 0-6.8 1.3-9.3 3.8-2.5 2.5-3.9 5.9-3.9 9.7 0 3.7 1.3 7.2 3.8 9.6 2.4 2.4 5.6 3.8 9.2 3.8 3.8 0 6.4-1.9 7.9-3.9v3.5h3.3V40.5zm62.2-14.4l19.4 21.6V26.5h1.1V53h-.7L86.7 31.3v21.4h-1.1V26.1h.7z"/>
</svg>
