<svg xmlns="http://www.w3.org/2000/svg" viewBox="0 0 214 33">
  <path d="M5.7 4c0-1.1 0-1.2 1.8-1.2 3.5 0 5.4 2.1 5.4 5.4 0 2.9-1.3 5-4.9 5.6-.2.1-.2.6 0 .7 1.4 0 3.2-.3 4.6-1 1.4-.7 3.4-2.2 3.4-5.3 0-2.3-1.1-4.1-2.7-5-1.6-1-3.7-1.3-6.4-1.3C4.1 1.7 2 1.8.2 2c-.2.1-.3.6 0 .9l1.2.1c1.5.2 1.6.7 1.6 3.6V19c0 3.5-.1 3.9-2 4.2l-.7.1c-.3.1-.2.7 0 .8C1.7 24 3 24 4.4 24c1.3 0 2.5 0 4.4.1.2-.1.2-.7 0-.9l-.9-.1c-2.2-.2-2.2-.7-2.2-4.2V4zm13.2 14.5l4-1.4c.5-.2.6-.5.6-1v-1.5c0-1.2-.4-2.9-2.5-2.9-.9 0-2.1.5-2.1 1.5 0 .5-.1.9-.3 1.1-.5.4-1.4.6-1.9.6-.3 0-.5-.2-.5-.5 0-1.7 3.8-4.1 6.2-4.1 2.4 0 3.6 1.4 3.5 3.9l-.2 5.8c0 1.6.3 3 1.6 3 .3 0 .6-.1.8-.2.2-.1.3-.2.4-.2.1 0 .2.2.2.4s-1.2 1.5-2.8 1.5c-.8 0-1.6-.3-2.2-1-.1-.2-.3-.5-.5-.5s-.6.3-1.3.7c-.7.4-1.5.8-2.4.8-1 0-1.8-.3-2.4-.8-.7-.6-1-1.5-1-2.3 0-1.4.7-2.1 2.8-2.9zm-.2 2.4c0 .6.4 2 2.1 2 .7 0 1.7-.5 2-.8.4-.4.4-.9.4-1.6l.1-2c0-.4-.1-.4-.3-.4-.2 0-.8.1-1.4.3-1.9.7-2.9 1.2-2.9 2.5zm12.4-.7c0 2.4 0 2.7-1.3 2.9l-.6.1c-.2.2-.2.7.1.8 1-.1 2.1-.1 3.1-.1 1.2 0 2.2 0 3.7.1.2-.1.3-.7.1-.8l-1.2-.1c-1.3-.1-1.3-.5-1.3-2.9v-4.6c0-1.1.1-2.1.4-2.6.3-.4.7-.7 1.2-.7s1 .2 1.5.5c.2.1.4.2.7.2.8 0 1.5-.7 1.4-1.5 0-.8-.7-1.3-1.5-1.3-1.2 0-2.5 1-3.7 2-.1 0-.1-.1-.1-.3V10c0-.1-.1-.2-.3-.2-.8.5-2.6 1.4-3.4 1.6-.2.1-.2.5 0 .6l.3.2c.9.6.9.8.9 2.1v5.9zm11.1-1.7l4-1.4c.5-.2.6-.5.6-1v-1.5c0-1.2-.4-2.9-2.5-2.9-.9 0-2.1.5-2.2 1.5 0 .5-.1.9-.3 1.1-.5.4-1.4.6-1.9.6-.3 0-.5-.2-.5-.5 0-1.7 3.8-4.1 6.2-4.1 2.4 0 3.6 1.4 3.5 3.9l-.1 5.9c0 1.5.3 2.9 1.6 2.9.3 0 .6-.1.8-.2.2-.1.3-.2.4-.2.1 0 .2.2.2.4s-1.2 1.5-2.8 1.5c-.8 0-1.6-.3-2.2-1-.1-.2-.3-.5-.5-.5s-.6.3-1.3.7c-.7.4-1.5.8-2.4.8-1 0-1.8-.3-2.4-.8-.7-.6-1-1.5-1-2.3 0-1.4.6-2.1 2.8-2.9zm-.2 2.4c0 .6.4 2 2.1 2 .7 0 1.7-.5 2-.8.4-.4.4-.9.4-1.6l.1-2c0-.4-.1-.4-.3-.4-.2 0-.8.1-1.4.3-1.9.7-2.9 1.2-2.9 2.5zM56.5 4.4v15.9c0 2.4.1 2.8 1.3 2.9l.8.1c.2.2.2.7-.1.8-1-.1-2.1-.1-3.2-.1-1.2 0-2.2 0-3.2.1-.2-.1-.3-.7-.1-.8l.8-.1c1.2-.2 1.2-.6 1.2-3V5.1c0-2 0-2.2-1-2.8l-.3-.2c-.2-.1-.2-.6 0-.7.8-.3 2.4-.8 3.6-1.4.1 0 .3.1.3.2 0 1-.1 2.7-.1 4.2zm7.6 0c0-1.5.1-3.2.1-4.2-.1-.1-.2-.2-.3-.2-1.2.6-2.8 1.1-3.6 1.4-.2.1-.2.6 0 .7l.3.2c1 .6 1 .8 1 2.8v15.2c0 2.4 0 2.8-1.3 2.9l-.8.1c-.2.2-.2.7.1.8 1.1-.1 2.1-.1 3.2-.1 1.2 0 2.2 0 3.3.1.2-.1.3-.7.1-.8l-.8-.1c-1.2-.2-1.3-.5-1.3-2.9V4.4zm6.1 14.1l4-1.4c.5-.2.6-.5.6-1v-1.5c0-1.2-.4-2.9-2.5-2.9-.9 0-2.1.5-2.2 1.5 0 .5-.1.9-.3 1.1-.5.4-1.4.6-1.9.6-.3 0-.5-.2-.5-.5 0-1.7 3.8-4.1 6.2-4.1 2.4 0 3.6 1.4 3.5 3.9l-.1 5.9c-.1 1.5.2 2.9 1.5 2.9.3 0 .6-.1.8-.2.2-.1.3-.2.4-.2.1 0 .2.2.2.4s-1.2 1.5-2.8 1.5c-.8 0-1.6-.3-2.2-1-.1-.2-.3-.5-.5-.5s-.6.3-1.3.7c-.7.4-1.5.8-2.4.8-1 0-1.8-.3-2.4-.8-.7-.6-1-1.5-1-2.3.1-1.4.7-2.1 2.9-2.9zm-.2 2.4c0 .6.4 2 2.1 2 .7 0 1.7-.5 2.1-.8.4-.4.4-.9.4-1.6l.1-2c0-.4-.1-.4-.3-.4-.2 0-.8.1-1.4.3-2 .7-3 1.2-3 2.5zm15-3.6L82 13c-.5-.7-1.1-1.3-2-1.4l-.5-.1c-.2-.2-.2-.7.1-.8 1.3.1 2.1.1 2.9.1.8 0 1.5 0 2.9-.1.2.1.2.7 0 .8l-.5.1c-.9.2-.9.4-.3 1.2l1.6 2.3c.1.2.3.5.4.6.1-.1 1.2-1.8 1.9-2.9.6-.9.5-1-.3-1.2l-.4-.1c-.2-.2-.1-.7.1-.8.8.1 1.6.1 2.5.1.8 0 1.8 0 2.5-.1.3.1.3.7.1.8l-.5.1c-.8.2-1.3.3-1.7.6-.6.5-1.8 2-3.2 3.8-.4.5-.4.6 0 1.2l3.1 4.4c.8 1.1 1.3 1.5 2.2 1.6h.5c.2.2.2.7-.1.8h-3.2c-1.1 0-2.1 0-3.2.1-.3-.1-.3-.7-.1-.8l1-.1c1-.1 1-.4.6-1l-1.7-2.5c-.4-.6-.6-.9-.7-1-.2.3-.4.5-.6.8L84 21.7c-.7 1.1-.7 1.3.1 1.5l.6.1c.2.2.2.7-.1.8-1.6-.1-3.3-.1-4.9 0-.3-.1-.3-.7-.1-.8l.8-.1c.6-.1 1.1-.4 1.7-1 .7-.7 2.2-3 3-3.9.1-.5.2-.6-.1-1zm17.1-14.2c1.3.2 2.1.7 2.1 2.7 0 1.8-.1 4.5-.2 6.8-.2 3.2-.3 6.1-.5 7.7-.2 2.1-.4 2.3-2.1 2.6l-.6.1c-.3.2-.3 1 .1 1.2 1.2-.1 2.5-.1 3.7-.1 1.3 0 2.7 0 4 .1.3-.2.3-.9.1-1.2l-1.3-.2c-1.3-.2-1.5-.7-1.5-2.3 0-2 0-5.4.1-7.5 0-1.7.1-3.2.2-5.4h.1c1.9 4.4 6 12.7 7.3 16.8.2.1.6.2.9.2.3 0 .5-.1.7-.2 2.2-5.7 4.9-11.3 7.4-16.6h.1v3.8l.1 8.7c0 2 0 2.4-1.5 2.6l-1 .1c-.3.2-.3 1 .1 1.2 1.6-.1 3.5-.1 5-.1 1.6 0 3.1 0 4.6.1.3-.1.3-.9.1-1.2l-1.1-.1c-1.3-.2-1.4-1-1.5-2.5-.2-4.2-.3-7.8-.3-14.8 0-1.8.7-2.2 2.1-2.4l1-.2c.3-.3.3-1-.1-1.2-1.2.1-2.8.1-3.9.1-1 0-1.8 0-3.3-.1-.7 2.9-1.6 4.7-3.2 8.1l-1.7 3.7c-.9 2-1.4 3-1.9 3.8-.5-.8-1.7-3-2-3.6L111.6 9c-1.5-3.2-2.7-5.2-2.7-7.3-1.2.1-2.2.1-3.3.1-1.6 0-3.1 0-4.2-.1-.4.1-.4.9-.1 1.2l.8.2zM142.3 15l-.2 4.4c-.1 2.3.8 2.9 1.5 2.9.4 0 .7-.1 1.3-.4.3.1.5.5.4.8-.4.5-2 1.8-3.9 1.8-1.2 0-1.9-.4-2.8-1.2-.2-.2-.4-.3-.5-.3-.2 0-.4.1-.7.4-.6.4-1.6 1.1-2.9 1.1-1.9 0-3.8-1.2-3.8-3.5 0-1.7 1-2.8 3.5-3.5 1.3-.4 2.2-.7 3.2-.9.6-.2.8-.4.8-.7 0-.4.1-.7.1-1.1 0-1.3-.5-2.9-1.9-2.9-.8 0-1.5.5-1.7 1.9-.1.5-.3.8-.6 1.1-.5.4-1.8.8-2.4.8-.6 0-.8-.4-.8-.8 0-.9.8-1.9 1.6-2.6 1.1-.9 3.3-2 5.6-2 2.7-.2 4.4 1.2 4.2 4.7zm-4.3 5.6l.1-2.1c0-.5 0-.6-.2-.6-1.5.2-2.8.8-2.8 2.3 0 1.1.8 2 1.7 2 .9.1 1.1-.5 1.2-1.6zm18.4-9.3h3.9c.2.2.3.5.3.8 0 .5-.2 1.1-.5 1.3h-2.5c.1.3.1.6.1 1.2 0 2.6-1.6 5.9-6.9 5.9-.5 0-1-.1-1.4-.1-.3.1-.6.4-.6.8 0 .7.7 1.2 1.7 1.2 1.1 0 2.5-.1 4.1-.1 2.5 0 5.2.7 5.2 4.1 0 2.1-1.3 4-3 5.1-1.7 1-3.9 1.5-5.9 1.5-4.8 0-6.6-2.2-6.6-4.3 0-.8.5-1.3 1.1-1.7.7-.4 1.3-.8 1.6-1 .4-.2.3-.4 0-.5-1.2-.4-2.1-1.5-2.1-2.7 0-.3.1-.5.2-.7.9-.6 1.9-1.4 2.1-1.6.3-.2.4-.4.3-.7-1.7-.7-2.9-2.3-2.9-4.3 0-2.8 2.2-5.4 6.6-5.4 2.2 0 4 .6 5.2 1.2zm-7.2 3.6c0 2.5 1 4.1 2.3 4.1 1 0 1.9-1 1.9-3.4 0-2.7-1-4-2.2-4-.9 0-2 1-2 3.3zm3.9 11h-2.3c-.9 0-1.6.2-1.9.4-.3.3-.5.7-.5 1.2 0 2.3 1.7 3.8 4.4 3.8 2.1 0 3.5-1 3.5-2.6.1-2.1-1.4-2.8-3.2-2.8zm8.9-5.8v-5c0-1.3 0-1.7-.6-2.1l-.5-.3c-.2-.2-.2-.8 0-1 1.5-.4 3.9-1.3 4.9-2 .3 0 .5.1.6.3-.1.7-.1 1.1-.1 1.4 0 .2.1.3.3.4.9-.6 1.9-1.7 3.3-1.7.9 0 1.8.7 1.8 2 0 1.5-1.1 2.2-2.1 2.2-.5 0-.9-.2-1.3-.6-.8-.6-1.1-.7-1.3-.7-.5 0-.6.7-.6 2v5.1c0 2.3.1 2.6 1.2 2.7l1.1.1c.3.2.3 1 0 1.2-1.6-.1-3-.1-4.5-.1-1.3 0-2.6 0-4 .1-.3-.2-.3-1 0-1.2l.6-.1c1-.1 1.2-.4 1.2-2.7zm16.1-6.2v6.2c0 2.3.1 2.6 1.2 2.8l.6.1c.3.2.3 1 0 1.2-1.3-.1-2.7-.1-4-.1-1.5 0-2.9 0-4 .1-.3-.2-.3-1 0-1.2l.6-.1c1.1-.1 1.2-.4 1.2-2.8V15c0-1.3 0-1.7-.6-2.1l-.5-.3c-.2-.2-.2-.8 0-1 1.6-.4 4-1.3 5-1.9.3 0 .5.1.6.3-.1.9-.1 2.4-.1 3.9zM176 2.5c-1.3 0-2.5 1-2.5 2.4s.9 2.4 2.4 2.4c1.3 0 2.5-.8 2.5-2.4 0-1.3-1-2.4-2.4-2.4zm14.2 9.9h-3c-.4 0-.5 0-.5.8v5c0 1.9 0 4 2.4 4 .5 0 1-.2 1.4-.5.3.1.5.5.5.9-.9 1-2.8 1.9-4.8 1.9-2.8 0-3.8-1.6-3.8-3.8v-7.5c0-.7 0-.8-.6-.8h-1c-.4-.1-.5-.8-.2-1 1-.4 2-1 2.8-1.5.6-.4 1.4-1.1 2.5-2.6.2-.1.8-.1 1 .2V10c0 .6 0 .7.6.7h3c.2.1.3.3.3.6-.1.3-.2.9-.6 1.1zm10.2 0h-3c-.4 0-.5 0-.5.8v5c0 1.9 0 4 2.4 4 .5 0 1-.2 1.4-.5.3.1.5.5.5.9-.9 1-2.8 1.9-4.8 1.9-2.8 0-3.8-1.6-3.8-3.8v-7.5c0-.7 0-.8-.6-.8h-1c-.4-.1-.5-.8-.2-1 1-.4 2-1 2.8-1.5.6-.4 1.4-1.1 2.5-2.6.2-.1.8-.1 1 .2V10c0 .6 0 .7.6.7h3c.2.1.3.3.3.6-.2.3-.3.9-.6 1.1zm12.2 3.6h-6.4c-.8 0-.8.1-.8.6 0 2.5 1.6 5 4.7 5 .9 0 2.2-.2 3.1-1.7.4-.1.8.2.9.6v.1c-1.4 2.9-3.9 3.8-5.9 3.8-4.5 0-7-3.2-7-6.8 0-4.2 3.1-7.5 7.3-7.5 3.5 0 5.4 2.2 5.4 4.8-.1.7-.3 1.1-1.3 1.1zm-5.5-1.4h1.2c.5 0 1-.1 1.4-.3.2-.1.2-.4.2-.8 0-1.1-.6-1.8-1.8-1.8-1.4 0-2.6 1.3-2.6 2.4 0 .4.5.5 1.6.5z"/>
</svg>
