<svg xmlns="http://www.w3.org/2000/svg" x="0px" y="0px" viewBox="0 0 356.2 63.9">
  <path d="M162.1 36.8c10.5-1.2 17.9-8.2 17.9-18.5 0-6.2-4.7-17-20.6-17h-25.2V63h10V9.2h12.7c8.9 0 13 4.2 13 10.3 0 5.9-4.5 10.3-14.3 10.3h-10.8l26.5 33.4h12.3l-21.5-26.4zM81.9 1.2v61.7h39.7v-8H91.9V34.5h25.5v-8H91.9V9.4H121v-8c0-.2-39.1-.2-39.1-.2zM238.5 50c-1.8 1.2-6.4 5.5-16.7 5.5-13.3 0-23-9.9-23-23.3 0-12.3 8.5-23.3 23-23.3 9.2 0 14.4 3.6 16.7 5.5l4.7-7.7c-1.8-1.1-8.8-6.4-20.9-6.4-19 0-34.3 12.6-34.3 31.8 0 18.8 14.1 32 34.3 32 11.2 0 19.1-5.2 20.9-6.4l-4.7-7.7zm95.7-13.2c10.5-1.2 17.9-8.2 17.9-18.5 0-6.2-4.7-17-20.6-17h-25.2V63h10V9.2H329c8.9 0 13 4.2 13 10.3 0 5.9-4.5 10.3-14.3 10.3h-10.8l26.5 33.4h12.3l-21.5-26.4zM254 1.2v61.7h39.7v-8H264V34.5h25.5v-8H264V9.4h29.1v-8c0-.2-39.1-.2-39.1-.2zM33.5 49.3L14.1 1.2H0v61.7h9.6V14.8h.2L29.1 63h8.5l20.2-48.5h.2V63h9.7V1.2H53.6L33.7 49.3h-.2z" class="st0"/>
</svg>
