<?xml version="1.0" encoding="utf-8"?>
<!-- Generator: Adobe Illustrator 22.1.0, SVG Export Plug-In . SVG Version: 6.00 Build 0)  -->
<svg version="1.1" id="Layer_1" xmlns="http://www.w3.org/2000/svg" xmlns:xlink="http://www.w3.org/1999/xlink" x="0px" y="0px"
	 viewBox="0 0 253.9 70.2" style="enable-background:new 0 0 253.9 70.2;" xml:space="preserve">
<g>
	<path d="M33.4,54V17.6C33.4,6.4,27.5,0,16.7,0S0,6.4,0,17.6V54c0,8.1,3.1,13.7,8.9,16.2c6.5-1,13.1-2,19.9-2.9
		C31.8,64.3,33.4,59.8,33.4,54z M16.7,61.6c-3.5,0-5.7-1.9-5.7-6.9V16.9c0-5,2.2-6.9,5.7-6.9s5.7,1.9,5.7,6.9v37.8
		C22.4,59.7,20.2,61.6,16.7,61.6z"/>
	<path d="M79.6,60.8H61.5v-60h-11v64c9.5-0.9,19.3-1.7,29.1-2.3V60.8z"/>
	<path d="M110.2,13l7.2,48.2c3.3,0,6.5-0.1,9.8-0.1c0.4,0,0.8,0,1.2,0l-9.6-60.2h-16.1l-9.8,61c3.3-0.1,6.7-0.3,10.1-0.4L110.2,13z"
		/>
	<path d="M176.2,54c0-20-21.5-22.7-21.5-37.1c0-5,2-6.9,5.5-6.9s5.5,1.9,5.5,6.9v2.9h10.4v-2.2c0-11.2-5.5-17.6-16.2-17.6
		s-16.2,6.4-16.2,17.6c0,20,21.5,22.7,21.5,37.1c0,5-2.2,6.8-5.7,6.8s-5.7-1.8-5.7-6.8v-5h-10.4V54c0,2.7,0.3,5.1,1,7.2
		c10.3,0.2,20.4,0.6,30.4,1.2C175.7,60.1,176.2,57.3,176.2,54z"/>
	<path d="M203.4,0.8h-11v62.9c3.7,0.3,7.4,0.6,11,1V0.8z"/>
	<path d="M253.9,54V17.6C253.9,6.4,248,0,237.2,0s-16.7,6.4-16.7,17.6V54c0,5.7,1.6,10.2,4.5,13.2c6.8,0.9,13.5,1.9,20.1,2.9
		C250.9,67.6,253.9,62.1,253.9,54z M237.2,61.6c-3.5,0-5.7-1.9-5.7-6.9V16.9c0-5,2.2-6.9,5.7-6.9s5.7,1.9,5.7,6.9v37.8
		C242.9,59.7,240.7,61.6,237.2,61.6z"/>
</g>
</svg>
