<svg viewBox="0 0 178 90" fill="none" xmlns="http://www.w3.org/2000/svg">
<g clip-path="url(#clip0)">
<path d="M17.8492 20.6262C18.6222 21.3979 19.1141 22.5906 19.3952 24.2743C19.606 25.5372 19.6763 26.8702 19.8168 28.2733C19.8871 29.6764 20.1682 30.8691 20.5195 31.9215H27.5468C27.1954 31.5005 26.9846 30.9393 26.8441 30.3079C26.7035 29.6764 26.563 28.9749 26.4927 28.2733C26.4224 27.5717 26.3521 26.8702 26.3521 26.1686C26.3521 25.467 26.2819 24.9058 26.2819 24.4147C26.2116 23.6429 26.1413 22.801 25.9305 22.0293C25.79 21.2576 25.5089 20.4859 25.1575 19.7843C24.8062 19.0827 24.3142 18.5215 23.7521 18.0304C23.1899 17.5393 22.4872 17.1885 21.5736 16.9079V16.8377C23.3304 16.1361 24.6656 15.0838 25.4386 13.6806C26.2116 12.2775 26.6332 10.6639 26.6332 8.83979C26.6332 7.64712 26.4224 6.45445 26.0008 5.40209C25.5792 4.34974 24.9467 3.4377 24.1034 2.59581C23.2602 1.82408 22.2764 1.19267 21.152 0.701571C20.0276 0.210471 18.6925 0 17.287 0H0V24.4848H7.02724V19.5037H14.0545C15.741 19.5037 17.0059 19.8545 17.8492 20.6262ZM7.02724 5.47225H14.6869C16.3032 5.47225 17.4978 5.82304 18.3411 6.52461C19.1141 7.22618 19.5357 8.34869 19.5357 9.89215C19.5357 11.5058 19.1141 12.6283 18.3411 13.4C17.5681 14.1016 16.3032 14.4524 14.6869 14.4524H7.02724V5.47225Z" />
<path d="M30.9904 29.1853C31.9742 30.2377 33.2391 31.0796 34.7149 31.6408C36.1906 32.2021 37.8068 32.4827 39.6339 32.4827C42.234 32.4827 44.4827 31.9215 46.3098 30.7288C48.1369 29.5361 49.5423 27.5717 50.4559 24.7654H44.8341C44.6233 25.467 44.0611 26.1686 43.1475 26.8C42.234 27.4314 41.1096 27.7822 39.8447 27.7822C38.0879 27.7822 36.6825 27.2911 35.6987 26.3791C34.7149 25.467 34.223 23.9937 34.1527 21.889H50.8072C50.9478 20.1351 50.8072 18.3811 50.3856 16.7675C49.964 15.1539 49.2612 13.6806 48.3477 12.4178C47.4342 11.155 46.2395 10.1026 44.7638 9.33089C43.2881 8.55916 41.6016 8.20837 39.6339 8.20837C37.8771 8.20837 36.2609 8.489 34.8554 9.12042C33.3797 9.75183 32.1851 10.5937 31.131 11.7162C30.0769 12.7686 29.3039 14.1016 28.7417 15.5749C28.1795 17.0482 27.8984 18.6618 27.8984 20.4157C27.8984 22.1696 28.1795 23.8534 28.7417 25.3267C29.1633 26.8 29.9363 28.0628 30.9904 29.1853ZM34.4338 16.4168C34.5743 15.8555 34.8554 15.2942 35.277 14.8031C35.6987 14.312 36.1906 13.8911 36.8933 13.5403C37.596 13.1895 38.4393 13.0492 39.4231 13.0492C40.9691 13.0492 42.0935 13.4702 42.8665 14.312C43.6395 15.1539 44.1314 16.3466 44.4827 17.9602H34.1527C34.1527 17.4691 34.2932 16.978 34.4338 16.4168Z" />
<path d="M61.2773 32.4826C62.8233 32.4826 64.1585 32.202 65.3531 31.6407C66.5477 31.0795 67.5315 30.1675 68.3045 28.9748H68.3748V31.9214H74.4182V0.0700684H68.0937V11.646H68.0235C67.3207 10.5235 66.3369 9.68159 65.072 9.05017C63.8071 8.48892 62.5422 8.20829 61.1368 8.20829C59.4502 8.20829 57.9745 8.55907 56.6393 9.19049C55.3744 9.89206 54.3203 10.7339 53.4771 11.8565C52.6338 12.979 52.0014 14.2418 51.5797 15.6449C51.1581 17.1182 50.9473 18.5915 50.9473 20.135C50.9473 21.7486 51.1581 23.2921 51.5797 24.7654C52.0014 26.2387 52.6338 27.5716 53.4771 28.6942C54.3203 29.8167 55.3744 30.7287 56.7096 31.4303C58.0448 32.202 59.5205 32.4826 61.2773 32.4826ZM57.5529 17.6093C57.7637 16.6973 58.0448 15.9256 58.4664 15.2942C58.888 14.6627 59.4502 14.0313 60.2232 13.6104C60.9259 13.1894 61.8395 12.979 62.8936 12.979C63.9477 12.979 64.7909 13.1894 65.4936 13.6104C66.1964 14.0313 66.7586 14.5926 67.1802 15.224C67.6018 15.8554 67.9532 16.6973 68.0937 17.5392C68.3045 18.4512 68.3748 19.3633 68.3748 20.2753C68.3748 21.2575 68.3045 22.1695 68.0937 23.0114C67.8829 23.9235 67.6018 24.6952 67.1802 25.3968C66.7586 26.0983 66.1964 26.6596 65.4936 27.0805C64.7909 27.5015 63.9477 27.712 62.8936 27.712C61.9098 27.712 61.0665 27.5015 60.3638 27.0805C59.661 26.6596 59.0989 26.0983 58.607 25.3968C58.1151 24.6952 57.834 23.9235 57.6231 23.0114C57.4123 22.0994 57.3421 21.2575 57.3421 20.3455C57.2718 19.4334 57.3421 18.5214 57.5529 17.6093Z" />
<path d="M96.8355 31.3602C98.1706 31.0094 99.3653 30.4481 100.49 29.6764C101.544 28.9047 102.387 27.9926 103.019 26.8C103.652 25.6073 103.933 24.2042 103.933 22.5905C103.933 20.6261 103.441 18.8722 102.457 17.4691C101.473 16.0659 99.9977 15.0837 98.0301 14.5225C99.4355 13.8209 100.56 12.979 101.263 11.8565C101.965 10.8042 102.387 9.47117 102.387 7.85756C102.387 6.38426 102.176 5.12143 101.684 4.13923C101.192 3.15703 100.49 2.31515 99.5761 1.68374C98.6625 1.05232 97.6085 0.63138 96.3435 0.350752C95.0786 0.0701237 93.6732 -0.0701904 92.1975 -0.0701904H77.1592V31.7811H92.6191C94.0948 31.9214 95.5003 31.7811 96.8355 31.3602ZM84.1864 5.47222H90.792C91.4245 5.47222 92.0569 5.54238 92.6191 5.61253C93.1813 5.68269 93.7435 5.89316 94.1651 6.17379C94.5867 6.45442 94.9381 6.8052 95.2192 7.2963C95.5003 7.7874 95.6408 8.34866 95.6408 9.12039C95.6408 10.4534 95.2192 11.4356 94.4462 11.9968C93.6732 12.5581 92.6191 12.9089 91.3542 12.9089H84.2567V5.47222H84.1864ZM84.1864 26.4492V17.7497H91.8461C93.3921 17.7497 94.5867 18.1005 95.5003 18.8021C96.4138 19.5036 96.9057 20.6963 96.9057 22.3099C96.9057 23.1518 96.7652 23.8534 96.4841 24.3445C96.203 24.9057 95.8516 25.3267 95.3597 25.6073C94.8678 25.8879 94.3056 26.1686 93.6732 26.3089C93.0407 26.4492 92.4083 26.5193 91.7056 26.5193H84.1864V26.4492Z" />
<path d="M107.868 29.2554C108.922 30.3078 110.187 31.1496 111.593 31.7109C113.068 32.2722 114.685 32.5528 116.512 32.5528C118.339 32.5528 119.955 32.2722 121.431 31.7109C122.907 31.1496 124.171 30.3078 125.226 29.2554C126.28 28.203 127.053 26.9402 127.615 25.4669C128.177 23.9936 128.458 22.3099 128.458 20.4858C128.458 18.6617 128.177 16.9779 127.615 15.4345C127.053 13.9612 126.209 12.6282 125.226 11.5758C124.171 10.5235 122.907 9.68158 121.431 9.12033C119.955 8.55907 118.339 8.27844 116.512 8.27844C114.685 8.27844 113.068 8.55907 111.593 9.12033C110.117 9.68158 108.852 10.5235 107.868 11.5758C106.814 12.6282 106.041 13.891 105.479 15.4345C104.917 16.9078 104.636 18.5915 104.636 20.4858C104.636 22.3099 104.917 23.9936 105.479 25.4669C106.041 26.8701 106.814 28.203 107.868 29.2554ZM111.241 17.6795C111.452 16.7674 111.733 15.9957 112.155 15.2941C112.577 14.5926 113.139 14.0313 113.912 13.6104C114.685 13.1894 115.528 12.979 116.582 12.979C117.636 12.979 118.55 13.1894 119.252 13.6104C119.955 14.0313 120.588 14.5926 121.009 15.2941C121.431 15.9957 121.712 16.7674 121.923 17.6795C122.134 18.5915 122.204 19.5036 122.204 20.4156C122.204 21.3277 122.134 22.2397 121.923 23.0816C121.712 23.9936 121.431 24.7654 121.009 25.4669C120.588 26.1685 120.025 26.7298 119.252 27.1507C118.55 27.5716 117.636 27.7821 116.582 27.7821C115.528 27.7821 114.614 27.5716 113.912 27.1507C113.209 26.7298 112.647 26.1685 112.155 25.4669C111.663 24.7654 111.452 23.9936 111.241 23.0816C111.031 22.1695 110.96 21.3277 110.96 20.4156C110.96 19.5036 111.031 18.5915 111.241 17.6795Z" />
<path d="M149.891 11.5758C148.837 10.5235 147.572 9.68158 146.096 9.12033C144.62 8.55907 143.004 8.27844 141.177 8.27844C139.35 8.27844 137.733 8.55907 136.258 9.12033C134.782 9.68158 133.517 10.5235 132.533 11.5758C131.479 12.6282 130.706 13.891 130.144 15.4345C129.582 16.9078 129.301 18.5915 129.301 20.4858C129.301 22.3099 129.582 23.9936 130.144 25.4669C130.706 26.9402 131.55 28.203 132.533 29.2554C133.587 30.3078 134.852 31.1496 136.258 31.7109C137.733 32.2722 139.35 32.5528 141.177 32.5528C143.004 32.5528 144.62 32.2722 146.096 31.7109C147.572 31.1496 148.837 30.3078 149.891 29.2554C150.945 28.203 151.718 26.9402 152.28 25.4669C152.842 23.9936 153.123 22.3099 153.123 20.4858C153.123 18.6617 152.842 16.9779 152.28 15.4345C151.718 13.891 150.945 12.6282 149.891 11.5758ZM146.518 23.0816C146.307 23.9936 146.026 24.7654 145.604 25.4669C145.182 26.1685 144.62 26.7298 143.847 27.1507C143.144 27.5716 142.231 27.7821 141.177 27.7821C140.123 27.7821 139.209 27.5716 138.506 27.1507C137.804 26.7298 137.242 26.1685 136.75 25.4669C136.328 24.7654 135.977 23.9936 135.836 23.0816C135.625 22.1695 135.555 21.3277 135.555 20.4156C135.555 19.5036 135.625 18.5915 135.836 17.6795C136.047 16.7674 136.328 15.9957 136.75 15.2941C137.171 14.5926 137.733 14.0313 138.506 13.6104C139.209 13.1894 140.123 12.979 141.177 12.979C142.231 12.979 143.144 13.1894 143.847 13.6104C144.55 14.0313 145.182 14.5926 145.604 15.2941C146.026 15.9957 146.377 16.7674 146.518 17.6795C146.728 18.5915 146.799 19.5036 146.799 20.4156C146.799 21.3277 146.728 22.2397 146.518 23.0816Z" />
<path d="M168.302 17.3287L177.016 8.8397H169.497L161.556 17.1182V0.0700684H155.161V31.9214H161.556V23.9936L164.015 21.6083L170.34 31.9214H178L168.302 17.3287Z" />
<g opacity="0.6">
<path d="M7.02724 27.0807H0V58.932H7.02724V27.0807Z" />
<path d="M29.7952 37.8849C29.1628 37.043 28.3195 36.4116 27.1951 35.9906C26.141 35.4995 24.7356 35.2891 23.0491 35.2891C21.7139 35.2891 20.3787 35.5697 19.1138 36.2011C17.8489 36.8325 16.7948 37.8147 15.9516 39.1477H15.811V35.9205H9.76758V59.0022H16.0921V46.865C16.0921 44.4796 16.5137 42.7959 17.2867 41.8137C18.0597 40.7613 19.3246 40.2702 21.0112 40.2702C22.5572 40.2702 23.6112 40.7613 24.1734 41.6734C24.7356 42.5854 25.087 44.0587 25.087 45.9529V59.0022H31.4115V44.7603C31.4115 43.3571 31.2709 42.0241 31.0601 40.8315C30.8493 39.709 30.4277 38.7268 29.7952 37.8849Z" />
<path d="M51.6501 47.0755C50.9474 46.5844 50.1744 46.1634 49.3312 45.8828C48.4176 45.6022 47.5743 45.3215 46.6608 45.1111C45.7473 44.9006 44.904 44.6901 43.9905 44.5498C43.1472 44.3393 42.3742 44.199 41.6715 43.9184C40.9687 43.7079 40.4768 43.4273 40.0552 43.0765C39.6336 42.7257 39.4227 42.2346 39.4227 41.6734C39.4227 41.1823 39.5633 40.8315 39.7741 40.5508C39.9849 40.2702 40.3363 40.0597 40.6174 39.9194C40.9687 39.7791 41.3201 39.709 41.7417 39.6388C42.1634 39.5686 42.5147 39.5686 42.9364 39.5686C44.0607 39.5686 45.0445 39.7791 45.8878 40.2001C46.7311 40.621 47.1527 41.4629 47.2933 42.6556H53.3367C53.1961 41.2524 52.8448 40.0597 52.2123 39.0775C51.5799 38.0953 50.8069 37.3938 49.8933 36.8325C48.9798 36.2713 47.9257 35.8503 46.7311 35.6398C45.5364 35.4294 44.3418 35.2891 43.0769 35.2891C41.812 35.2891 40.6174 35.4294 39.4227 35.6398C38.2281 35.8503 37.174 36.2713 36.1902 36.8325C35.2064 37.3938 34.5037 38.1655 33.8712 39.0775C33.3091 40.0597 33.028 41.2524 33.028 42.7257C33.028 43.7079 33.2388 44.62 33.6604 45.3215C34.082 46.0231 34.6442 46.5844 35.3469 47.0755C36.0497 47.5666 36.8227 47.9173 37.6659 48.198C38.5795 48.4786 39.4228 48.7592 40.3363 48.9697C42.585 49.4608 44.3418 49.9519 45.6067 50.3728C46.8716 50.8639 47.5041 51.5655 47.5041 52.5477C47.5041 53.109 47.3635 53.6001 47.0824 53.9508C46.8014 54.3016 46.45 54.6524 46.0986 54.8629C45.7473 55.0734 45.2554 55.2838 44.7635 55.354C44.2715 55.4241 43.7796 55.4943 43.358 55.4943C42.7256 55.4943 42.0931 55.4241 41.5309 55.2838C40.9687 55.1435 40.4066 54.933 39.9849 54.5823C39.5633 54.3016 39.1417 53.8807 38.8606 53.3896C38.5795 52.8985 38.4389 52.3372 38.4389 51.6357H32.3955C32.4658 53.1791 32.8171 54.4419 33.4496 55.4943C34.082 56.5467 34.9253 57.3184 35.9091 57.9498C36.8929 58.5812 38.0173 59.0022 39.3525 59.2828C40.6174 59.5634 41.9526 59.7037 43.2877 59.7037C44.6229 59.7037 45.8878 59.5634 47.1527 59.3529C48.4176 59.0723 49.542 58.6514 50.5258 58.02C51.5096 57.3885 52.2826 56.5467 52.9151 55.5645C53.5475 54.5121 53.8286 53.2493 53.8286 51.776C53.8286 50.7236 53.6178 49.8116 53.1961 49.11C52.915 48.1278 52.3529 47.5666 51.6501 47.0755Z" />
<path d="M75.9646 39.0074C75.1213 37.8848 73.997 36.9728 72.7321 36.2712C71.3969 35.5697 69.8509 35.2189 68.0238 35.2189C66.6184 35.2189 65.2832 35.4995 64.0886 36.0608C62.8939 36.622 61.9101 37.5341 61.1371 38.7969H61.0669V35.8503H55.0234V67H61.348V56.1257H61.4182C62.1912 57.2482 63.175 58.0901 64.3697 58.7215C65.5643 59.2827 66.8995 59.5634 68.3049 59.5634C69.9915 59.5634 71.4672 59.2126 72.7321 58.5812C73.997 57.9498 75.0511 57.0377 75.8943 55.9152C76.7376 54.7927 77.3701 53.5299 77.7917 52.1267C78.2133 50.7236 78.4242 49.1801 78.4242 47.6367C78.4242 46.0231 78.2133 44.4094 77.7917 42.9361C77.4403 41.4629 76.8079 40.1299 75.9646 39.0074ZM71.8888 50.2325C71.678 51.1445 71.3969 51.9163 70.9753 52.5477C70.5536 53.2492 69.9915 53.7403 69.2887 54.1613C68.586 54.5822 67.7427 54.7927 66.6887 54.7927C65.7048 54.7927 64.7913 54.5822 64.0886 54.1613C63.3859 53.7403 62.8237 53.1791 62.3318 52.5477C61.9101 51.8461 61.5588 51.0744 61.4182 50.2325C61.2074 49.3204 61.1371 48.4084 61.1371 47.4964C61.1371 46.5142 61.2074 45.6021 61.4182 44.7602C61.629 43.8482 61.9101 43.0765 62.3318 42.3749C62.7534 41.6733 63.3156 41.1121 64.0183 40.6911C64.721 40.2702 65.5643 40.0597 66.6184 40.0597C67.6022 40.0597 68.5157 40.2702 69.2185 40.6911C69.9212 41.1121 70.4834 41.6733 70.9753 42.3749C71.3969 43.0765 71.7483 43.8482 71.9591 44.7602C72.1699 45.6723 72.2402 46.5843 72.2402 47.4964C72.1699 48.4084 72.0294 49.3204 71.8888 50.2325Z" />
<path d="M99.0137 39.4985C98.1002 38.2357 96.9056 37.1833 95.4298 36.4116C93.9541 35.6398 92.2676 35.2891 90.2999 35.2891C88.5431 35.2891 86.9269 35.5697 85.5214 36.2011C84.0457 36.8325 82.8511 37.6744 81.797 38.7969C80.7429 39.8493 79.9699 41.1823 79.4077 42.6556C78.8455 44.1289 78.5645 45.7425 78.5645 47.4964C78.5645 49.2503 78.8455 50.9341 79.4077 52.4074C79.9699 53.8807 80.7429 55.1435 81.7267 56.266C82.7105 57.3184 83.9754 58.1603 85.4511 58.7215C86.9269 59.2828 88.5431 59.5634 90.3702 59.5634C92.9703 59.5634 95.219 59.0022 97.0461 57.8095C98.8732 56.6168 100.279 54.6524 101.192 51.8461H95.5704C95.3596 52.5477 94.7974 53.2493 93.8838 53.8807C92.9703 54.5121 91.8459 54.8629 90.581 54.8629C88.8242 54.8629 87.4188 54.3718 86.435 53.4597C85.4511 52.5477 84.9592 51.0744 84.889 48.9697H101.544C101.684 47.2158 101.544 45.4618 101.122 43.8482C100.63 42.2346 99.9975 40.7613 99.0137 39.4985ZM84.8187 44.9707C84.8187 44.5498 84.9592 43.9885 85.0998 43.4273C85.2403 42.866 85.5214 42.3048 85.9431 41.8137C86.3647 41.3226 86.8566 40.9016 87.5593 40.5508C88.262 40.2001 89.1053 40.0597 90.0891 40.0597C91.6351 40.0597 92.7595 40.4807 93.5325 41.3226C94.3055 42.1645 94.7974 43.3571 95.1487 44.9707H84.8187Z" />
<path d="M127.263 29.6765V35.9205H123.398V40.1299C122.765 39.0776 121.992 38.1655 121.009 37.464C120.025 36.7624 118.9 36.2011 117.636 35.8503C116.371 35.4996 115.035 35.2891 113.7 35.2891C111.803 35.2891 110.187 35.5697 108.711 36.2011C107.235 36.8325 106.041 37.6744 104.987 38.7969C104.003 39.9194 103.23 41.2524 102.668 42.7959C102.176 44.3393 101.895 45.953 101.895 47.777C101.895 49.531 102.176 51.0744 102.738 52.5477C103.3 54.021 104.073 55.2137 105.127 56.266C106.111 57.3184 107.376 58.0901 108.781 58.7215C110.257 59.2828 111.803 59.5634 113.56 59.5634C116.652 59.5634 119.182 58.7917 121.149 57.1781C123.117 55.5645 124.311 53.2493 124.733 50.1624H118.619C118.409 51.5655 117.917 52.7582 117.073 53.6001C116.23 54.442 115.106 54.8629 113.56 54.8629C112.576 54.8629 111.733 54.6524 111.03 54.1613C110.327 53.7404 109.765 53.109 109.414 52.4074C108.992 51.7058 108.711 50.9341 108.57 50.0922C108.36 49.2503 108.289 48.4085 108.289 47.5666C108.289 46.7247 108.36 45.8126 108.57 44.9708C108.781 44.0587 109.062 43.287 109.484 42.5854C109.906 41.8838 110.468 41.2524 111.17 40.8315C111.873 40.3404 112.716 40.1299 113.7 40.1299C116.441 40.1299 117.987 41.4629 118.409 44.1289H124.593C124.522 42.6556 124.171 41.3226 123.538 40.2702H127.333V53.8807C127.333 55.0734 127.544 55.9854 127.895 56.687C128.317 57.3886 128.809 57.9498 129.512 58.3708C130.214 58.7917 130.987 59.0022 131.831 59.1425C132.744 59.2828 133.658 59.353 134.641 59.353C135.274 59.353 135.906 59.353 136.539 59.2828C137.171 59.2828 137.804 59.2126 138.296 59.0723V54.1613C138.015 54.2315 137.663 54.2315 137.382 54.3017C137.031 54.3017 136.679 54.3718 136.328 54.3718C135.274 54.3718 134.571 54.1613 134.15 53.8105C133.798 53.4598 133.587 52.7582 133.587 51.6357V40.1299H138.225V35.9205H133.587V33.8859" />
</g>
</g>
<g opacity="1">
<path d="M7.35156 78.2969H7.42188L9.5625 86H11.7891L14.7812 74.7266H12.3359L10.5547 82.8906H10.4922L8.38281 74.7266H6.39062L4.28125 82.8906H4.21875L2.44531 74.7266H0L2.98438 86H5.21094L7.35156 78.2969Z" />
<path d="M18.3597 79.1328C19.3753 79.1328 20.0706 79.8672 20.1175 80.9375H16.5628C16.6409 79.8906 17.3597 79.1328 18.3597 79.1328ZM20.1488 83.4375C19.9378 84.0781 19.2972 84.4922 18.4613 84.4922C17.2972 84.4922 16.5394 83.6719 16.5394 82.4766V82.3359H22.3128V81.6406C22.3128 79.0938 20.7738 77.4453 18.3363 77.4453C15.8597 77.4453 14.2972 79.1797 14.2972 81.8516C14.2972 84.5312 15.8441 86.1797 18.4222 86.1797C20.4925 86.1797 21.9925 85.0781 22.2425 83.4375H20.1488Z" />
<path d="M28.1491 86.1328C30.2584 86.1328 31.5475 84.5078 31.5475 81.8125C31.5475 79.1094 30.2506 77.4922 28.1413 77.4922C26.9459 77.4922 26.0163 78.0859 25.5553 79.0781H25.5084V74.7266H23.2272V86H25.4772V84.5625H25.5241C25.985 85.5391 26.9225 86.1328 28.1491 86.1328ZM27.36 79.3203C28.4928 79.3203 29.2116 80.2891 29.2116 81.8125C29.2116 83.3438 28.5006 84.2969 27.36 84.2969C26.2506 84.2969 25.5006 83.3281 25.5006 81.8125C25.5006 80.3125 26.2584 79.3203 27.36 79.3203Z" />
<path d="M32.2744 80.0859C32.2744 81.3438 33.0947 82.1562 34.7119 82.5L36.1416 82.7969C36.9619 82.9844 37.2509 83.2344 37.2509 83.6797C37.2509 84.2266 36.7197 84.5781 35.8603 84.5781C34.9541 84.5781 34.4306 84.1875 34.29 83.4531H32.0634C32.2119 85.1016 33.5478 86.1797 35.8603 86.1797C38.0166 86.1797 39.5244 85.0938 39.5244 83.4453C39.5244 82.2188 38.8056 81.5312 37.0556 81.1641L35.6259 80.8594C34.7822 80.6797 34.4697 80.3906 34.4697 79.9609C34.4697 79.4062 34.9931 79.0469 35.7822 79.0469C36.6259 79.0469 37.1338 79.5078 37.2041 80.1875H39.3056C39.2588 78.5469 37.9306 77.4453 35.7822 77.4453C33.6494 77.4453 32.2744 78.4922 32.2744 80.0859Z" />
<path d="M40.3684 86H42.6497V77.625H40.3684V86ZM41.5013 76.4922C42.1653 76.4922 42.6888 75.9609 42.6888 75.3203C42.6888 74.6719 42.1653 74.1484 41.5013 74.1484C40.8372 74.1484 40.3138 74.6719 40.3138 75.3203C40.3138 75.9609 40.8372 76.4922 41.5013 76.4922Z" />
<path d="M44.4625 75.6953V77.625H43.2828V79.3438H44.4625V83.7422C44.4625 85.375 45.2281 86.0312 47.1969 86.0312C47.6578 86.0312 48.0484 85.9922 48.2828 85.9375V84.2578C48.1422 84.2812 47.9313 84.2969 47.7281 84.2969C47.0563 84.2969 46.7438 83.9922 46.7438 83.3516V79.3438H48.2906V77.625H46.7438V75.6953H44.4625Z" />
<path d="M52.8534 79.1328C53.8691 79.1328 54.5644 79.8672 54.6113 80.9375H51.0566C51.1347 79.8906 51.8534 79.1328 52.8534 79.1328ZM54.6425 83.4375C54.4316 84.0781 53.7909 84.4922 52.955 84.4922C51.7909 84.4922 51.0331 83.6719 51.0331 82.4766V82.3359H56.8066V81.6406C56.8066 79.0938 55.2675 77.4453 52.83 77.4453C50.3534 77.4453 48.7909 79.1797 48.7909 81.8516C48.7909 84.5312 50.3378 86.1797 52.9159 86.1797C54.9863 86.1797 56.4863 85.0781 56.7363 83.4375H54.6425Z" />
<path d="M60.5181 86H62.7994V81.3203C62.7994 80.1406 63.4556 79.4531 64.5806 79.4531C64.9088 79.4531 65.2213 79.5078 65.4088 79.5859V77.5781C65.2525 77.5312 65.0259 77.4922 64.7603 77.4922C63.7759 77.4922 63.065 78.0703 62.7681 79.1328H62.7212V77.625H60.5181V86Z" />
<path d="M69.5028 79.1328C70.5184 79.1328 71.2138 79.8672 71.2606 80.9375H67.7059C67.7841 79.8906 68.5028 79.1328 69.5028 79.1328ZM71.2919 83.4375C71.0809 84.0781 70.4403 84.4922 69.6044 84.4922C68.4403 84.4922 67.6825 83.6719 67.6825 82.4766V82.3359H73.4559V81.6406C73.4559 79.0938 71.9169 77.4453 69.4794 77.4453C67.0028 77.4453 65.4403 79.1797 65.4403 81.8516C65.4403 84.5312 66.9872 86.1797 69.5653 86.1797C71.6356 86.1797 73.1356 85.0781 73.3856 83.4375H71.2919Z" />
<path d="M77.425 86.1328C78.6594 86.1328 79.6281 85.4844 80.0344 84.5625H80.0734V86H82.3234V74.7266H80.0422V79.0625H79.9953C79.5891 78.1328 78.6516 77.4922 77.4406 77.4922C75.3391 77.4922 74.0109 79.1406 74.0109 81.7969C74.0109 84.4766 75.3313 86.1328 77.425 86.1328ZM78.1984 79.3203C79.3313 79.3203 80.0578 80.2891 80.0578 81.8125C80.0578 83.3438 79.3313 84.2969 78.1984 84.2969C77.05 84.2969 76.3469 83.3516 76.3469 81.8125C76.3469 80.2812 77.05 79.3203 78.1984 79.3203Z" />
<path d="M87.2847 79.1328C88.3003 79.1328 88.9956 79.8672 89.0425 80.9375H85.4878C85.5659 79.8906 86.2847 79.1328 87.2847 79.1328ZM89.0738 83.4375C88.8628 84.0781 88.2222 84.4922 87.3863 84.4922C86.2222 84.4922 85.4644 83.6719 85.4644 82.4766V82.3359H91.2378V81.6406C91.2378 79.0938 89.6988 77.4453 87.2613 77.4453C84.7847 77.4453 83.2222 79.1797 83.2222 81.8516C83.2222 84.5312 84.7691 86.1797 87.3472 86.1797C89.4175 86.1797 90.9175 85.0781 91.1675 83.4375H89.0738Z" />
<path d="M91.9569 80.0859C91.9569 81.3438 92.7772 82.1562 94.3944 82.5L95.8241 82.7969C96.6444 82.9844 96.9334 83.2344 96.9334 83.6797C96.9334 84.2266 96.4022 84.5781 95.5428 84.5781C94.6366 84.5781 94.1131 84.1875 93.9725 83.4531H91.7459C91.8944 85.1016 93.2303 86.1797 95.5428 86.1797C97.6991 86.1797 99.2069 85.0938 99.2069 83.4453C99.2069 82.2188 98.4881 81.5312 96.7381 81.1641L95.3084 80.8594C94.4647 80.6797 94.1522 80.3906 94.1522 79.9609C94.1522 79.4062 94.6756 79.0469 95.4647 79.0469C96.3084 79.0469 96.8163 79.5078 96.8866 80.1875H98.9881C98.9413 78.5469 97.6131 77.4453 95.4647 77.4453C93.3319 77.4453 91.9569 78.4922 91.9569 80.0859Z" />
<path d="M100.051 86H102.332V77.625H100.051V86ZM101.184 76.4922C101.848 76.4922 102.371 75.9609 102.371 75.3203C102.371 74.6719 101.848 74.1484 101.184 74.1484C100.52 74.1484 99.9962 74.6719 99.9962 75.3203C99.9962 75.9609 100.52 76.4922 101.184 76.4922Z" />
<path d="M107.403 84.2188C106.27 84.2188 105.567 83.3281 105.567 81.7969C105.567 80.2734 106.278 79.3203 107.403 79.3203C108.543 79.3203 109.27 80.2891 109.27 81.7969C109.27 83.3125 108.543 84.2188 107.403 84.2188ZM107.364 89.1562C109.872 89.1562 111.543 87.8828 111.543 85.8828V77.625H109.293V79.0859H109.254C108.817 78.125 107.872 77.4922 106.668 77.4922C104.543 77.4922 103.231 79.125 103.231 81.7812C103.231 84.3984 104.582 85.9766 106.629 85.9766C107.84 85.9766 108.825 85.3672 109.215 84.4766H109.262V85.9453C109.262 86.9141 108.606 87.5703 107.426 87.5703C106.559 87.5703 105.903 87.1719 105.723 86.5938H103.489C103.668 88.0859 105.161 89.1562 107.364 89.1562Z" />
<path d="M112.716 86H114.997V81.1953C114.997 80.1094 115.645 79.3594 116.669 79.3594C117.692 79.3594 118.208 79.9844 118.208 81.0781V86H120.489V80.6016C120.489 78.6406 119.442 77.4688 117.583 77.4688C116.294 77.4688 115.411 78.0781 114.966 79.1172H114.919V77.625H112.716V86Z" />
</g>

</svg>
