<svg viewBox="0 0 178 90" fill="none" xmlns="http://www.w3.org/2000/svg">
<g clip-path="url(#clip0)">
<path d="M17.8492 20.6262C18.6222 21.3979 19.1141 22.5906 19.3952 24.2743C19.606 25.5372 19.6763 26.8702 19.8168 28.2733C19.8871 29.6764 20.1682 30.8691 20.5195 31.9215H27.5468C27.1954 31.5005 26.9846 30.9393 26.8441 30.3079C26.7035 29.6764 26.563 28.9749 26.4927 28.2733C26.4224 27.5717 26.3521 26.8702 26.3521 26.1686C26.3521 25.467 26.2819 24.9058 26.2819 24.4147C26.2116 23.6429 26.1413 22.801 25.9305 22.0293C25.79 21.2576 25.5089 20.4859 25.1575 19.7843C24.8062 19.0827 24.3142 18.5215 23.7521 18.0304C23.1899 17.5393 22.4872 17.1885 21.5736 16.9079V16.8377C23.3304 16.1361 24.6656 15.0838 25.4386 13.6806C26.2116 12.2775 26.6332 10.6639 26.6332 8.83979C26.6332 7.64712 26.4224 6.45445 26.0008 5.40209C25.5792 4.34974 24.9467 3.4377 24.1034 2.59581C23.2602 1.82408 22.2764 1.19267 21.152 0.701571C20.0276 0.210471 18.6925 0 17.287 0H0V24.4848H7.02724V19.5037H14.0545C15.741 19.5037 17.0059 19.8545 17.8492 20.6262ZM7.02724 5.47225H14.6869C16.3032 5.47225 17.4978 5.82304 18.3411 6.52461C19.1141 7.22618 19.5357 8.34869 19.5357 9.89215C19.5357 11.5058 19.1141 12.6283 18.3411 13.4C17.5681 14.1016 16.3032 14.4524 14.6869 14.4524H7.02724V5.47225Z" />
<path d="M30.9904 29.1853C31.9742 30.2377 33.2391 31.0796 34.7149 31.6408C36.1906 32.2021 37.8068 32.4827 39.6339 32.4827C42.234 32.4827 44.4827 31.9215 46.3098 30.7288C48.1369 29.5361 49.5423 27.5717 50.4559 24.7654H44.8341C44.6233 25.467 44.0611 26.1686 43.1475 26.8C42.234 27.4314 41.1096 27.7822 39.8447 27.7822C38.0879 27.7822 36.6825 27.2911 35.6987 26.3791C34.7149 25.467 34.223 23.9937 34.1527 21.889H50.8072C50.9478 20.1351 50.8072 18.3811 50.3856 16.7675C49.964 15.1539 49.2612 13.6806 48.3477 12.4178C47.4342 11.155 46.2395 10.1026 44.7638 9.33089C43.2881 8.55916 41.6016 8.20837 39.6339 8.20837C37.8771 8.20837 36.2609 8.489 34.8554 9.12042C33.3797 9.75183 32.1851 10.5937 31.131 11.7162C30.0769 12.7686 29.3039 14.1016 28.7417 15.5749C28.1795 17.0482 27.8984 18.6618 27.8984 20.4157C27.8984 22.1696 28.1795 23.8534 28.7417 25.3267C29.1633 26.8 29.9363 28.0628 30.9904 29.1853ZM34.4338 16.4168C34.5743 15.8555 34.8554 15.2942 35.277 14.8031C35.6987 14.312 36.1906 13.8911 36.8933 13.5403C37.596 13.1895 38.4393 13.0492 39.4231 13.0492C40.9691 13.0492 42.0935 13.4702 42.8665 14.312C43.6395 15.1539 44.1314 16.3466 44.4827 17.9602H34.1527C34.1527 17.4691 34.2932 16.978 34.4338 16.4168Z" />
<path d="M61.2773 32.4827C62.8233 32.4827 64.1585 32.2021 65.3531 31.6408C66.5477 31.0796 67.5315 30.1675 68.3045 28.9748H68.3748V31.9214H74.4182V0.0701294H68.0937V11.646H68.0235C67.3207 10.5235 66.3369 9.68165 65.072 9.05023C63.8071 8.48898 62.5422 8.20835 61.1368 8.20835C59.4502 8.20835 57.9745 8.55913 56.6393 9.19055C55.3744 9.89212 54.3203 10.734 53.4771 11.8565C52.6338 12.979 52.0014 14.2419 51.5797 15.645C51.1581 17.1183 50.9473 18.5916 50.9473 20.1351C50.9473 21.7487 51.1581 23.2921 51.5797 24.7654C52.0014 26.2387 52.6338 27.5717 53.4771 28.6942C54.3203 29.8167 55.3744 30.7288 56.7096 31.4303C58.0448 32.2021 59.5205 32.4827 61.2773 32.4827ZM57.5529 17.6094C57.7637 16.6974 58.0448 15.9256 58.4664 15.2942C58.888 14.6628 59.4502 14.0314 60.2232 13.6104C60.9259 13.1895 61.8395 12.979 62.8936 12.979C63.9477 12.979 64.7909 13.1895 65.4936 13.6104C66.1964 14.0314 66.7586 14.5926 67.1802 15.2241C67.6018 15.8555 67.9532 16.6974 68.0937 17.5392C68.3045 18.4513 68.3748 19.3633 68.3748 20.2754C68.3748 21.2576 68.3045 22.1696 68.0937 23.0115C67.8829 23.9235 67.6018 24.6953 67.1802 25.3968C66.7586 26.0984 66.1964 26.6597 65.4936 27.0806C64.7909 27.5015 63.9477 27.712 62.8936 27.712C61.9098 27.712 61.0665 27.5015 60.3638 27.0806C59.661 26.6597 59.0989 26.0984 58.607 25.3968C58.1151 24.6953 57.834 23.9235 57.6231 23.0115C57.4123 22.0994 57.3421 21.2576 57.3421 20.3455C57.2718 19.4335 57.3421 18.5214 57.5529 17.6094Z" />
<path d="M96.8355 31.3602C98.1706 31.0094 99.3653 30.4481 100.49 29.6764C101.544 28.9047 102.387 27.9926 103.019 26.8C103.652 25.6073 103.933 24.2042 103.933 22.5905C103.933 20.6261 103.441 18.8722 102.457 17.4691C101.473 16.0659 99.9977 15.0837 98.0301 14.5225C99.4355 13.8209 100.56 12.979 101.263 11.8565C101.965 10.8042 102.387 9.47117 102.387 7.85756C102.387 6.38426 102.176 5.12143 101.684 4.13923C101.192 3.15703 100.49 2.31515 99.5761 1.68374C98.6625 1.05232 97.6085 0.63138 96.3435 0.350752C95.0786 0.0701237 93.6732 -0.0701904 92.1975 -0.0701904H77.1592V31.7811H92.6191C94.0948 31.9214 95.5003 31.7811 96.8355 31.3602ZM84.1864 5.47222H90.792C91.4245 5.47222 92.0569 5.54238 92.6191 5.61253C93.1813 5.68269 93.7435 5.89316 94.1651 6.17379C94.5867 6.45442 94.9381 6.8052 95.2192 7.2963C95.5003 7.7874 95.6408 8.34866 95.6408 9.12039C95.6408 10.4534 95.2192 11.4356 94.4462 11.9968C93.6732 12.5581 92.6191 12.9089 91.3542 12.9089H84.2567V5.47222H84.1864ZM84.1864 26.4492V17.7497H91.8461C93.3921 17.7497 94.5867 18.1005 95.5003 18.8021C96.4138 19.5036 96.9057 20.6963 96.9057 22.3099C96.9057 23.1518 96.7652 23.8534 96.4841 24.3445C96.203 24.9057 95.8516 25.3267 95.3597 25.6073C94.8678 25.8879 94.3056 26.1686 93.6732 26.3089C93.0407 26.4492 92.4083 26.5193 91.7056 26.5193H84.1864V26.4492Z" />
<path d="M107.868 29.2555C108.922 30.3078 110.187 31.1497 111.593 31.711C113.068 32.2722 114.685 32.5528 116.512 32.5528C118.339 32.5528 119.955 32.2722 121.431 31.711C122.907 31.1497 124.171 30.3078 125.226 29.2555C126.28 28.2031 127.053 26.9403 127.615 25.467C128.177 23.9937 128.458 22.3099 128.458 20.4858C128.458 18.6617 128.177 16.978 127.615 15.4345C127.053 13.9612 126.209 12.6282 125.226 11.5759C124.171 10.5235 122.907 9.68164 121.431 9.12039C119.955 8.55913 118.339 8.2785 116.512 8.2785C114.685 8.2785 113.068 8.55913 111.593 9.12039C110.117 9.68164 108.852 10.5235 107.868 11.5759C106.814 12.6282 106.041 13.8911 105.479 15.4345C104.917 16.9078 104.636 18.5916 104.636 20.4858C104.636 22.3099 104.917 23.9937 105.479 25.467C106.041 26.8701 106.814 28.2031 107.868 29.2555ZM111.241 17.6796C111.452 16.7675 111.733 15.9958 112.155 15.2942C112.577 14.5926 113.139 14.0314 113.912 13.6104C114.685 13.1895 115.528 12.979 116.582 12.979C117.636 12.979 118.55 13.1895 119.252 13.6104C119.955 14.0314 120.588 14.5926 121.009 15.2942C121.431 15.9958 121.712 16.7675 121.923 17.6796C122.134 18.5916 122.204 19.5036 122.204 20.4157C122.204 21.3277 122.134 22.2398 121.923 23.0816C121.712 23.9937 121.431 24.7654 121.009 25.467C120.588 26.1686 120.025 26.7298 119.252 27.1508C118.55 27.5717 117.636 27.7822 116.582 27.7822C115.528 27.7822 114.614 27.5717 113.912 27.1508C113.209 26.7298 112.647 26.1686 112.155 25.467C111.663 24.7654 111.452 23.9937 111.241 23.0816C111.031 22.1696 110.96 21.3277 110.96 20.4157C110.96 19.5036 111.031 18.5916 111.241 17.6796Z" />
<path d="M149.891 11.5759C148.837 10.5235 147.572 9.68164 146.096 9.12039C144.62 8.55913 143.004 8.2785 141.177 8.2785C139.35 8.2785 137.733 8.55913 136.258 9.12039C134.782 9.68164 133.517 10.5235 132.533 11.5759C131.479 12.6282 130.706 13.8911 130.144 15.4345C129.582 16.9078 129.301 18.5916 129.301 20.4858C129.301 22.3099 129.582 23.9937 130.144 25.467C130.706 26.9403 131.55 28.2031 132.533 29.2555C133.587 30.3078 134.852 31.1497 136.258 31.711C137.733 32.2722 139.35 32.5528 141.177 32.5528C143.004 32.5528 144.62 32.2722 146.096 31.711C147.572 31.1497 148.837 30.3078 149.891 29.2555C150.945 28.2031 151.718 26.9403 152.28 25.467C152.842 23.9937 153.123 22.3099 153.123 20.4858C153.123 18.6617 152.842 16.978 152.28 15.4345C151.718 13.8911 150.945 12.6282 149.891 11.5759ZM146.518 23.0816C146.307 23.9937 146.026 24.7654 145.604 25.467C145.182 26.1686 144.62 26.7298 143.847 27.1508C143.144 27.5717 142.231 27.7822 141.177 27.7822C140.123 27.7822 139.209 27.5717 138.506 27.1508C137.804 26.7298 137.242 26.1686 136.75 25.467C136.328 24.7654 135.977 23.9937 135.836 23.0816C135.625 22.1696 135.555 21.3277 135.555 20.4157C135.555 19.5036 135.625 18.5916 135.836 17.6796C136.047 16.7675 136.328 15.9958 136.75 15.2942C137.171 14.5926 137.733 14.0314 138.506 13.6104C139.209 13.1895 140.123 12.979 141.177 12.979C142.231 12.979 143.144 13.1895 143.847 13.6104C144.55 14.0314 145.182 14.5926 145.604 15.2942C146.026 15.9958 146.377 16.7675 146.518 17.6796C146.728 18.5916 146.799 19.5036 146.799 20.4157C146.799 21.3277 146.728 22.2398 146.518 23.0816Z" />
<path d="M168.302 17.3288L177.016 8.83976H169.497L161.556 17.1183V0.0701294H155.161V31.9214H161.556V23.9937L164.015 21.6083L170.34 31.9214H178L168.302 17.3288Z" />
<g opacity="0.6">
<path d="M7.02724 27.0806H0V58.9319H7.02724V27.0806Z" />
<path d="M29.7952 37.8848C29.1628 37.0429 28.3195 36.4115 27.1951 35.9906C26.141 35.4995 24.7356 35.289 23.0491 35.289C21.7139 35.289 20.3787 35.5696 19.1138 36.201C17.8489 36.8325 16.7948 37.8147 15.9516 39.1476H15.811V35.9204H9.76758V59.0021H16.0921V46.8649C16.0921 44.4796 16.5137 42.7958 17.2867 41.8136C18.0597 40.7613 19.3246 40.2702 21.0112 40.2702C22.5572 40.2702 23.6112 40.7613 24.1734 41.6733C24.7356 42.5853 25.087 44.0586 25.087 45.9529V59.0021H31.4115V44.7602C31.4115 43.3571 31.2709 42.0241 31.0601 40.8314C30.8493 39.7089 30.4277 38.7267 29.7952 37.8848Z" />
<path d="M51.6501 47.0754C50.9474 46.5843 50.1744 46.1633 49.3312 45.8827C48.4176 45.6021 47.5743 45.3215 46.6608 45.111C45.7473 44.9005 44.904 44.6901 43.9905 44.5497C43.1472 44.3393 42.3742 44.1989 41.6715 43.9183C40.9687 43.7078 40.4768 43.4272 40.0552 43.0764C39.6336 42.7257 39.4227 42.2346 39.4227 41.6733C39.4227 41.1822 39.5633 40.8314 39.7741 40.5508C39.9849 40.2702 40.3363 40.0597 40.6174 39.9194C40.9687 39.7791 41.3201 39.7089 41.7417 39.6387C42.1634 39.5686 42.5147 39.5686 42.9364 39.5686C44.0607 39.5686 45.0445 39.7791 45.8878 40.2C46.7311 40.6209 47.1527 41.4628 47.2933 42.6555H53.3367C53.1961 41.2524 52.8448 40.0597 52.2123 39.0775C51.5799 38.0953 50.8069 37.3937 49.8933 36.8325C48.9798 36.2712 47.9257 35.8503 46.7311 35.6398C45.5364 35.4293 44.3418 35.289 43.0769 35.289C41.812 35.289 40.6174 35.4293 39.4227 35.6398C38.2281 35.8503 37.174 36.2712 36.1902 36.8325C35.2064 37.3937 34.5037 38.1654 33.8712 39.0775C33.3091 40.0597 33.028 41.2524 33.028 42.7257C33.028 43.7079 33.2388 44.6199 33.6604 45.3215C34.082 46.023 34.6442 46.5843 35.3469 47.0754C36.0497 47.5665 36.8227 47.9173 37.6659 48.1979C38.5795 48.4785 39.4228 48.7592 40.3363 48.9696C42.585 49.4607 44.3418 49.9518 45.6067 50.3728C46.8716 50.8639 47.5041 51.5654 47.5041 52.5476C47.5041 53.1089 47.3635 53.6 47.0824 53.9508C46.8014 54.3016 46.45 54.6524 46.0986 54.8628C45.7473 55.0733 45.2554 55.2838 44.7635 55.3539C44.2715 55.4241 43.7796 55.4942 43.358 55.4942C42.7256 55.4942 42.0931 55.4241 41.5309 55.2838C40.9687 55.1435 40.4066 54.933 39.9849 54.5822C39.5633 54.3016 39.1417 53.8806 38.8606 53.3895C38.5795 52.8984 38.4389 52.3372 38.4389 51.6356H32.3955C32.4658 53.1791 32.8171 54.4419 33.4496 55.4942C34.082 56.5466 34.9253 57.3183 35.9091 57.9497C36.8929 58.5811 38.0173 59.0021 39.3525 59.2827C40.6174 59.5633 41.9526 59.7037 43.2877 59.7037C44.6229 59.7037 45.8878 59.5633 47.1527 59.3529C48.4176 59.0722 49.542 58.6513 50.5258 58.0199C51.5096 57.3885 52.2826 56.5466 52.9151 55.5644C53.5475 54.512 53.8286 53.2492 53.8286 51.7759C53.8286 50.7236 53.6178 49.8115 53.1961 49.1099C52.915 48.1277 52.3529 47.5665 51.6501 47.0754Z" />
<path d="M75.9646 39.0074C75.1213 37.8848 73.997 36.9728 72.7321 36.2712C71.3969 35.5697 69.8509 35.2189 68.0238 35.2189C66.6184 35.2189 65.2832 35.4995 64.0886 36.0608C62.8939 36.622 61.9101 37.5341 61.1371 38.7969H61.0669V35.8503H55.0234V67H61.348V56.1257H61.4182C62.1912 57.2482 63.175 58.0901 64.3697 58.7215C65.5643 59.2827 66.8995 59.5634 68.3049 59.5634C69.9915 59.5634 71.4672 59.2126 72.7321 58.5812C73.997 57.9498 75.0511 57.0377 75.8943 55.9152C76.7376 54.7927 77.3701 53.5299 77.7917 52.1267C78.2133 50.7236 78.4242 49.1801 78.4242 47.6367C78.4242 46.0231 78.2133 44.4094 77.7917 42.9361C77.4403 41.4629 76.8079 40.1299 75.9646 39.0074ZM71.8888 50.2325C71.678 51.1445 71.3969 51.9163 70.9753 52.5477C70.5536 53.2492 69.9915 53.7403 69.2887 54.1613C68.586 54.5822 67.7427 54.7927 66.6887 54.7927C65.7048 54.7927 64.7913 54.5822 64.0886 54.1613C63.3859 53.7403 62.8237 53.1791 62.3318 52.5477C61.9101 51.8461 61.5588 51.0744 61.4182 50.2325C61.2074 49.3204 61.1371 48.4084 61.1371 47.4964C61.1371 46.5142 61.2074 45.6021 61.4182 44.7602C61.629 43.8482 61.9101 43.0765 62.3318 42.3749C62.7534 41.6733 63.3156 41.1121 64.0183 40.6911C64.721 40.2702 65.5643 40.0597 66.6184 40.0597C67.6022 40.0597 68.5157 40.2702 69.2185 40.6911C69.9212 41.1121 70.4834 41.6733 70.9753 42.3749C71.3969 43.0765 71.7483 43.8482 71.9591 44.7602C72.1699 45.6723 72.2402 46.5843 72.2402 47.4964C72.1699 48.4084 72.0294 49.3204 71.8888 50.2325Z" />
<path d="M99.0137 39.4984C98.1002 38.2356 96.9056 37.1832 95.4298 36.4115C93.9541 35.6398 92.2676 35.289 90.2999 35.289C88.5431 35.289 86.9269 35.5696 85.5214 36.201C84.0457 36.8325 82.8511 37.6743 81.797 38.7969C80.7429 39.8492 79.9699 41.1822 79.4077 42.6555C78.8455 44.1288 78.5645 45.7424 78.5645 47.4963C78.5645 49.2503 78.8455 50.934 79.4077 52.4073C79.9699 53.8806 80.7429 55.1435 81.7267 56.266C82.7105 57.3183 83.9754 58.1602 85.4511 58.7215C86.9269 59.2827 88.5431 59.5634 90.3702 59.5634C92.9703 59.5634 95.219 59.0021 97.0461 57.8094C98.8732 56.6168 100.279 54.6524 101.192 51.8461H95.5704C95.3596 52.5476 94.7974 53.2492 93.8838 53.8806C92.9703 54.512 91.8459 54.8628 90.581 54.8628C88.8242 54.8628 87.4188 54.3717 86.435 53.4597C85.4511 52.5476 84.9592 51.0743 84.889 48.9696H101.544C101.684 47.2157 101.544 45.4618 101.122 43.8482C100.63 42.2346 99.9975 40.7613 99.0137 39.4984ZM84.8187 44.9707C84.8187 44.5497 84.9592 43.9885 85.0998 43.4272C85.2403 42.866 85.5214 42.3047 85.9431 41.8136C86.3647 41.3225 86.8566 40.9016 87.5593 40.5508C88.262 40.2 89.1053 40.0597 90.0891 40.0597C91.6351 40.0597 92.7595 40.4806 93.5325 41.3225C94.3055 42.1644 94.7974 43.3571 95.1487 44.9707H84.8187Z" />
<path d="M127.263 29.6765V35.9204H123.398V40.1299C122.765 39.0775 121.992 38.1655 121.009 37.4639C120.025 36.7623 118.9 36.2011 117.636 35.8503C116.371 35.4995 115.035 35.289 113.7 35.289C111.803 35.289 110.187 35.5696 108.711 36.2011C107.235 36.8325 106.041 37.6744 104.987 38.7969C104.003 39.9194 103.23 41.2524 102.668 42.7958C102.176 44.3393 101.895 45.9529 101.895 47.777C101.895 49.5309 102.176 51.0744 102.738 52.5477C103.3 54.021 104.073 55.2136 105.127 56.266C106.111 57.3183 107.376 58.0901 108.781 58.7215C110.257 59.2827 111.803 59.5634 113.56 59.5634C116.652 59.5634 119.182 58.7916 121.149 57.178C123.117 55.5644 124.311 53.2492 124.733 50.1623H118.619C118.409 51.5655 117.917 52.7581 117.073 53.6C116.23 54.4419 115.106 54.8628 113.56 54.8628C112.576 54.8628 111.733 54.6524 111.03 54.1613C110.327 53.7403 109.765 53.1089 109.414 52.4073C108.992 51.7058 108.711 50.934 108.57 50.0922C108.36 49.2503 108.289 48.4084 108.289 47.5665C108.289 46.7246 108.36 45.8126 108.57 44.9707C108.781 44.0587 109.062 43.2869 109.484 42.5854C109.906 41.8838 110.468 41.2524 111.17 40.8314C111.873 40.3403 112.716 40.1299 113.7 40.1299C116.441 40.1299 117.987 41.4628 118.409 44.1288H124.593C124.522 42.6555 124.171 41.3225 123.538 40.2702H127.333V53.8806C127.333 55.0733 127.544 55.9854 127.895 56.6869C128.317 57.3885 128.809 57.9498 129.512 58.3707C130.214 58.7916 130.987 59.0021 131.831 59.1424C132.744 59.2827 133.658 59.3529 134.641 59.3529C135.274 59.3529 135.906 59.3529 136.539 59.2827C137.171 59.2827 137.804 59.2126 138.296 59.0723V54.1613C138.015 54.2314 137.663 54.2314 137.382 54.3016C137.031 54.3016 136.679 54.3717 136.328 54.3717C135.274 54.3717 134.571 54.1613 134.15 53.8105C133.798 53.4597 133.587 52.7581 133.587 51.6356V40.1299H138.225V35.9204H133.587V33.8859" />
</g>
</g>
<g opacity="0.8">
<path d="M7.46875 84.0469H2.35938V81.2031H7.17969V79.3906H2.35938V76.6719H7.46875V74.7266H0V86H7.46875V84.0469Z" />
<path d="M8.65656 86H10.9378V80.9453C10.9378 80.0078 11.5238 79.3516 12.3909 79.3516C13.2347 79.3516 13.7425 79.8828 13.7425 80.7812V86H15.9378V80.9141C15.9378 79.9844 16.5081 79.3516 17.3753 79.3516C18.2581 79.3516 18.7425 79.8828 18.7425 80.8516V86H21.0238V80.2812C21.0238 78.5938 19.9222 77.4688 18.2816 77.4688C17.055 77.4688 16.055 78.1328 15.68 79.1875H15.6331C15.3519 78.0938 14.5081 77.4688 13.2972 77.4688C12.1566 77.4688 11.2581 78.1328 10.9066 79.1406H10.8597V77.625H8.65656V86Z" />
<path d="M25.3834 84.4844C24.61 84.4844 24.0944 84.0938 24.0944 83.4688C24.0944 82.875 24.5788 82.4922 25.4303 82.4297L27.1959 82.3203V82.9297C27.1959 83.8359 26.3756 84.4844 25.3834 84.4844ZM24.6334 86.1328C25.6803 86.1328 26.7194 85.6094 27.1881 84.7188H27.235V86H29.4381V80.2422C29.4381 78.5547 28.0397 77.4453 25.8913 77.4453C23.6725 77.4453 22.2897 78.5625 22.2038 80.1875H24.2897C24.3991 79.5703 24.9381 79.1484 25.7897 79.1484C26.6491 79.1484 27.1959 79.6016 27.1959 80.3828V80.9375L25.0866 81.0625C23.0006 81.1875 21.8288 82.0703 21.8288 83.5938C21.8288 85.1016 23.0397 86.1328 24.6334 86.1328Z" />
<path d="M30.6338 86H32.915V77.625H30.6338V86ZM31.7666 76.4922C32.4306 76.4922 32.9541 75.9609 32.9541 75.3203C32.9541 74.6719 32.4306 74.1484 31.7666 74.1484C31.1025 74.1484 30.5791 74.6719 30.5791 75.3203C30.5791 75.9609 31.1025 76.4922 31.7666 76.4922Z" />
<path d="M34.1731 86H36.4544V74.7266H34.1731V86Z" />
<path d="M40.5253 86H42.8066V81.3203C42.8066 80.1406 43.4628 79.4531 44.5878 79.4531C44.9159 79.4531 45.2284 79.5078 45.4159 79.5859V77.5781C45.2597 77.5312 45.0331 77.4922 44.7675 77.4922C43.7831 77.4922 43.0722 78.0703 42.7753 79.1328H42.7284V77.625H40.5253V86Z" />
<path d="M49.51 79.1328C50.5256 79.1328 51.2209 79.8672 51.2678 80.9375H47.7131C47.7912 79.8906 48.51 79.1328 49.51 79.1328ZM51.2991 83.4375C51.0881 84.0781 50.4475 84.4922 49.6116 84.4922C48.4475 84.4922 47.6897 83.6719 47.6897 82.4766V82.3359H53.4631V81.6406C53.4631 79.0938 51.9241 77.4453 49.4866 77.4453C47.01 77.4453 45.4475 79.1797 45.4475 81.8516C45.4475 84.5312 46.9944 86.1797 49.5725 86.1797C51.6428 86.1797 53.1428 85.0781 53.3928 83.4375H51.2991Z" />
<path d="M57.4322 86.1328C58.6666 86.1328 59.6353 85.4844 60.0416 84.5625H60.0806V86H62.3306V74.7266H60.0494V79.0625H60.0025C59.5962 78.1328 58.6587 77.4922 57.4478 77.4922C55.3462 77.4922 54.0181 79.1406 54.0181 81.7969C54.0181 84.4766 55.3384 86.1328 57.4322 86.1328ZM58.2056 79.3203C59.3384 79.3203 60.065 80.2891 60.065 81.8125C60.065 83.3438 59.3384 84.2969 58.2056 84.2969C57.0572 84.2969 56.3541 83.3516 56.3541 81.8125C56.3541 80.2812 57.0572 79.3203 58.2056 79.3203Z" />
<path d="M67.2919 79.1328C68.3075 79.1328 69.0028 79.8672 69.0497 80.9375H65.495C65.5731 79.8906 66.2919 79.1328 67.2919 79.1328ZM69.0809 83.4375C68.87 84.0781 68.2294 84.4922 67.3934 84.4922C66.2294 84.4922 65.4716 83.6719 65.4716 82.4766V82.3359H71.245V81.6406C71.245 79.0938 69.7059 77.4453 67.2684 77.4453C64.7919 77.4453 63.2294 79.1797 63.2294 81.8516C63.2294 84.5312 64.7762 86.1797 67.3544 86.1797C69.4247 86.1797 70.9247 85.0781 71.1747 83.4375H69.0809Z" />
<path d="M71.9641 80.0859C71.9641 81.3438 72.7844 82.1562 74.4016 82.5L75.8313 82.7969C76.6516 82.9844 76.9406 83.2344 76.9406 83.6797C76.9406 84.2266 76.4094 84.5781 75.55 84.5781C74.6438 84.5781 74.1203 84.1875 73.9797 83.4531H71.7531C71.9016 85.1016 73.2375 86.1797 75.55 86.1797C77.7063 86.1797 79.2141 85.0938 79.2141 83.4453C79.2141 82.2188 78.4953 81.5312 76.7453 81.1641L75.3156 80.8594C74.4719 80.6797 74.1594 80.3906 74.1594 79.9609C74.1594 79.4062 74.6828 79.0469 75.4719 79.0469C76.3156 79.0469 76.8234 79.5078 76.8938 80.1875H78.9953C78.9484 78.5469 77.6203 77.4453 75.4719 77.4453C73.3391 77.4453 71.9641 78.4922 71.9641 80.0859Z" />
<path d="M80.0581 86H82.3394V77.625H80.0581V86ZM81.1909 76.4922C81.855 76.4922 82.3784 75.9609 82.3784 75.3203C82.3784 74.6719 81.855 74.1484 81.1909 74.1484C80.5269 74.1484 80.0034 74.6719 80.0034 75.3203C80.0034 75.9609 80.5269 76.4922 81.1909 76.4922Z" />
<path d="M87.41 84.2188C86.2772 84.2188 85.5741 83.3281 85.5741 81.7969C85.5741 80.2734 86.285 79.3203 87.41 79.3203C88.5506 79.3203 89.2772 80.2891 89.2772 81.7969C89.2772 83.3125 88.5506 84.2188 87.41 84.2188ZM87.3709 89.1562C89.8788 89.1562 91.5506 87.8828 91.5506 85.8828V77.625H89.3006V79.0859H89.2616C88.8241 78.125 87.8788 77.4922 86.6756 77.4922C84.5506 77.4922 83.2381 79.125 83.2381 81.7812C83.2381 84.3984 84.5897 85.9766 86.6366 85.9766C87.8475 85.9766 88.8319 85.3672 89.2225 84.4766H89.2694V85.9453C89.2694 86.9141 88.6131 87.5703 87.4334 87.5703C86.5663 87.5703 85.91 87.1719 85.7303 86.5938H83.4959C83.6756 88.0859 85.1678 89.1562 87.3709 89.1562Z" />
<path d="M92.7228 86H95.0041V81.1953C95.0041 80.1094 95.6525 79.3594 96.6759 79.3594C97.6994 79.3594 98.215 79.9844 98.215 81.0781V86H100.496V80.6016C100.496 78.6406 99.4494 77.4688 97.59 77.4688C96.3009 77.4688 95.4181 78.0781 94.9728 79.1172H94.9259V77.625H92.7228V86Z" />
</g>
</svg>
