<svg xmlns="http://www.w3.org/2000/svg" x="0px" y="0px" viewBox="0 0 81.4 51.4">
  <path d="M76.2.9h-1.1V.5h2.6v.4h-1.1v2.8h-.4zm1.9-.4h.6l1 2.7 1-2.7h.6v3.2h-.4V1.1l-1 2.6h-.4l-1-2.6v2.6h-.4zM40.3.5H.1v9.1H15v41.8h10.8V9.6h14.8V.5zm8.9 3.2c-3.1 2.4-4.9 6.2-5.5 11.6v1.1H54v-1.1c.3-2.2.9-3.9 1.9-4.9 1.1-1.1 2.7-1.7 4.6-1.7 2 0 3.5.6 4.6 1.7s1.7 2.7 1.7 4.8c0 1.9-.7 3.8-1.9 5.8-1 1.4-3.6 4.2-8 8.2-5.5 5-9.2 9.1-11 12.1-1.8 3.1-3 6.3-3.3 9.8v.3H77v-9.5H58c.5-.7 1-1.5 1.6-2.2.8-.9 2.7-2.7 5.8-5.6 3.1-2.8 5.2-5 6.4-6.5 1.8-2.2 3.1-4.5 3.9-6.5.8-2.1 1.2-4.3 1.2-6.6 0-4.1-1.5-7.5-4.3-10.2C69.7 1.6 65.7.2 60.7.2c-4.6 0-8.5 1.2-11.5 3.5" class="st0"/>
</svg>
