<svg xmlns="http://www.w3.org/2000/svg" x="0px" y="0px" viewBox="0 0 466.6 142.1">
  <path d="M466.1 88c0 29.9-24.2 54.1-54.1 54.1H54.2C24.3 142.1.1 117.9.1 88V54.6C.1 24.7 24.3.5 54.2.5H412c29.9 0 54.1 24.2 54.1 54.1V88zm-11.6-32.8c0-23.2-18.8-42.1-42.1-42.1H54.8c-23.2 0-42.1 18.8-42.1 42.1v33.2c0 23.2 18.8 42.1 42.1 42.1h357.6c23.2 0 42.1-18.8 42.1-42.1V55.2z" class="st0"/>
  <path d="M281.5 101.5c-.6 0-1-.4-1-1V97h-.1c-2.3 3.3-6.7 5.5-13.4 5.5-8.7 0-16-4.5-16-14.5 0-10.4 7.3-15.1 19-15.1h9.7c.4 0 .6-.2.6-.6V70c0-5.4-2.6-7.9-10.6-7.9-5.3 0-8.6 1.5-10.8 3.3-.5.4-1.1.3-1.4-.2l-3.6-6.5c-.3-.5-.2-1 .2-1.3 3.8-2.8 9.1-4.6 16.9-4.6 14.5 0 19.8 4.9 19.8 16.6v31.1c0 .6-.4 1-1 1h-8.3zm-1.2-16v-3.6c0-.4-.2-.6-.6-.6h-7.9c-7.1 0-10.3 2-10.3 6.4 0 3.9 2.9 5.9 8.2 5.9 6.8 0 10.6-2.7 10.6-8.1zm32.6 11.4l-.1 3.5c0 .6-.4 1-1 1h-9.1c-.6 0-1-.4-1-1V40.3c0-.6.4-1 1-1h9.1c.6 0 1 .4 1 1v18.2h.1c2.3-3.3 6.2-5.6 12.6-5.6 8.1 0 14 3.8 16.5 11.4 1.2 3.6 1.7 7 1.7 13.4s-.5 9.8-1.7 13.4c-2.5 7.6-8.4 11.4-16.5 11.4-6.4 0-10.3-2.3-12.6-5.6zm18.6-10.3c.7-2.2 1-4.5 1-8.9 0-4.3-.3-6.7-1-8.9-1.3-3.9-4.3-6.1-8.8-6.1s-7.6 2.2-8.9 6.1c-.7 2.2-1 4.5-1 8.9 0 4.3.3 6.7 1 8.9 1.3 3.9 4.3 6.1 8.9 6.1 4.4 0 7.5-2.2 8.8-6.1zm33.9 15.4c-9.3 0-13-4.4-13-13.6V40.3c0-.6.4-1 1-1h9.1c.6 0 1 .4 1 1v47.5c0 3.3 1.3 4.3 4.1 4.3h2.2c.6 0 1 .4 1 1v7.9c0 .6-.4 1-1 1h-4.4zm12-12.7c-1-3.1-1.7-6.7-1.7-11.6s.6-8.7 1.6-11.7c2.7-8.3 10-13.1 19.4-13.1 9.8 0 16.9 5 19.5 13.1 1.1 3.4 1.6 6.6 1.6 14.3 0 .6-.4 1-1.1 1h-29.3c-.4 0-.6.2-.6.6 0 1.4.3 2.6.7 3.6 1.6 4.6 5.3 7.2 10.7 7.2 5.3 0 8.8-2 11.1-4.5.5-.5 1-.6 1.5-.2l5.8 5.1c.5.4.5.9.1 1.4-4 4.7-10.7 8.1-19.5 8.1-10-.1-17.1-5-19.8-13.3zm28.7-21c-1.3-3.8-4.8-6.1-9.3-6.1s-8.1 2.3-9.4 6.1c-.4 1.2-.6 2.4-.6 4 0 .4.2.6.6.6h18.7c.4 0 .6-.2.6-.6 0-1.6-.2-2.8-.6-4zm-358.2-28c0-.6.4-1 1-1H58c.6 0 1 .4 1 1v13c0 .4.2.6.6.6h6.3c.6 0 1 .4 1 1v6.6c0 .6-.4 1-1 1h-6.3c-.4 0-.6.2-.6.6v24.7c0 3.4 1.4 4.4 4.4 4.4h2.5c.6 0 1 .4 1 1v7.9c0 .6-.4 1-1 1h-4.8c-9.6 0-13.2-4.6-13.2-13.9V40.3zm27.1 49c-1-3.1-1.7-6.7-1.7-11.6s.6-8.7 1.6-11.7c2.7-8.3 10-13.1 19.4-13.1 9.8 0 16.9 5 19.5 13.1 1.1 3.4 1.6 6.6 1.6 14.3 0 .6-.4 1-1.1 1H85.1c-.4 0-.6.2-.6.6 0 1.4.3 2.6.7 3.6 1.6 4.6 5.3 7.2 10.6 7.2s8.8-2 11.1-4.5c.5-.5 1-.6 1.5-.2l5.8 5.1c.5.4.5.9.1 1.4-4 4.7-10.8 8.1-19.5 8.1-10-.1-17.1-5-19.8-13.3zm28.7-21c-1.3-3.8-4.8-6.1-9.3-6.1s-8.1 2.3-9.4 6.1c-.4 1.2-.6 2.4-.6 4 0 .4.2.6.6.6h18.6c.4 0 .6-.2.6-.6.1-1.6-.1-2.8-.5-4zm49 33.2c-.6 0-1-.4-1-1V97h-.1c-2.3 3.3-6.7 5.5-13.4 5.5-8.7 0-16-4.5-16-14.5 0-10.4 7.3-15.1 19-15.1h9.7c.4 0 .6-.2.6-.6V70c0-5.4-2.6-7.9-10.6-7.9-5.3 0-8.6 1.5-10.8 3.3-.5.4-1.1.3-1.4-.2l-3.6-6.5c-.3-.5-.2-1 .2-1.3 3.8-2.8 9.1-4.6 16.9-4.6 14.5 0 19.8 4.9 19.8 16.6v31.1c0 .6-.4 1-1 1h-8.3zm-1.2-16v-3.6c0-.4-.2-.6-.6-.6H143c-7.1 0-10.3 2-10.3 6.4 0 3.9 2.9 5.9 8.2 5.9 6.8 0 10.6-2.7 10.6-8.1zm80.6 16c-.6 0-1-.4-1-1V73.1c0-6.1-3.1-10.4-9-10.4-5.7 0-9.1 4.2-9.1 10.4v27.4c0 .6-.4 1-1 1h-8.9c-.6 0-1-.4-1-1V73.1c0-6.1-3.1-10.4-9-10.4-5.7 0-9.1 4.2-9.1 10.4v27.4c0 .6-.4 1-1 1h-9.1c-.6 0-1-.4-1-1V54.9c0-.6.4-1 1-1h9.1c.6 0 1 .4 1 1v3.5h.1c2.1-3 6.2-5.5 12.5-5.5 5.6 0 10.2 2.3 13 6.3h.1c3.6-3.9 8.4-6.3 15.2-6.3 11 0 17.3 7.5 17.3 17.7v30c0 .6-.4 1-1 1h-9.1v-.1z" class="st0"/>
</svg>
