<svg xmlns="http://www.w3.org/2000/svg" viewBox="0 0 165 22">
  <path d="M8.3 14.1l-.8-3.4H3.8l.9 3.4h3.6zm1.3 0l.9-3.4h3.3l-.9 3.4H9.6zm2.4 3.4l-1.1 4.1H6.5l-1-4.1H12zm8-3.4l-.9-3.4h-3.3l.9 3.4H20zm1.4 0l.8-3.4h3.7l-.9 3.4h-3.6zm2.8 3.4l-1 4.1h-4.4l-1.1-4.1h6.5zM6.7 7.2l-.9-3.9h2.5v-3H0v3h2l1 3.9h3.7zm4.7 0L13.2.3h3.2l1.8 6.9H15c-.1-.3-.1-.6-.1-1h-.1s0 .4-.1 1h-3.3zm11.6 0l.9-3.9h-2.5v-3h8.3v3h-2l-1 3.9H23zm8.1 14.4v-2.9h2.6V3.3h-2.5v-3h9.1v3h-2.6v15.4h2.6v2.9h-9.2zm11.6 0v-2.9h2.6V3.3h-2.5v-3h8.5v3h-2v5.8h2.4l4.1-5.8H54v-3h7.8v3h-1.9l-5.1 7.1s.7.3 1.4 1.6l3.3 5.9c.3.5.7.7 1.4.7h1v2.9h-2.7c-1.8 0-2.4-.5-3-1.6l-3.7-7c-.3-.6-.8-.8-1.6-.8h-1.4v6.4H52v2.9l-9.3.2zm20.9 0v-2.9h2.6V3.3h-2.5v-3h9.1v3h-2.6v15.4h2.6v2.9h-9.2zm11.6 0v-2.9h2.6V3.3h-2.6v-3h10.2c1.3 0 2.6.1 3.6.5 2.3 1 3.8 3.3 3.8 6.3s-1.6 5.6-4.1 6.5c-1 .3-2.1.4-3.3.4h-3.8v4.6h2.6v2.9h-9v.1zm6.5-10.7H85c.9 0 1.6-.1 2.2-.4 1.1-.6 1.7-1.8 1.7-3.3 0-1.5-.6-2.6-1.6-3.2-.6-.3-1.3-.5-2.3-.5h-3.3v7.4zm12.9 10.7v-2.9h2.6V3.3h-2.6v-3h9.4c1.6 0 2.8.1 4.1.4 2.4.8 3.9 2.7 3.9 5.7s-1.6 5.1-4 5.9c0 .1.6.4 1.1 1.2l2.5 4.4c.3.5.7.7 1.4.7h.7v2.9h-2.5c-1.8 0-2.3-.4-3-1.6l-3-5.5c-.4-.8-.8-1.1-2.1-1.1h-1.9v5.2h2.5v2.9h-9.1v.2zm6.5-11.3h3.5c2.1 0 3.4-1.2 3.4-3.5 0-1.4-.5-2.5-1.7-2.9-.6-.3-1.4-.4-2.4-.4H101v6.8h.1zm14.4 11.3v-2.9h2.6V3.3h-2.6v-3h9.1v3H122v15.4h2.6v2.9h-9.1zm11.2-10.7c0-6.3 4.8-10.9 11-10.9 2.6 0 8.3.9 8.3 4.3v2.9h-3.6V5.5c0-1.6-2.8-2.1-4.6-2.1-4.1 0-7.1 2.9-7.1 7.4 0 4.8 3.1 7.9 7.3 7.9 1.3 0 4.6-.4 4.6-2.1V15h3.6v2.9c0 3.2-5.5 4.2-8.4 4.2-6.4-.1-11.1-5-11.1-11.2zm22 10.7v-2.9h2.6V3.3h-2.6v-3h15.8v5.5h-3.4V3.5h-6v5.8h7v3.1h-7v6h6.4V16h3.4v5.5l-16.2.1z"/>
</svg>
