<svg xmlns="http://www.w3.org/2000/svg" x="0px" y="0px" viewBox="0 0 583.6 118.9">
  <path d="M159.4 97.4h96.3V118h-96.3zm96.8-96h-94.7V22h57.3l-36.3 54.7h29.6l44.1-68.9zM97 118V97.4H69.7L56.3 118zm.5-116.6H2.8V22h57.4L.8 111.7v6.3h26.4l39.1-61.4L97.5 7.8zM135.9 118h-23.5V1.4h23.5V118zm240.9 0V97.4h-27.6L336.1 118zm.4-116.6h-94.6V22h57.2l-59.4 89.7v6.3h26.4l39.3-61.4 31.1-48.8zm108.9 96h96.3V118h-96.3zm96.7-96h-94.7V22h57.3l-36.3 54.7h29.7l44-68.9zM415.6 118h-23.5V1.4h23.5V118zm46.8 0h-23.5V1.4h23.5V118z" class="st0"/>
  <path d="M402.6 49.4h48.2V70h-48.2z" class="st0"/>
</svg>
