<?xml version="1.0" standalone="no"?>
<!DOCTYPE svg PUBLIC "-//W3C//DTD SVG 20010904//EN"
 "http://www.w3.org/TR/2001/REC-SVG-20010904/DTD/svg10.dtd">
<svg version="1.0" xmlns="http://www.w3.org/2000/svg"
 width="512.000000pt" height="512.000000pt" viewBox="0 0 512.000000 512.000000"
 preserveAspectRatio="xMidYMid meet">
<metadata>
Created by potrace 1.11, written by Peter Selinger 2001-2013
</metadata>
<g transform="translate(0.000000,512.000000) scale(0.100000,-0.100000)"
fill="#000000" stroke="none">
<path d="M75 5110 c-11 -4 -31 -20 -45 -35 l-25 -27 0 -2489 0 -2489 33 -32
32 -33 2490 0 2490 0 32 33 33 32 3 735 2 735 -62 0 c-75 0 -242 24 -318 46
-30 8 -95 31 -143 50 l-88 35 -50 -40 c-73 -58 -145 -83 -262 -89 -155 -8
-246 19 -333 100 -41 38 -104 144 -104 176 0 9 -37 -21 -82 -65 -156 -152
-263 -201 -453 -210 -177 -8 -312 35 -409 133 -130 130 -164 360 -81 543 88
192 296 307 808 446 l192 52 3 169 c5 325 -44 438 -209 480 -46 12 -91 15
-162 12 -53 -3 -99 -7 -102 -10 -3 -2 -11 -76 -20 -164 -18 -186 -33 -247 -78
-306 -45 -60 -104 -88 -188 -88 -95 0 -161 35 -202 108 -29 52 -29 54 -17 115
18 92 55 161 128 239 55 58 82 77 166 118 126 60 231 87 408 102 106 9 164 9
253 0 309 -33 458 -149 527 -415 20 -78 21 -111 27 -682 5 -455 9 -605 19
-622 29 -52 100 -70 141 -35 20 16 22 33 34 222 l12 205 106 3 c80 2 108 -1
111 -10 2 -7 27 -109 54 -226 l49 -213 65 -20 c36 -12 108 -23 163 -26 l97 -6
0 306 0 306 -87 26 c-221 65 -318 113 -417 205 -106 100 -156 221 -156 380 0
155 46 273 149 383 106 112 253 183 432 210 l79 11 -2 778 -3 778 -33 32 -32
33 -2478 2 c-1362 1 -2486 -2 -2497 -7z m2795 -1048 l0 -58 -147 -12 c-81 -7
-149 -15 -152 -18 -3 -3 -9 -400 -12 -882 -6 -835 -10 -961 -40 -1162 -42
-295 -171 -582 -333 -744 -258 -258 -709 -316 -926 -120 -61 55 -83 98 -75
141 21 114 116 196 242 209 127 13 213 -37 345 -203 49 -62 94 -113 99 -113
13 0 66 118 82 185 41 159 42 197 39 920 -1 385 -6 941 -10 1235 l-7 535 -167
14 -168 14 0 59 0 58 615 0 615 0 0 -58z"/>
<path d="M5040 3324 c-60 -34 -88 -61 -112 -108 -25 -49 -34 -138 -19 -192 18
-67 105 -153 186 -184 l25 -10 0 260 c0 295 4 282 -80 234z"/>
<path d="M3609 2587 c-272 -92 -409 -259 -413 -502 -2 -128 16 -187 73 -245
54 -56 105 -74 196 -68 72 4 129 31 210 96 l60 48 3 352 c2 331 1 352 -15 352
-10 0 -61 -15 -114 -33z"/>
</g>
</svg>
