<?xml version="1.0" encoding="utf-8"?>
<!-- Generator: Adobe Illustrator 22.0.1, SVG Export Plug-In . SVG Version: 6.00 Build 0)  -->
<svg version="1.1" id="Layer_1" xmlns="http://www.w3.org/2000/svg" xmlns:xlink="http://www.w3.org/1999/xlink" x="0px" y="0px"
	 viewBox="0 0 815 300" style="enable-background:new 0 0 815 300;" xml:space="preserve">
<style type="text/css">
	.st0{opacity:0.1;}
	.st1{opacity:0.1;enable-background:new    ;}
	.st2{fill:none;stroke:#00BCDB;stroke-width:0.4;stroke-miterlimit:10;stroke-dasharray:1;}
	.st3{fill:none;stroke:#00BCDB;stroke-width:0.4;stroke-miterlimit:10;}
	.st4{fill:none;stroke:#00BCDB;stroke-width:0.1;stroke-miterlimit:10;}
	.st5{fill:none;stroke:#27CCF2;stroke-width:0.1;stroke-miterlimit:10;}
	.st6{fill:#27CCF2;}
	.st7{font-family:'HelveticaNeue';}
	.st8{font-size:3.6386px;}
	.st9{fill:#3CC84B;}
</style>
<g>
	<g class="st0">
		<path d="M356.5,202.7L356.5,202.7l-0.1,2c0,0.3-0.2,0.6-0.6,0.6h-5.2c-0.3,0-0.6-0.2-0.6-0.6v-32.8c0-0.3,0.2-0.6,0.6-0.6h5.2
			c0.3,0,0.6,0.2,0.6,0.6v8.7h0.1c1.3-1.9,3.6-3.2,7.3-3.2c4.7,0,8.1,2.2,9.5,6.6c0.7,2.1,1,4,1,7.7s-0.3,5.6-1,7.7
			c-1.4,4.4-4.8,6.6-9.5,6.6C360.1,205.9,357.8,204.6,356.5,202.7z M367.2,196.8c0.4-1.2,0.6-2.6,0.6-5.1s-0.2-3.9-0.6-5.1
			c-0.7-2.3-2.5-3.5-5-3.5c-2.6,0-4.4,1.2-5.1,3.5c-0.4,1.2-0.6,2.6-0.6,5.1s0.2,3.9,0.6,5.1c0.7,2.3,2.5,3.5,5.1,3.5
			C364.7,200.3,366.4,199,367.2,196.8z"/>
		<path d="M380.1,205.3c-0.3,0-0.6-0.2-0.6-0.6v-26.2c0-0.3,0.2-0.6,0.6-0.6h5.2c0.3,0,0.6,0.2,0.6,0.6v26.2c0,0.3-0.2,0.6-0.6,0.6
			H380.1z"/>
		<path d="M391.2,201.6c-0.2-0.2-0.2-0.6,0-0.8l3.2-3.4c0.2-0.2,0.6-0.2,0.8,0c2,1.8,5.2,3.1,8,3.1c3.3,0,5-1.4,5-3.2
			c0-1.6-1-2.7-4.5-3l-2.9-0.3c-5.6-0.6-8.4-3.4-8.4-8.1c0-5.3,3.8-8.6,10.6-8.6c4.3,0,7.8,1.4,10.3,3.3c0.3,0.2,0.3,0.6,0.1,0.8
			l-2.8,3.3c-0.2,0.3-0.5,0.3-0.8,0.1c-1.7-1.2-4.4-2.3-7.1-2.3s-4.1,1.2-4.1,2.8s1,2.6,4.5,2.9l2.9,0.3c5.7,0.6,8.5,3.5,8.5,8
			c0,5.4-4,9.2-11.5,9.2C397.3,205.9,393.4,203.7,391.2,201.6z"/>
		<path d="M419,198.4c-0.6-1.7-0.9-3.9-0.9-6.7c0-2.9,0.3-5,0.9-6.7c1.6-4.9,5.8-7.5,11.3-7.5c4.1,0,7.3,1.6,9.5,4.3
			c0.2,0.2,0.2,0.6-0.1,0.8l-3.6,2.9c-0.3,0.2-0.6,0.2-0.8-0.1c-1.4-1.5-2.8-2.4-5-2.4c-2.4,0-4.3,1.2-5.1,3.6
			c-0.5,1.4-0.6,2.9-0.6,5s0.1,3.7,0.6,5.1c0.8,2.3,2.7,3.5,5.1,3.5c2.3,0,3.7-0.8,5-2.4c0.2-0.3,0.5-0.3,0.8-0.1l3.6,3.1
			c0.3,0.2,0.2,0.5,0.1,0.8c-2.2,2.6-5.4,4.2-9.5,4.2C424.8,205.9,420.6,203.3,419,198.4z"/>
		<path d="M461.9,205.3c-0.3,0-0.6-0.2-0.6-0.6v-2h-0.1c-1.5,1.9-3.6,3.2-7.1,3.2c-5.8,0-9.4-4.3-9.4-10.2v-17.2
			c0-0.3,0.2-0.6,0.6-0.6h5.2c0.3,0,0.6,0.2,0.6,0.6v15.8c0,3.5,1.6,6,5.1,6c3.2,0,5.1-2.4,5.1-5.9v-15.8c0-0.3,0.2-0.6,0.6-0.6h5.2
			c0.3,0,0.6,0.2,0.6,0.6v26.2c0,0.3-0.2,0.6-0.6,0.6h-5.2V205.3z"/>
		<path d="M475.2,205.3c-0.3,0-0.6-0.2-0.6-0.6v-26.2c0-0.3,0.2-0.6,0.6-0.6h5.2c0.3,0,0.6,0.2,0.6,0.6v26.2c0,0.3-0.2,0.6-0.6,0.6
			H475.2z"/>
		<path d="M495.8,205.7c-5.5,0-7.6-2.7-7.6-8v-14.4c0-0.2-0.1-0.3-0.3-0.3h-1.8c-0.3,0-0.6-0.2-0.6-0.6v-3.8c0-0.3,0.2-0.6,0.6-0.6
			h1.8c0.2,0,0.3-0.1,0.3-0.3V172c0-0.3,0.2-0.6,0.6-0.6h5.2c0.3,0,0.6,0.2,0.6,0.6v5.7c0,0.2,0.1,0.3,0.3,0.3h3.6
			c0.3,0,0.6,0.2,0.6,0.6v3.8c0,0.3-0.2,0.6-0.6,0.6h-3.6c-0.2,0-0.3,0.1-0.3,0.3v14.2c0,1.9,0.8,2.6,2.6,2.6h1.4
			c0.3,0,0.6,0.2,0.6,0.6v4.5c0,0.3-0.2,0.6-0.6,0.6h-2.8V205.7z"/>
	</g>
	<path class="st1" d="M451.3,110.5l0.1-0.1l-16.3-16.3c-0.2-0.2-0.6-0.2-0.8,0l-43.1,43.1c-0.2,0.2-0.2,0.6,0,0.8l26.6,26.6
		c0.2,0.2,0.6,0.2,0.8,0l32.6-32.6C445.3,125.9,445.4,116.4,451.3,110.5z"/>
	<line class="st2" x1="281.9" y1="178" x2="567.4" y2="178"/>
	<line class="st2" x1="281.9" y1="171.4" x2="567.4" y2="171.4"/>
	<line class="st2" x1="281.9" y1="164.7" x2="567.4" y2="164.7"/>
	<line class="st2" x1="281.9" y1="191.8" x2="567.4" y2="191.8"/>
	<line class="st2" x1="281.9" y1="185.1" x2="567.3" y2="185.1"/>
	<line class="st2" x1="281.9" y1="198.6" x2="567.4" y2="198.6"/>
	<line class="st2" x1="281.9" y1="205.3" x2="567.4" y2="205.3"/>
	<line class="st3" x1="391" y1="26.4" x2="391" y2="273.7"/>
	<line class="st3" x1="350.1" y1="26.4" x2="350.1" y2="273.7"/>
	<line class="st3" x1="499.1" y1="26.4" x2="499.1" y2="273.7"/>
	<line class="st3" x1="501.9" y1="26.4" x2="281.9" y2="246.4"/>
	<line class="st3" x1="556.6" y1="26.5" x2="309.3" y2="273.7"/>
	<line class="st3" x1="281.9" y1="28.5" x2="527.1" y2="273.7"/>
	<line class="st3" x1="367.5" y1="26.6" x2="567.4" y2="226.4"/>
	<line class="st3" x1="451.2" y1="26.6" x2="451.2" y2="273.8"/>
</g>
<g>
	<path class="st1" d="M177.6,116.9c0.1-0.1,0.1-0.1,0.2-0.2l-33.5-33.5c-0.4-0.4-1.1-0.4-1.6,0l-88.6,88.6c-0.4,0.4-0.4,1.1,0,1.6
		l54.6,54.6c0.4,0.4,1.1,0.4,1.6,0l67-67C165.4,148.6,165.5,129,177.6,116.9z"/>
	<line class="st3" x1="121.6" y1="60.5" x2="221.6" y2="160.5"/>
	<line class="st3" x1="33.7" y1="192.2" x2="165" y2="60.9"/>
	<line class="st2" x1="87.7" y1="206.8" x2="199.2" y2="95.2"/>
	<line class="st3" x1="89.8" y1="248.4" x2="221.1" y2="117.1"/>
	<line class="st3" x1="31.5" y1="150.6" x2="131.4" y2="250.6"/>
	<path class="st3" d="M221.1,160.9c-12.1,12.1-31.7,12.1-43.8,0c-12.1-12.1-12.1-31.7,0-43.8s31.7-12.1,43.8,0
		S233.2,148.8,221.1,160.9z"/>
	<path class="st4" d="M144.4,85c-0.5,0.5-1.3,0.5-1.8,0s-0.5-1.3,0-1.8s1.3-0.5,1.8,0C144.9,83.8,144.9,84.6,144.4,85z"/>
	<path class="st5" d="M56,173.4c-0.5,0.5-1.3,0.5-1.8,0s-0.5-1.3,0-1.8s1.3-0.5,1.8,0C56.5,172.1,56.5,172.9,56,173.4z"/>
	<path class="st5" d="M110.4,227.8c-0.5,0.5-1.3,0.5-1.8,0s-0.5-1.3,0-1.8s1.3-0.5,1.8,0S110.9,227.3,110.4,227.8z"/>
	<g>
		<text transform="matrix(0.7071 0.7071 -0.7071 0.7071 77.0034 202.5107)" class="st6 st7 st8">10</text>
	</g>
	<g>
		<text transform="matrix(0.7071 -0.7071 0.7071 0.7071 95.9068 127.4924)" class="st6 st7 st8">16</text>
	</g>
	<g>
		<text transform="matrix(0.7071 0.7071 -0.7071 0.7071 160.3003 96.74)" class="st6 st7 st8">3.9</text>
	</g>
	<g>
		<text transform="matrix(0.7071 0.7071 -0.7071 0.7071 141.5669 87.9394)" class="st6 st7 st8">0.32</text>
	</g>
	<g>
		<text transform="matrix(0.7071 0.7071 -0.7071 0.7071 56.8823 172.6238)" class="st6 st7 st8">0.32</text>
	</g>
	<g>
		<text transform="matrix(0.7071 0.7071 -0.7071 0.7071 104.6948 220.4333)" class="st6 st7 st8">0.32</text>
	</g>
	<g>
		<text transform="matrix(0.7071 0.7071 -0.7071 0.7071 188.3882 124.8296)" class="st6 st7 st8">6.1</text>
	</g>
	<g>
		<text transform="matrix(0.7071 -0.7071 0.7071 0.7071 190.5791 153.9231)" class="st6 st7 st8">6.1</text>
	</g>
</g>
<g>
	<g>
		<path class="st9" d="M631.3,203.2L631.3,203.2l-0.1,2c0,0.3-0.2,0.6-0.6,0.6h-5.2c-0.3,0-0.6-0.2-0.6-0.6v-32.8
			c0-0.3,0.2-0.6,0.6-0.6h5.2c0.3,0,0.6,0.2,0.6,0.6v8.7h0.1c1.3-1.9,3.6-3.2,7.3-3.2c4.7,0,8.1,2.2,9.5,6.6c0.7,2.1,1,4,1,7.7
			s-0.3,5.6-1,7.7c-1.4,4.4-4.8,6.6-9.5,6.6C634.9,206.4,632.6,205.1,631.3,203.2z M642,197.3c0.4-1.2,0.6-2.6,0.6-5.1
			s-0.2-3.9-0.6-5.1c-0.7-2.3-2.5-3.5-5-3.5c-2.6,0-4.4,1.2-5.1,3.5c-0.4,1.2-0.6,2.6-0.6,5.1s0.2,3.9,0.6,5.1
			c0.7,2.3,2.5,3.5,5.1,3.5C639.5,200.8,641.2,199.5,642,197.3z"/>
		<path class="st9" d="M654.9,205.8c-0.3,0-0.6-0.2-0.6-0.6V179c0-0.3,0.2-0.6,0.6-0.6h5.2c0.3,0,0.6,0.2,0.6,0.6v26.2
			c0,0.3-0.2,0.6-0.6,0.6H654.9z"/>
		<path class="st9" d="M666,202.1c-0.2-0.2-0.2-0.6,0-0.8l3.2-3.4c0.2-0.2,0.6-0.2,0.8,0c2,1.8,5.2,3.1,8,3.1c3.3,0,5-1.4,5-3.2
			c0-1.6-1-2.7-4.5-3l-2.9-0.3c-5.6-0.6-8.4-3.4-8.4-8.1c0-5.3,3.8-8.6,10.6-8.6c4.3,0,7.8,1.4,10.3,3.3c0.3,0.2,0.3,0.6,0.1,0.8
			l-2.8,3.3c-0.2,0.3-0.5,0.3-0.8,0.1c-1.7-1.2-4.4-2.3-7.1-2.3s-4.1,1.2-4.1,2.8s1,2.6,4.5,2.9l2.9,0.3c5.7,0.6,8.5,3.5,8.5,8
			c0,5.4-4,9.2-11.5,9.2C672.1,206.4,668.2,204.2,666,202.1z"/>
		<path class="st9" d="M693.8,198.9c-0.6-1.7-0.9-3.9-0.9-6.7c0-2.9,0.3-5,0.9-6.7c1.6-4.9,5.8-7.5,11.3-7.5c4.1,0,7.3,1.6,9.5,4.3
			c0.2,0.2,0.2,0.6-0.1,0.8l-3.6,2.9c-0.3,0.2-0.6,0.2-0.8-0.1c-1.4-1.5-2.8-2.4-5-2.4c-2.4,0-4.3,1.2-5.1,3.6
			c-0.5,1.4-0.6,2.9-0.6,5s0.1,3.7,0.6,5.1c0.8,2.3,2.7,3.5,5.1,3.5c2.3,0,3.7-0.8,5-2.4c0.2-0.3,0.5-0.3,0.8-0.1l3.6,3.1
			c0.3,0.2,0.2,0.5,0.1,0.8c-2.2,2.6-5.4,4.2-9.5,4.2C699.6,206.4,695.4,203.8,693.8,198.9z"/>
		<path class="st9" d="M736.7,205.8c-0.3,0-0.6-0.2-0.6-0.6v-2H736c-1.5,1.9-3.6,3.2-7.1,3.2c-5.8,0-9.4-4.3-9.4-10.2V179
			c0-0.3,0.2-0.6,0.6-0.6h5.2c0.3,0,0.6,0.2,0.6,0.6v15.8c0,3.5,1.6,6,5.1,6c3.2,0,5.1-2.4,5.1-5.9v-15.8c0-0.3,0.2-0.6,0.6-0.6h5.2
			c0.3,0,0.6,0.2,0.6,0.6v26.2c0,0.3-0.2,0.6-0.6,0.6h-5.2V205.8z"/>
		<path class="st9" d="M750,205.8c-0.3,0-0.6-0.2-0.6-0.6V179c0-0.3,0.2-0.6,0.6-0.6h5.2c0.3,0,0.6,0.2,0.6,0.6v26.2
			c0,0.3-0.2,0.6-0.6,0.6H750z"/>
		<path class="st9" d="M770.6,206.2c-5.5,0-7.6-2.7-7.6-8v-14.4c0-0.2-0.1-0.3-0.3-0.3h-1.8c-0.3,0-0.6-0.2-0.6-0.6v-3.8
			c0-0.3,0.2-0.6,0.6-0.6h1.8c0.2,0,0.3-0.1,0.3-0.3v-5.7c0-0.3,0.2-0.6,0.6-0.6h5.2c0.3,0,0.6,0.2,0.6,0.6v5.7
			c0,0.2,0.1,0.3,0.3,0.3h3.6c0.3,0,0.6,0.2,0.6,0.6v3.8c0,0.3-0.2,0.6-0.6,0.6h-3.6c-0.2,0-0.3,0.1-0.3,0.3V198
			c0,1.9,0.8,2.6,2.6,2.6h1.4c0.3,0,0.6,0.2,0.6,0.6v4.5c0,0.3-0.2,0.6-0.6,0.6h-2.8V206.2z"/>
	</g>
	<path class="st9" d="M726.1,111L726.1,111l-16.2-16.4c-0.2-0.2-0.6-0.2-0.8,0L666,137.7c-0.2,0.2-0.2,0.6,0,0.8l26.6,26.6
		c0.2,0.2,0.6,0.2,0.8,0l32.6-32.6C720.1,126.4,720.2,116.9,726.1,111z"/>
</g>
</svg>
