<?xml version="1.0" encoding="utf-8"?>
<!-- Generator: Adobe Illustrator 22.0.1, SVG Export Plug-In . SVG Version: 6.00 Build 0)  -->
<svg version="1.1" id="Layer_1" xmlns="http://www.w3.org/2000/svg" xmlns:xlink="http://www.w3.org/1999/xlink" x="0px" y="0px"
	 viewBox="0 0 1407.6 439.8" style="enable-background:new 0 0 1407.6 439.8;" xml:space="preserve">
<style type="text/css">
	.st0{fill:#2A2A2B;}
</style>
<g>
	<g>
		<g>
			<path class="st0" d="M242.5,186.4h-14.3v-8.2c0-4-3.4-5.8-7.4-5.8h-46.2c-4,0-7.4,1.8-7.4,5.8v8.2h-12.8c-8,0-14.2,5.5-14.2,13.5
				v52c0,8,6.2,15.5,14.2,15.5h88.1c8,0,14.7-7.6,14.7-15.5v-52C257.2,191.9,250.5,186.4,242.5,186.4z M198.6,256.2
				c-16.9,0-30.7-13.7-30.7-30.7c0-16.9,13.7-30.7,30.7-30.7c16.9,0,30.7,13.7,30.7,30.7C229.3,242.5,215.6,256.2,198.6,256.2z"/>
		</g>
		<g>
			<path class="st0" d="M207.5,234.3h-17.8l-2.9,6.4h-7l15.3-34h7l15.3,34h-7L207.5,234.3z M198.6,213.8l-6.3,14.5h12.6L198.6,213.8
				z"/>
		</g>
	</g>
	<g>
		<path class="st0" d="M351.1,189.5v72h94.7v-72H351.1z M439.2,255.9h-81.5v-60.8h81.5V255.9z"/>
		<polygon class="st0" points="363.9,178.3 363.9,186.4 370.5,186.4 370.5,183.9 451.9,183.9 451.9,244.7 449,244.7 449,250.3 
			458.5,250.3 458.5,178.3 		"/>
		<g>
			<path class="st0" d="M407.9,236.4h-18.4l-3,6.6h-7.2l15.8-35.2h7.2l15.8,35.2h-7.2L407.9,236.4z M398.6,215.3l-6.5,15h13.1
				L398.6,215.3z"/>
		</g>
	</g>
	<path class="st0" d="M656.5,212.4H652c-2.1,0-4.3-1.6-4.9-3.6l-2.6-6.3c-1-1.8-0.6-4.5,0.9-6l3.2-3.2c1.5-1.5,1.5-3.9,0-5.3
		l-5.3-5.3c-1.5-1.5-3.9-1.5-5.3,0l-3.2,3.2c-1.5,1.5-4.2,1.9-6,0.9l-6.3-2.6c-2-0.6-3.6-2.8-3.6-4.9v-4.5c0-2.1-1.7-3.8-3.8-3.8
		h-7.5c-2.1,0-3.8,1.7-3.8,3.8v4.5c0,2.1-1.6,4.3-3.6,4.9l-6.3,2.6c-1.8,1-4.5,0.6-6-0.9l-3.2-3.2c-1.5-1.5-3.9-1.5-5.3,0l-5.3,5.3
		c-1.5,1.5-1.5,3.9,0,5.3l3.2,3.2c1.5,1.5,1.9,4.2,0.9,6l-2.6,6.3c-0.6,2-2.8,3.6-4.9,3.6l-4.5,0c-2.1,0-3.8,1.7-3.8,3.8v7.5
		c0,2.1,1.7,3.8,3.8,3.8h4.5c2.1,0,4.3,1.6,4.9,3.6l2.6,6.3c1,1.8,0.6,4.5-0.9,6l-3.2,3.2c-1.5,1.5-1.5,3.9,0,5.3l5.3,5.3
		c1.5,1.5,3.9,1.5,5.3,0l3.2-3.2c1.5-1.5,4.1-1.9,6-0.9l6.3,2.6c2,0.6,3.6,2.8,3.6,4.9v4.5c0,2.1,1.7,3.8,3.8,3.8h7.5
		c2.1,0,3.8-1.7,3.8-3.8v-4.5c0-2.1,1.6-4.3,3.6-4.9l6.3-2.6c1.8-1,4.5-0.6,6,0.9l3.2,3.2c1.5,1.5,3.9,1.5,5.3,0l5.3-5.3
		c1.5-1.5,1.5-3.9,0-5.3l-3.2-3.2c-1.5-1.5-1.9-4.2-0.9-6l2.6-6.3c0.6-2,2.8-3.6,4.9-3.6h4.5c2.1,0,3.8-1.7,3.8-3.8v-7.5
		C660.3,214,658.6,212.4,656.5,212.4 M632.5,219.9c0,11.6-9.4,21.1-21.1,21.1c-11.6,0-21.1-9.4-21.1-21.1s9.4-21.1,21.1-21.1
		C623,198.8,632.5,208.2,632.5,219.9"/>
	<g>
		<path class="st0" d="M1061.2,194.3c0,1.4-1.1,2.5-2.5,2.5h-68.6c-1.4,0-2.5-1.1-2.5-2.5v-8.8c0-1.4,1.1-2.5,2.5-2.5h68.6
			c1.4,0,2.5,1.1,2.5,2.5V194.3z"/>
		<path class="st0" d="M1061.2,224.3c0,1.4-1.1,2.5-2.5,2.5h-68.6c-1.4,0-2.5-1.1-2.5-2.5v-8.8c0-1.4,1.1-2.5,2.5-2.5h68.6
			c1.4,0,2.5,1.1,2.5,2.5V224.3z"/>
		<path class="st0" d="M1061.2,254.2c0,1.4-1.1,2.5-2.5,2.5h-68.6c-1.4,0-2.5-1.1-2.5-2.5v-8.8c0-1.4,1.1-2.5,2.5-2.5h68.6
			c1.4,0,2.5,1.1,2.5,2.5V254.2z"/>
	</g>
	<g>
		<path class="st0" d="M1223.7,210.1c0,1.4-1.1,2.5-2.5,2.5H1197c-1.4,0-2.5-1.1-2.5-2.5V186c0-1.4,1.1-2.5,2.5-2.5h24.2
			c1.4,0,2.5,1.1,2.5,2.5V210.1z"/>
		<path class="st0" d="M1267.3,210.1c0,1.4-1.1,2.5-2.5,2.5h-24.2c-1.4,0-2.5-1.1-2.5-2.5V186c0-1.4,1.1-2.5,2.5-2.5h24.2
			c1.4,0,2.5,1.1,2.5,2.5V210.1z"/>
		<path class="st0" d="M1267.3,253.8c0,1.4-1.1,2.5-2.5,2.5h-24.2c-1.4,0-2.5-1.1-2.5-2.5v-24.2c0-1.4,1.1-2.5,2.5-2.5h24.2
			c1.4,0,2.5,1.1,2.5,2.5V253.8z"/>
		<path class="st0" d="M1223.7,253.8c0,1.4-1.1,2.5-2.5,2.5H1197c-1.4,0-2.5-1.1-2.5-2.5v-24.2c0-1.4,1.1-2.5,2.5-2.5h24.2
			c1.4,0,2.5,1.1,2.5,2.5V253.8z"/>
	</g>
	<g>
		<path class="st0" d="M817.9,173.5c-25.6,0-46.4,20.8-46.4,46.4c0,25.6,20.8,46.4,46.4,46.4c25.6,0,46.4-20.8,46.4-46.4
			C864.3,194.3,843.5,173.5,817.9,173.5z M809.5,242.2l-18.1-18.1l6.6-6.6l11.5,11.5l28.3-28.3l6.6,6.6L809.5,242.2z"/>
	</g>
</g>
</svg>
