<svg width="460" height="300" viewBox="0 0 460 300" fill="none" xmlns="http://www.w3.org/2000/svg">
<rect x="107" y="30" width="240" height="240" fill="white"/>
<path d="M107 238H347V266C347 268.209 345.209 270 343 270H111C108.791 270 107 268.209 107 266V238Z" fill="#EEEFF1"/>
<path d="M119.861 258H121.442V255.051H123.112C125.128 255.051 126.21 253.841 126.21 252.162C126.21 250.496 125.141 249.273 123.134 249.273H119.861V258ZM121.442 253.751V250.594H122.891C124.075 250.594 124.599 251.233 124.599 252.162C124.599 253.091 124.075 253.751 122.899 253.751H121.442Z" fill="#717684"/>
<path d="M134.755 249.273H133.183V255.222H133.106L128.998 249.273H127.583V258H129.164V252.055H129.237L133.349 258H134.755V249.273Z" fill="#717684"/>
<path d="M142.325 252.06H143.935C143.667 250.347 142.184 249.153 140.254 249.153C137.969 249.153 136.256 250.832 136.256 253.645C136.256 256.406 137.893 258.119 140.3 258.119C142.461 258.119 144.008 256.73 144.008 254.48V253.432H140.467V254.668H142.478C142.452 255.912 141.621 256.7 140.309 256.7C138.847 256.7 137.846 255.605 137.846 253.628C137.846 251.663 138.864 250.572 140.275 250.572C141.327 250.572 142.043 251.135 142.325 252.06Z" fill="#717684"/>
<path d="M174.604 251.672H176.125C176.095 250.197 174.838 249.153 172.98 249.153C171.148 249.153 169.771 250.185 169.776 251.727C169.776 252.98 170.666 253.7 172.102 254.071L173.095 254.327C174.037 254.565 174.659 254.859 174.663 255.537C174.659 256.283 173.952 256.781 172.92 256.781C171.932 256.781 171.165 256.338 171.101 255.422H169.545C169.609 257.156 170.901 258.132 172.933 258.132C175.026 258.132 176.24 257.088 176.244 255.55C176.24 254.037 174.991 253.347 173.679 253.036L172.861 252.831C172.145 252.661 171.369 252.358 171.378 251.629C171.382 250.973 171.97 250.491 172.959 250.491C173.901 250.491 174.523 250.93 174.604 251.672Z" fill="#717684"/>
<path d="M178.821 249.273H177.087L180.159 258H182.111L185.188 249.273H183.449L181.182 256.142H181.093L178.821 249.273Z" fill="#717684"/>
<path d="M191.821 252.06H193.431C193.163 250.347 191.68 249.153 189.75 249.153C187.466 249.153 185.752 250.832 185.752 253.645C185.752 256.406 187.389 258.119 189.797 258.119C191.957 258.119 193.504 256.73 193.504 254.48V253.432H189.963V254.668H191.974C191.949 255.912 191.118 256.7 189.805 256.7C188.343 256.7 187.342 255.605 187.342 253.628C187.342 251.663 188.36 250.572 189.771 250.572C190.824 250.572 191.539 251.135 191.821 252.06Z" fill="#717684"/>
<path d="M308.331 252.217C308.063 250.278 306.571 249.153 304.636 249.153C302.357 249.153 300.639 250.815 300.639 253.636C300.639 256.453 302.335 258.119 304.636 258.119C306.712 258.119 308.088 256.777 308.331 255.111L306.737 255.102C306.537 256.125 305.702 256.7 304.658 256.7C303.243 256.7 302.229 255.639 302.229 253.636C302.229 251.668 303.234 250.572 304.662 250.572C305.723 250.572 306.554 251.173 306.737 252.217H308.331Z" fill="#717684"/>
<path d="M317.577 253.636C317.577 250.815 315.855 249.153 313.567 249.153C311.275 249.153 309.557 250.815 309.557 253.636C309.557 256.453 311.275 258.119 313.567 258.119C315.855 258.119 317.577 256.457 317.577 253.636ZM315.988 253.636C315.988 255.622 314.99 256.7 313.567 256.7C312.148 256.7 311.147 255.622 311.147 253.636C311.147 251.651 312.148 250.572 313.567 250.572C314.99 250.572 315.988 251.651 315.988 253.636Z" fill="#717684"/>
<path d="M319.072 258H320.653V255.051H322.323C324.339 255.051 325.421 253.841 325.421 252.162C325.421 250.496 324.352 249.273 322.344 249.273H319.072V258ZM320.653 253.751V250.594H322.102C323.286 250.594 323.81 251.233 323.81 252.162C323.81 253.091 323.286 253.751 322.11 253.751H320.653Z" fill="#717684"/>
<path d="M326.198 249.273L329.373 254.744V258H330.949V254.744L334.124 249.273H332.338L330.203 253.134H330.118L327.983 249.273H326.198Z" fill="#717684"/>
<path d="M107 34C107 31.7909 108.791 30 111 30H343C345.209 30 347 31.7909 347 34V236H107V34Z" fill="#F4F5F6"/>
<g clip-path="url(#clip0)">
<path d="M192.293 124.659C186.099 124.659 181.605 129.265 181.605 135.602C181.606 141.939 186.05 146.456 192.506 146.456C193.958 146.516 195.407 146.271 196.759 145.739C198.112 145.206 199.337 144.396 200.358 143.361C200.761 142.963 201.003 142.431 201.036 141.866C201.042 141.626 200.998 141.388 200.908 141.165C200.818 140.943 200.682 140.742 200.511 140.574C200.339 140.406 200.135 140.275 199.91 140.19C199.686 140.104 199.447 140.066 199.207 140.077C198.925 140.085 198.647 140.149 198.391 140.265C198.134 140.382 197.903 140.548 197.711 140.755C197.037 141.453 196.228 142.006 195.333 142.381C194.438 142.756 193.476 142.945 192.506 142.936C190.852 142.96 189.251 142.348 188.035 141.227C186.818 140.105 186.079 138.56 185.969 136.909H199.942C201.462 136.909 202.205 136.198 202.205 134.736C202.215 134.283 202.185 133.829 202.115 133.381C201.364 127.902 197.686 124.659 192.293 124.659ZM192.293 128.057C195.652 128.057 197.809 130.196 197.94 133.642H185.961C186.124 132.087 186.866 130.65 188.038 129.615C189.211 128.581 190.73 128.025 192.293 128.057ZM215.565 124.659C214.206 124.646 212.869 124.998 211.692 125.677C210.515 126.356 209.541 127.339 208.873 128.522V127.166C208.873 125.019 207.239 124.912 206.871 124.912C206.583 124.905 206.297 124.961 206.033 125.075C205.768 125.189 205.532 125.359 205.339 125.573C205.147 125.787 205.003 126.04 204.917 126.315C204.832 126.591 204.807 126.881 204.845 127.166V143.9C204.819 144.195 204.854 144.493 204.95 144.774C205.045 145.056 205.198 145.314 205.399 145.533C205.599 145.751 205.843 145.926 206.115 146.045C206.387 146.165 206.681 146.226 206.978 146.226C207.425 146.225 207.861 146.085 208.224 145.825C208.588 145.565 208.861 145.197 209.005 144.774C209.099 144.493 209.136 144.195 209.11 143.899V134.916C209.11 131.013 211.324 128.277 214.495 128.277C217.666 128.277 219.071 130.294 219.071 134.443V143.899C219.03 144.273 219.089 144.651 219.242 144.995C219.394 145.34 219.635 145.638 219.939 145.859C220.244 146.08 220.601 146.218 220.975 146.257C221.35 146.296 221.728 146.235 222.071 146.082C222.485 145.897 222.829 145.587 223.055 145.195C223.28 144.802 223.376 144.349 223.328 143.899V133.095C223.311 129.02 221.278 124.659 215.565 124.659ZM242.596 124.88C242.104 124.888 241.628 125.06 241.244 125.367C240.86 125.674 240.588 126.1 240.472 126.579L234.637 141.229L228.852 126.579C228.729 126.096 228.451 125.667 228.059 125.36C227.667 125.053 227.184 124.884 226.686 124.88C226.133 124.869 225.598 125.078 225.198 125.46C224.799 125.843 224.567 126.369 224.553 126.922C224.557 127.336 224.649 127.745 224.824 128.122L231.525 143.932C232.341 145.843 233.632 146.244 234.596 146.244C235.561 146.244 236.868 145.843 237.669 143.94L244.419 128.041C244.579 127.672 244.668 127.275 244.68 126.873C244.679 126.604 244.625 126.337 244.519 126.089C244.414 125.842 244.258 125.618 244.064 125.431C243.87 125.245 243.64 125.1 243.387 125.005C243.134 124.91 242.866 124.867 242.596 124.88ZM254.984 124.659C252.439 124.606 249.942 125.351 247.842 126.791C247.55 126.964 247.308 127.21 247.14 127.505C246.973 127.8 246.885 128.134 246.886 128.473C246.877 128.693 246.912 128.913 246.99 129.119C247.067 129.325 247.187 129.514 247.339 129.673C247.492 129.831 247.676 129.957 247.879 130.043C248.081 130.129 248.3 130.173 248.521 130.172C248.978 130.15 249.418 129.994 249.787 129.722C251.182 128.715 252.854 128.162 254.576 128.138C257.722 128.138 259.527 129.772 259.527 132.531V132.997C252.459 132.997 245.268 133.864 245.268 140.012C245.268 144.439 249.052 146.414 252.802 146.414C254.147 146.475 255.486 146.193 256.692 145.595C257.899 144.996 258.933 144.101 259.699 142.993V144.071C259.669 144.349 259.698 144.631 259.785 144.897C259.873 145.162 260.016 145.406 260.206 145.612C260.395 145.818 260.627 145.981 260.884 146.09C261.143 146.199 261.421 146.252 261.701 146.244C261.981 146.255 262.26 146.205 262.518 146.096C262.776 145.988 263.007 145.825 263.196 145.617C263.384 145.411 263.525 145.165 263.608 144.898C263.692 144.631 263.716 144.349 263.678 144.071V132.793C263.678 127.697 260.41 124.659 254.984 124.659ZM258.661 136.149H259.593V137.129C259.593 140.723 257.313 143.034 253.775 143.034C252.811 143.034 249.689 142.813 249.689 139.939C249.64 136.525 254.788 136.149 258.661 136.149ZM274.743 128.742C274.989 128.777 275.24 128.757 275.479 128.685C275.717 128.612 275.937 128.49 276.123 128.324C276.309 128.159 276.458 127.955 276.558 127.727C276.658 127.499 276.707 127.252 276.703 127.003C276.712 126.751 276.665 126.501 276.567 126.269C276.469 126.036 276.321 125.828 276.135 125.659C275.949 125.49 275.728 125.363 275.486 125.288C275.246 125.212 274.992 125.19 274.743 125.223H270.91V121.344C270.957 120.897 270.862 120.447 270.638 120.058C270.414 119.669 270.073 119.36 269.663 119.177C269.39 119.056 269.096 118.993 268.798 118.994C268.5 118.994 268.206 119.057 267.934 119.178C267.661 119.299 267.417 119.476 267.218 119.698C267.019 119.919 266.868 120.18 266.776 120.464C266.684 120.748 266.653 121.047 266.685 121.344V139.751C266.685 143.998 268.786 146.284 272.749 146.284C273.668 146.307 274.584 146.141 275.437 145.795C275.772 145.656 276.062 145.423 276.271 145.125C276.479 144.827 276.598 144.475 276.614 144.112C276.622 143.886 276.584 143.661 276.501 143.451C276.419 143.242 276.294 143.051 276.134 142.891C275.975 142.732 275.784 142.607 275.574 142.525C275.364 142.442 275.14 142.404 274.914 142.413C274.656 142.426 274.401 142.47 274.154 142.544C273.867 142.625 273.57 142.668 273.271 142.674C271.637 142.674 270.91 141.621 270.91 139.359V128.742H274.743ZM288.83 124.659C282.391 124.659 277.709 129.224 277.709 135.513C277.685 136.971 277.957 138.419 278.506 139.77C279.055 141.121 279.87 142.348 280.904 143.377C283.04 145.402 285.886 146.507 288.83 146.456C295.195 146.456 300 141.752 300 135.513C300 129.274 295.302 124.659 288.83 124.659ZM288.83 142.846C284.409 142.846 282.105 139.163 282.105 135.497C282.105 130.49 285.594 128.212 288.83 128.212C292.065 128.212 295.546 130.506 295.546 135.513C295.546 140.518 292.074 142.846 288.83 142.846Z" fill="#141614"/>
<path d="M174.317 122.724C170.893 118.714 159.813 126.482 159.902 136.493C159.9 136.615 159.85 136.733 159.763 136.819C159.677 136.906 159.559 136.956 159.437 136.958C159.356 136.957 159.277 136.935 159.207 136.895C159.137 136.855 159.079 136.798 159.037 136.729C157.898 134.252 157.746 131.434 158.612 128.849C158.645 128.754 158.644 128.65 158.609 128.555C158.574 128.461 158.507 128.382 158.42 128.331C158.333 128.281 158.231 128.263 158.131 128.28C158.032 128.297 157.942 128.348 157.876 128.424C156.029 130.391 155.001 132.987 155 135.684C154.975 137.816 155.592 139.906 156.772 141.681C157.951 143.457 159.639 144.836 161.613 145.639C162.925 146.172 164.33 146.439 165.745 146.423C180.862 146.08 177.373 126.301 174.317 122.724Z" fill="#80B341"/>
</g>
<path fill-rule="evenodd" clip-rule="evenodd" d="M89 30.5H99V29.5H89C87.6193 29.5 86.5 30.6193 86.5 32V233C86.5 234.381 87.6193 235.5 89 235.5H99V234.5H89C88.1716 234.5 87.5 233.828 87.5 233V32C87.5 31.1716 88.1716 30.5 89 30.5Z" fill="#A4C6F9"/>
<path d="M20.799 136H25.1918V135.055H21.8963V128.727H20.799V136Z" fill="#708EBB"/>
<path d="M28.6559 136.11C30.1935 136.11 31.1985 134.984 31.1985 133.298C31.1985 131.6 30.1935 130.474 28.6559 130.474C27.1183 130.474 26.1133 131.6 26.1133 133.298C26.1133 134.984 27.1183 136.11 28.6559 136.11ZM28.6594 135.219C27.6545 135.219 27.1857 134.342 27.1857 133.294C27.1857 132.25 27.6545 131.362 28.6594 131.362C29.6573 131.362 30.1261 132.25 30.1261 133.294C30.1261 134.342 29.6573 135.219 28.6594 135.219Z" fill="#708EBB"/>
<path d="M34.6706 138.148C36.0591 138.148 37.1316 137.513 37.1316 136.121V130.545H36.0911V131.43H36.013C35.8248 131.092 35.4483 130.474 34.4327 130.474C33.1152 130.474 32.1458 131.515 32.1458 133.251C32.1458 134.991 33.1365 135.918 34.4256 135.918C35.427 135.918 35.8141 135.354 36.0059 135.006H36.0733V136.078C36.0733 136.92 35.4874 137.293 34.6813 137.293C33.7971 137.293 33.4526 136.849 33.2644 136.547L32.3517 136.923C32.6394 137.58 33.3674 138.148 34.6706 138.148ZM34.66 135.038C33.7118 135.038 33.2182 134.31 33.2182 133.237C33.2182 132.19 33.7012 131.376 34.66 131.376C35.5868 131.376 36.084 132.133 36.084 133.237C36.084 134.363 35.5762 135.038 34.66 135.038Z" fill="#708EBB"/>
<path d="M40.8532 136.11C42.3908 136.11 43.3958 134.984 43.3958 133.298C43.3958 131.6 42.3908 130.474 40.8532 130.474C39.3155 130.474 38.3105 131.6 38.3105 133.298C38.3105 134.984 39.3155 136.11 40.8532 136.11ZM40.8567 135.219C39.8517 135.219 39.383 134.342 39.383 133.294C39.383 132.25 39.8517 131.362 40.8567 131.362C41.8546 131.362 42.3233 132.25 42.3233 133.294C42.3233 134.342 41.8546 135.219 40.8567 135.219Z" fill="#708EBB"/>
<path d="M47.0206 136C49.2365 136 50.5185 134.626 50.5185 132.353C50.5185 130.091 49.2365 128.727 47.0952 128.727H44.6662V136H47.0206ZM45.7635 135.041V129.686H47.0277C48.6186 129.686 49.4389 130.638 49.4389 132.353C49.4389 134.075 48.6186 135.041 46.9602 135.041H45.7635Z" fill="#708EBB"/>
<path d="M51.7978 136H52.8596V130.545H51.7978V136ZM52.334 129.704C52.6997 129.704 53.0051 129.42 53.0051 129.072C53.0051 128.724 52.6997 128.436 52.334 128.436C51.9647 128.436 51.6628 128.724 51.6628 129.072C51.6628 129.42 51.9647 129.704 52.334 129.704Z" fill="#708EBB"/>
<path d="M58.3754 131.877C58.1552 131.028 57.4911 130.474 56.3121 130.474C55.0799 130.474 54.2063 131.124 54.2063 132.09C54.2063 132.864 54.6751 133.379 55.6978 133.607L56.6211 133.809C57.1467 133.926 57.3917 134.161 57.3917 134.501C57.3917 134.924 56.9407 135.254 56.2447 135.254C55.609 135.254 55.2006 134.981 55.0728 134.445L54.0465 134.601C54.2241 135.567 55.0266 136.11 56.2518 136.11C57.5692 136.11 58.4819 135.411 58.4819 134.423C58.4819 133.653 57.9918 133.177 56.9904 132.946L56.1239 132.747C55.5238 132.605 55.2646 132.403 55.2681 132.033C55.2646 131.614 55.7191 131.316 56.3228 131.316C56.9833 131.316 57.2887 131.682 57.413 132.048L58.3754 131.877Z" fill="#708EBB"/>
<path d="M59.6493 138.045H60.7111V135.151H60.775C60.9668 135.499 61.3574 136.107 62.3517 136.107C63.6728 136.107 64.6316 135.048 64.6316 133.283C64.6316 131.515 63.6586 130.474 62.3411 130.474C61.329 130.474 60.9632 131.092 60.775 131.43H60.6863V130.545H59.6493V138.045ZM60.6898 133.273C60.6898 132.133 61.187 131.376 62.1138 131.376C63.0762 131.376 63.5591 132.19 63.5591 133.273C63.5591 134.366 63.062 135.201 62.1138 135.201C61.2012 135.201 60.6898 134.42 60.6898 133.273Z" fill="#708EBB"/>
<path d="M66.883 128.727H65.8212V136H66.883V128.727Z" fill="#708EBB"/>
<path d="M69.8988 136.121C70.8008 136.121 71.3086 135.663 71.511 135.254H71.5536V136H72.5905V132.378C72.5905 130.79 71.3405 130.474 70.4741 130.474C69.4869 130.474 68.5778 130.872 68.2227 131.866L69.2205 132.094C69.3768 131.707 69.7745 131.334 70.4883 131.334C71.1736 131.334 71.5252 131.692 71.5252 132.31V132.335C71.5252 132.722 71.1275 132.715 70.1474 132.829C69.114 132.95 68.0557 133.219 68.0557 134.459C68.0557 135.531 68.8619 136.121 69.8988 136.121ZM70.1296 135.268C69.5295 135.268 69.0962 134.999 69.0962 134.473C69.0962 133.905 69.6005 133.702 70.2148 133.621C70.5593 133.575 71.3761 133.482 71.5288 133.33V134.033C71.5288 134.679 71.0138 135.268 70.1296 135.268Z" fill="#708EBB"/>
<path d="M74.4806 138.031C75.3578 138.031 75.9153 137.573 76.2278 136.728L78.4828 130.556L77.3358 130.545L75.9544 134.778H75.8975L74.5162 130.545H73.3798L75.3755 136.071L75.2441 136.433C74.9743 137.14 74.5943 137.204 74.0119 137.044L73.7562 137.914C73.8841 137.974 74.161 138.031 74.4806 138.031Z" fill="#708EBB"/>
<path fill-rule="evenodd" clip-rule="evenodd" d="M365 239.5H355V238.5H365C366.381 238.5 367.5 239.619 367.5 241V268C367.5 269.381 366.381 270.5 365 270.5H355V269.5H365C365.828 269.5 366.5 268.828 366.5 268V241C366.5 240.172 365.828 239.5 365 239.5Z" fill="#A4C6F9"/>
<path d="M379.799 258H384.192V257.055H380.896V250.727H379.799V258Z" fill="#708EBB"/>
<path d="M387.656 258.11C389.194 258.11 390.199 256.984 390.199 255.298C390.199 253.6 389.194 252.474 387.656 252.474C386.118 252.474 385.113 253.6 385.113 255.298C385.113 256.984 386.118 258.11 387.656 258.11ZM387.659 257.219C386.654 257.219 386.186 256.342 386.186 255.294C386.186 254.25 386.654 253.362 387.659 253.362C388.657 253.362 389.126 254.25 389.126 255.294C389.126 256.342 388.657 257.219 387.659 257.219Z" fill="#708EBB"/>
<path d="M393.671 260.148C395.059 260.148 396.132 259.513 396.132 258.121V252.545H395.091V253.43H395.013C394.825 253.092 394.448 252.474 393.433 252.474C392.115 252.474 391.146 253.515 391.146 255.251C391.146 256.991 392.137 257.918 393.426 257.918C394.427 257.918 394.814 257.354 395.006 257.006H395.073V258.078C395.073 258.92 394.487 259.293 393.681 259.293C392.797 259.293 392.453 258.849 392.264 258.547L391.352 258.923C391.639 259.58 392.367 260.148 393.671 260.148ZM393.66 257.038C392.712 257.038 392.218 256.31 392.218 255.237C392.218 254.19 392.701 253.376 393.66 253.376C394.587 253.376 395.084 254.133 395.084 255.237C395.084 256.363 394.576 257.038 393.66 257.038Z" fill="#708EBB"/>
<path d="M399.853 258.11C401.391 258.11 402.396 256.984 402.396 255.298C402.396 253.6 401.391 252.474 399.853 252.474C398.316 252.474 397.311 253.6 397.311 255.298C397.311 256.984 398.316 258.11 399.853 258.11ZM399.857 257.219C398.852 257.219 398.383 256.342 398.383 255.294C398.383 254.25 398.852 253.362 399.857 253.362C400.855 253.362 401.323 254.25 401.323 255.294C401.323 256.342 400.855 257.219 399.857 257.219Z" fill="#708EBB"/>
<path d="M409.707 253.092C409.458 251.537 408.24 250.628 406.702 250.628C404.82 250.628 403.432 252.038 403.432 254.364C403.432 256.69 404.813 258.099 406.702 258.099C408.3 258.099 409.469 257.098 409.707 255.66L408.599 255.656C408.411 256.587 407.629 257.098 406.71 257.098C405.463 257.098 404.522 256.143 404.522 254.364C404.522 252.599 405.46 251.629 406.713 251.629C407.64 251.629 408.418 252.151 408.599 253.092H409.707Z" fill="#708EBB"/>
<path d="M413.232 258.11C414.77 258.11 415.775 256.984 415.775 255.298C415.775 253.6 414.77 252.474 413.232 252.474C411.694 252.474 410.689 253.6 410.689 255.298C410.689 256.984 411.694 258.11 413.232 258.11ZM413.236 257.219C412.231 257.219 411.762 256.342 411.762 255.294C411.762 254.25 412.231 253.362 413.236 253.362C414.233 253.362 414.702 254.25 414.702 255.294C414.702 256.342 414.233 257.219 413.236 257.219Z" fill="#708EBB"/>
<path d="M418.022 254.761C418.022 253.891 418.554 253.394 419.293 253.394C420.014 253.394 420.451 253.866 420.451 254.658V258H421.512V254.531C421.512 253.181 420.77 252.474 419.655 252.474C418.835 252.474 418.299 252.854 418.047 253.433H417.979V252.545H416.96V258H418.022V254.761Z" fill="#708EBB"/>
<path d="M425.483 252.545H424.364V251.239H423.302V252.545H422.503V253.398H423.302V256.619C423.299 257.609 424.055 258.089 424.893 258.071C425.23 258.067 425.458 258.004 425.582 257.957L425.39 257.08C425.319 257.094 425.188 257.126 425.017 257.126C424.673 257.126 424.364 257.013 424.364 256.398V253.398H425.483V252.545Z" fill="#708EBB"/>
<path d="M426.657 258H427.719V254.669C427.719 253.955 428.269 253.44 429.022 253.44C429.242 253.44 429.491 253.479 429.576 253.504V252.489C429.47 252.474 429.26 252.464 429.125 252.464C428.486 252.464 427.939 252.826 427.74 253.412H427.683V252.545H426.657V258Z" fill="#708EBB"/>
<path d="M432.597 258.11C434.135 258.11 435.14 256.984 435.14 255.298C435.14 253.6 434.135 252.474 432.597 252.474C431.06 252.474 430.055 253.6 430.055 255.298C430.055 256.984 431.06 258.11 432.597 258.11ZM432.601 257.219C431.596 257.219 431.127 256.342 431.127 255.294C431.127 254.25 431.596 253.362 432.601 253.362C433.599 253.362 434.067 254.25 434.067 255.294C434.067 256.342 433.599 257.219 432.601 257.219Z" fill="#708EBB"/>
<path d="M437.387 250.727H436.325V258H437.387V250.727Z" fill="#708EBB"/>
<defs>
<clipPath id="clip0">
<rect x="155" y="119" width="145" height="27.4556" fill="white"/>
</clipPath>
</defs>
</svg>
