<?xml version="1.0" encoding="utf-8"?>
<!-- Generator: Adobe Illustrator 22.0.1, SVG Export Plug-In . SVG Version: 6.00 Build 0)  -->
<svg version="1.1" id="Layer_1" xmlns="http://www.w3.org/2000/svg" xmlns:xlink="http://www.w3.org/1999/xlink" x="0px" y="0px"
	 viewBox="0 0 179.7 86.7" style="enable-background:new 0 0 179.7 86.7;" xml:space="preserve">
<style type="text/css">
	.st0{fill:#FF1E0A;}
</style>
<path class="st0" d="M15.6,46.4L14.8,43h-3.7l0.9,3.4C12,46.4,15.6,46.4,15.6,46.4z M16.9,46.4l0.9-3.4h3.3l-0.9,3.4H16.9z
	 M19.3,49.8l-1.1,4.1h-4.4l-1-4.1H19.3z M27.3,46.4L26.4,43h-3.3l0.9,3.4H27.3z M28.7,46.4l0.8-3.4h3.7l-0.9,3.4H28.7z M31.5,49.8
	l-1,4.1h-4.4L25,49.8H31.5z M14,39.5l-0.9-3.9h2.5v-3H7.3v3h2l1,3.9H14z M18.7,39.5l1.8-6.9h3.2l1.8,6.9h-3.2
	c-0.1-0.3-0.1-0.6-0.1-1h-0.1c0,0,0,0.4-0.1,1C22,39.5,18.7,39.5,18.7,39.5z M30.3,39.5l0.9-3.9h-2.5v-3H37v3h-2l-1,3.9H30.3z
	 M38.4,53.9V51H41V35.6h-2.5v-3h9.1v3H45V51h2.6v2.9C47.6,53.9,38.4,53.9,38.4,53.9z M50,53.9V51h2.6V35.6h-2.5v-3h8.5v3h-2v5.8H59
	l4.1-5.8h-1.8v-3h7.8v3h-1.9l-5.1,7.1c0,0,0.7,0.3,1.4,1.6l3.3,5.9c0.3,0.5,0.7,0.7,1.4,0.7h1v2.9h-2.7c-1.8,0-2.4-0.5-3-1.6l-3.7-7
	c-0.3-0.6-0.8-0.8-1.6-0.8h-1.4v6.4h2.5v2.9C59.3,53.7,50,53.9,50,53.9z M70.9,53.9V51h2.6V35.6H71v-3h9.1v3h-2.6V51h2.6v2.9
	C80.1,53.9,70.9,53.9,70.9,53.9z M82.5,53.9V51h2.6V35.6h-2.6v-3h10.2c1.3,0,2.6,0.1,3.6,0.5c2.3,1,3.8,3.3,3.8,6.3S98.5,45,96,45.9
	c-1,0.3-2.1,0.4-3.3,0.4h-3.8v4.6h2.6v2.9L82.5,53.9C82.5,53.8,82.5,53.9,82.5,53.9z M89,43.2h3.3c0.9,0,1.6-0.1,2.2-0.4
	c1.1-0.6,1.7-1.8,1.7-3.3s-0.6-2.6-1.6-3.2c-0.6-0.3-1.3-0.5-2.3-0.5H89C89,35.8,89,43.2,89,43.2z M101.9,53.9V51h2.6V35.6h-2.6v-3
	h9.4c1.6,0,2.8,0.1,4.1,0.4c2.4,0.8,3.9,2.7,3.9,5.7s-1.6,5.1-4,5.9c0,0.1,0.6,0.4,1.1,1.2l2.5,4.4c0.3,0.5,0.7,0.7,1.4,0.7h0.7v2.9
	h-2.5c-1.8,0-2.3-0.4-3-1.6l-3-5.5c-0.4-0.8-0.8-1.1-2.1-1.1h-1.9v5.2h2.5v2.9h-9.1C101.9,53.7,101.9,53.9,101.9,53.9z M108.4,42.6
	h3.5c2.1,0,3.4-1.2,3.4-3.5c0-1.4-0.5-2.5-1.7-2.9c-0.6-0.3-1.4-0.4-2.4-0.4h-2.9L108.4,42.6L108.4,42.6z M122.8,53.9V51h2.6V35.6
	h-2.6v-3h9.1v3h-2.6V51h2.6v2.9H122.8z M134,43.2c0-6.3,4.8-10.9,11-10.9c2.6,0,8.3,0.9,8.3,4.3v2.9h-3.6v-1.7
	c0-1.6-2.8-2.1-4.6-2.1c-4.1,0-7.1,2.9-7.1,7.4c0,4.8,3.1,7.9,7.3,7.9c1.3,0,4.6-0.4,4.6-2.1v-1.6h3.6v2.9c0,3.2-5.5,4.2-8.4,4.2
	C138.7,54.3,134,49.4,134,43.2z M156,53.9V51h2.6V35.6H156v-3h15.8v5.5h-3.4v-2.3h-6v5.8h7v3.1h-7v6h6.4v-2.4h3.4v5.5
	C172.2,53.8,156,53.9,156,53.9z"/>
</svg>
