<?xml version="1.0" encoding="utf-8"?>
<!-- Generator: Adobe Illustrator 22.0.1, SVG Export Plug-In . SVG Version: 6.00 Build 0)  -->
<svg version="1.1" id="Layer_1" xmlns="http://www.w3.org/2000/svg" xmlns:xlink="http://www.w3.org/1999/xlink" x="0px" y="0px"
	 viewBox="0 0 733.7 597.6" style="enable-background:new 0 0 733.7 597.6;" xml:space="preserve">
<style type="text/css">
	.st0{fill:#E91D63;}
</style>
<g>
	<g>
		<path class="st0" d="M0.7,587.3l72.5-109.4H3.3v-25.1h115.6v7.8L49,569.8h69.2v25.1H0.7V587.3z"/>
		<path class="st0" d="M165.5,594.9h-28.7V452.7h28.7V594.9z"/>
		<path class="st0" d="M256.5,512.4h71.1v14c0,42.2-23.2,71.5-67.5,71.5c-46.7,0-75.1-33.2-75.1-74.1c0-41,28.7-74.1,75.6-74.1
			c37.2,0,53.1,18,53.1,18l-16.8,21.8c0,0-14.2-12.3-36.7-12.3c-27,0-45.5,19.7-45.5,46.7c0,27,18.2,46.9,45.2,46.9
			c23,0,36.7-14.5,37.4-32.9v-1.9h-40.7V512.4z"/>
		<path class="st0" d="M522.3,452.7h5l73.2,142.1H568l-9.2-19.4h-68l-9,19.4h-32.5L522.3,452.7z M525.6,504.6h-1.9L502.2,551
			l-1.7,3.1h48.3l-1.7-3.1L525.6,504.6z"/>
		<path class="st0" d="M661.6,512.4h71.1v14c0,42.2-23.2,71.5-67.5,71.5c-46.7,0-75.1-33.2-75.1-74.1c0-41,28.7-74.1,75.6-74.1
			c37.2,0,53.1,18,53.1,18l-16.8,21.8c0,0-14.2-12.3-36.7-12.3c-27,0-45.5,19.7-45.5,46.7c0,27,18.2,46.9,45.2,46.9
			c23,0,36.7-14.5,37.4-32.9v-1.9h-40.7V512.4z"/>
	</g>
	<g>
		<polygon class="st0" points="450.1,569.8 380.9,569.8 450.8,460.5 450.8,452.7 335.2,452.7 335.2,477.8 405,477.8 332.6,587.3 
			332.6,594.9 440.6,594.9 450.1,576.5 		"/>
	</g>
</g>
<g>
	<g>
		<g>
			<rect x="194.3" y="119.1" class="st0" width="117.5" height="25.1"/>
			<g>
				<polygon class="st0" points="312.5,2 196.9,2 196.9,27.1 266.8,27.1 222.5,93.9 258.7,93.9 312.5,9.8 				"/>
			</g>
		</g>
	</g>
	<g>
		<g>
			<polygon class="st0" points="118.2,144.2 118.2,119.1 84.8,119.1 68.6,144.2 			"/>
			<polygon class="st0" points="118.9,2 3.3,2 3.3,27.1 73.2,27.1 0.7,136.6 0.7,144.2 32.9,144.2 80.8,69.3 118.9,9.8 			"/>
		</g>
		<g>
			<path class="st0" d="M165.6,144.2h-28.7V2h28.7V144.2z"/>
		</g>
	</g>
	<g>
		<g>
			<polygon class="st0" points="459.6,144.2 459.6,119.1 426.1,119.1 410,144.2 			"/>
			<polygon class="st0" points="460.3,2 344.6,2 344.6,27.1 414.5,27.1 342,136.6 342,144.2 374.2,144.2 422.2,69.3 460.3,9.8 			
				"/>
		</g>
	</g>
	<g>
		<g>
			<rect x="593" y="119.1" class="st0" width="117.5" height="25.1"/>
			<g>
				<polygon class="st0" points="711.2,2 595.6,2 595.6,27.1 665.5,27.1 621.2,93.9 657.4,93.9 711.2,9.8 				"/>
			</g>
		</g>
		<g>
			<g>
				<path class="st0" d="M507,144.2h-28.7V2H507V144.2z"/>
			</g>
			<path class="st0" d="M564.3,144.2h-28.7V2h28.7V144.2z"/>
			<rect x="491.2" y="60.5" class="st0" width="58.8" height="25.1"/>
		</g>
	</g>
</g>
</svg>
