<svg width="480" height="200" viewBox="0 0 480 200" fill="none" xmlns="http://www.w3.org/2000/svg">
<rect y="80" width="200" height="40" rx="4" fill="#4AD2A1"/>
<path d="M60.2029 98.1406H63.0154C62.6575 95.5518 60.3755 93.7301 57.416 93.7301C53.9579 93.7301 51.2924 96.223 51.2924 100.467C51.2924 104.609 53.7853 107.179 57.4735 107.179C60.7782 107.179 63.1369 105.089 63.1369 101.643V99.9943H57.6589V102.078H60.4714C60.4331 103.702 59.3272 104.731 57.4863 104.731C55.4089 104.731 54.0985 103.178 54.0985 100.442C54.0985 97.7188 55.4601 96.1783 57.4608 96.1783C58.8862 96.1783 59.8514 96.9134 60.2029 98.1406ZM69.6392 107.192C72.0682 107.192 73.7045 106.009 74.0881 104.188L71.5696 104.021C71.2947 104.769 70.5916 105.159 69.6839 105.159C68.3224 105.159 67.4595 104.258 67.4595 102.794V102.788H74.1456V102.04C74.1456 98.7031 72.1257 97.054 69.5305 97.054C66.6413 97.054 64.7685 99.1058 64.7685 102.136C64.7685 105.249 66.6158 107.192 69.6392 107.192ZM67.4595 101.1C67.517 99.9815 68.3672 99.0866 69.5753 99.0866C70.7578 99.0866 71.576 99.9304 71.5824 101.1H67.4595ZM81.1449 97.1818H79.2976V94.8295H76.5746V97.1818H75.2322V99.2273H76.5746V104.341C76.5618 106.265 77.8722 107.217 79.8473 107.134C80.5504 107.109 81.049 106.968 81.3239 106.879L80.8956 104.852C80.7614 104.878 80.4737 104.942 80.218 104.942C79.6747 104.942 79.2976 104.737 79.2976 103.983V99.2273H81.1449V97.1818ZM95.2537 99.9815C95.0108 98.1726 93.5534 97.054 91.0733 97.054C88.5613 97.054 86.9057 98.2173 86.9121 100.109C86.9057 101.58 87.8326 102.532 89.7502 102.915L91.4505 103.254C92.307 103.427 92.6969 103.74 92.7097 104.232C92.6969 104.814 92.0641 105.229 91.1117 105.229C90.1401 105.229 89.4945 104.814 89.3283 104.015L86.65 104.156C86.9057 106.035 88.5037 107.192 91.1053 107.192C93.6493 107.192 95.4711 105.894 95.4775 103.957C95.4711 102.538 94.5442 101.688 92.6394 101.298L90.8624 100.94C89.9483 100.742 89.6096 100.429 89.6159 99.956C89.6096 99.3679 90.2743 98.9844 91.1181 98.9844C92.0641 98.9844 92.6266 99.5021 92.7608 100.135L95.2537 99.9815ZM102.414 97.1818H100.567V94.8295H97.8441V97.1818H96.5018V99.2273H97.8441V104.341C97.8313 106.265 99.1417 107.217 101.117 107.134C101.82 107.109 102.319 106.968 102.593 106.879L102.165 104.852C102.031 104.878 101.743 104.942 101.488 104.942C100.944 104.942 100.567 104.737 100.567 103.983V99.2273H102.414V97.1818ZM106.988 107.185C108.439 107.185 109.379 106.553 109.858 105.638H109.935V107H112.517V100.378C112.517 98.0384 110.536 97.054 108.349 97.054C105.997 97.054 104.45 98.179 104.073 99.9688L106.592 100.173C106.777 99.5213 107.359 99.0419 108.337 99.0419C109.263 99.0419 109.794 99.5085 109.794 100.314V100.352C109.794 100.985 109.123 101.068 107.416 101.234C105.473 101.413 103.728 102.065 103.728 104.258C103.728 106.201 105.115 107.185 106.988 107.185ZM107.768 105.306C106.93 105.306 106.33 104.916 106.33 104.168C106.33 103.401 106.962 103.024 107.921 102.89C108.516 102.807 109.487 102.666 109.813 102.449V103.491C109.813 104.52 108.963 105.306 107.768 105.306ZM114.63 107H117.353V101.445C117.353 100.237 118.235 99.4062 119.436 99.4062C119.814 99.4062 120.331 99.4702 120.587 99.5533V97.1371C120.344 97.0795 120.005 97.0412 119.73 97.0412C118.631 97.0412 117.73 97.6804 117.372 98.8949H117.27V97.1818H114.63V107ZM127.832 97.1818H125.985V94.8295H123.262V97.1818H121.92V99.2273H123.262V104.341C123.249 106.265 124.56 107.217 126.535 107.134C127.238 107.109 127.737 106.968 128.011 106.879L127.583 104.852C127.449 104.878 127.161 104.942 126.906 104.942C126.362 104.942 125.985 104.737 125.985 103.983V99.2273H127.832V97.1818ZM133.975 107.192C136.404 107.192 138.04 106.009 138.424 104.188L135.906 104.021C135.631 104.769 134.928 105.159 134.02 105.159C132.658 105.159 131.795 104.258 131.795 102.794V102.788H138.482V102.04C138.482 98.7031 136.462 97.054 133.866 97.054C130.977 97.054 129.104 99.1058 129.104 102.136C129.104 105.249 130.952 107.192 133.975 107.192ZM131.795 101.1C131.853 99.9815 132.703 99.0866 133.911 99.0866C135.094 99.0866 135.912 99.9304 135.918 101.1H131.795ZM143.876 107.16C145.462 107.16 146.286 106.246 146.663 105.428H146.778V107H149.463V93.9091H146.746V98.831H146.663C146.299 98.032 145.513 97.054 143.87 97.054C141.716 97.054 139.894 98.7287 139.894 102.104C139.894 105.389 141.639 107.16 143.876 107.16ZM144.739 104.993C143.403 104.993 142.675 103.804 142.675 102.091C142.675 100.391 143.391 99.2209 144.739 99.2209C146.062 99.2209 146.804 100.339 146.804 102.091C146.804 103.842 146.05 104.993 144.739 104.993Z" fill="white"/>
<rect x="280" y="80" width="200" height="40" rx="4" fill="#DCDCDC"/>
<path d="M340.203 98.1406H343.015C342.657 95.5518 340.376 93.7301 337.416 93.7301C333.958 93.7301 331.292 96.223 331.292 100.467C331.292 104.609 333.785 107.179 337.474 107.179C340.778 107.179 343.137 105.089 343.137 101.643V99.9943H337.659V102.078H340.471C340.433 103.702 339.327 104.731 337.486 104.731C335.409 104.731 334.099 103.178 334.099 100.442C334.099 97.7188 335.46 96.1783 337.461 96.1783C338.886 96.1783 339.851 96.9134 340.203 98.1406ZM349.639 107.192C352.068 107.192 353.705 106.009 354.088 104.188L351.57 104.021C351.295 104.769 350.592 105.159 349.684 105.159C348.322 105.159 347.46 104.258 347.46 102.794V102.788H354.146V102.04C354.146 98.7031 352.126 97.054 349.531 97.054C346.641 97.054 344.768 99.1058 344.768 102.136C344.768 105.249 346.616 107.192 349.639 107.192ZM347.46 101.1C347.517 99.9815 348.367 99.0866 349.575 99.0866C350.758 99.0866 351.576 99.9304 351.582 101.1H347.46ZM361.145 97.1818H359.298V94.8295H356.575V97.1818H355.232V99.2273H356.575V104.341C356.562 106.265 357.872 107.217 359.847 107.134C360.55 107.109 361.049 106.968 361.324 106.879L360.896 104.852C360.761 104.878 360.474 104.942 360.218 104.942C359.675 104.942 359.298 104.737 359.298 103.983V99.2273H361.145V97.1818ZM375.254 99.9815C375.011 98.1726 373.553 97.054 371.073 97.054C368.561 97.054 366.906 98.2173 366.912 100.109C366.906 101.58 367.833 102.532 369.75 102.915L371.45 103.254C372.307 103.427 372.697 103.74 372.71 104.232C372.697 104.814 372.064 105.229 371.112 105.229C370.14 105.229 369.494 104.814 369.328 104.015L366.65 104.156C366.906 106.035 368.504 107.192 371.105 107.192C373.649 107.192 375.471 105.894 375.477 103.957C375.471 102.538 374.544 101.688 372.639 101.298L370.862 100.94C369.948 100.742 369.61 100.429 369.616 99.956C369.61 99.3679 370.274 98.9844 371.118 98.9844C372.064 98.9844 372.627 99.5021 372.761 100.135L375.254 99.9815ZM382.414 97.1818H380.567V94.8295H377.844V97.1818H376.502V99.2273H377.844V104.341C377.831 106.265 379.142 107.217 381.117 107.134C381.82 107.109 382.319 106.968 382.593 106.879L382.165 104.852C382.031 104.878 381.743 104.942 381.488 104.942C380.944 104.942 380.567 104.737 380.567 103.983V99.2273H382.414V97.1818ZM386.988 107.185C388.439 107.185 389.379 106.553 389.858 105.638H389.935V107H392.517V100.378C392.517 98.0384 390.536 97.054 388.349 97.054C385.997 97.054 384.45 98.179 384.073 99.9688L386.592 100.173C386.777 99.5213 387.359 99.0419 388.337 99.0419C389.263 99.0419 389.794 99.5085 389.794 100.314V100.352C389.794 100.985 389.123 101.068 387.416 101.234C385.473 101.413 383.728 102.065 383.728 104.258C383.728 106.201 385.115 107.185 386.988 107.185ZM387.768 105.306C386.93 105.306 386.33 104.916 386.33 104.168C386.33 103.401 386.962 103.024 387.921 102.89C388.516 102.807 389.487 102.666 389.813 102.449V103.491C389.813 104.52 388.963 105.306 387.768 105.306ZM394.63 107H397.353V101.445C397.353 100.237 398.235 99.4062 399.436 99.4062C399.814 99.4062 400.331 99.4702 400.587 99.5533V97.1371C400.344 97.0795 400.005 97.0412 399.73 97.0412C398.631 97.0412 397.73 97.6804 397.372 98.8949H397.27V97.1818H394.63V107ZM407.832 97.1818H405.985V94.8295H403.262V97.1818H401.92V99.2273H403.262V104.341C403.249 106.265 404.56 107.217 406.535 107.134C407.238 107.109 407.737 106.968 408.011 106.879L407.583 104.852C407.449 104.878 407.161 104.942 406.906 104.942C406.362 104.942 405.985 104.737 405.985 103.983V99.2273H407.832V97.1818ZM413.975 107.192C416.404 107.192 418.04 106.009 418.424 104.188L415.906 104.021C415.631 104.769 414.928 105.159 414.02 105.159C412.658 105.159 411.795 104.258 411.795 102.794V102.788H418.482V102.04C418.482 98.7031 416.462 97.054 413.866 97.054C410.977 97.054 409.104 99.1058 409.104 102.136C409.104 105.249 410.952 107.192 413.975 107.192ZM411.795 101.1C411.853 99.9815 412.703 99.0866 413.911 99.0866C415.094 99.0866 415.912 99.9304 415.918 101.1H411.795ZM423.876 107.16C425.462 107.16 426.286 106.246 426.663 105.428H426.778V107H429.463V93.9091H426.746V98.831H426.663C426.299 98.032 425.513 97.054 423.87 97.054C421.716 97.054 419.894 98.7287 419.894 102.104C419.894 105.389 421.639 107.16 423.876 107.16ZM424.739 104.993C423.403 104.993 422.675 103.804 422.675 102.091C422.675 100.391 423.391 99.2209 424.739 99.2209C426.062 99.2209 426.804 100.339 426.804 102.091C426.804 103.842 426.05 104.993 424.739 104.993Z" fill="white"/>
<path d="M67.6706 152L68.5485 149.528H72.0769L72.9547 152H74.0627L70.8581 143.273H69.7672L66.5627 152H67.6706ZM68.8809 148.591L70.2786 144.653H70.3468L71.7445 148.591H68.8809ZM77.9448 152.136C79.3936 152.136 80.3482 151.25 80.5186 150.091H79.513C79.3255 150.807 78.7289 151.233 77.9448 151.233C76.7516 151.233 75.9846 150.244 75.9846 148.727C75.9846 147.244 76.7686 146.273 77.9448 146.273C78.8311 146.273 79.3596 146.818 79.513 147.415H80.5186C80.3482 146.188 79.3084 145.369 77.9277 145.369C76.155 145.369 74.9789 146.767 74.9789 148.761C74.9789 150.722 76.1039 152.136 77.9448 152.136ZM84.8354 145.455H83.4377V143.886H82.432V145.455H81.4434V146.307H82.432V150.398C82.432 151.54 83.3525 152.085 84.2047 152.085C84.5797 152.085 84.8184 152.017 84.9547 151.966L84.7502 151.062C84.665 151.08 84.5286 151.114 84.307 151.114C83.8638 151.114 83.4377 150.977 83.4377 150.125V146.307H84.8354V145.455ZM86.3482 152H87.3539V145.455H86.3482V152ZM86.8596 144.364C87.2516 144.364 87.5755 144.057 87.5755 143.682C87.5755 143.307 87.2516 143 86.8596 143C86.4675 143 86.1436 143.307 86.1436 143.682C86.1436 144.057 86.4675 144.364 86.8596 144.364ZM94.5481 145.455H93.4572L91.6504 150.67H91.5822L89.7754 145.455H88.6845L91.1049 152H92.1277L94.5481 145.455ZM98.3855 152.136C99.715 152.136 100.687 151.472 100.993 150.483L100.022 150.21C99.7662 150.892 99.1738 151.233 98.3855 151.233C97.2051 151.233 96.3912 150.47 96.3443 149.068H101.096V148.642C101.096 146.205 99.6468 145.369 98.2832 145.369C96.5105 145.369 95.3343 146.767 95.3343 148.778C95.3343 150.79 96.4934 152.136 98.3855 152.136ZM96.3443 148.199C96.4125 147.18 97.1326 146.273 98.2832 146.273C99.3741 146.273 100.073 147.091 100.073 148.199H96.3443ZM110.637 146.92C110.322 145.991 109.614 145.369 108.319 145.369C106.938 145.369 105.915 146.153 105.915 147.261C105.915 148.165 106.452 148.77 107.654 149.051L108.745 149.307C109.405 149.46 109.716 149.776 109.716 150.227C109.716 150.79 109.12 151.25 108.182 151.25C107.36 151.25 106.844 150.896 106.665 150.193L105.711 150.432C105.945 151.544 106.861 152.136 108.199 152.136C109.721 152.136 110.756 151.305 110.756 150.176C110.756 149.264 110.185 148.689 109.018 148.403L108.046 148.165C107.27 147.973 106.921 147.713 106.921 147.21C106.921 146.648 107.518 146.239 108.319 146.239C109.197 146.239 109.559 146.724 109.733 147.176L110.637 146.92ZM115.117 145.455H113.719V143.886H112.713V145.455H111.725V146.307H112.713V150.398C112.713 151.54 113.634 152.085 114.486 152.085C114.861 152.085 115.1 152.017 115.236 151.966L115.031 151.062C114.946 151.08 114.81 151.114 114.588 151.114C114.145 151.114 113.719 150.977 113.719 150.125V146.307H115.117V145.455ZM118.556 152.153C119.698 152.153 120.294 151.54 120.499 151.114H120.55V152H121.556V147.688C121.556 145.608 119.97 145.369 119.135 145.369C118.146 145.369 117.021 145.71 116.51 146.903L117.465 147.244C117.686 146.767 118.21 146.256 119.169 146.256C120.094 146.256 120.55 146.746 120.55 147.585V147.619C120.55 148.105 120.056 148.062 118.862 148.216C117.648 148.374 116.323 148.642 116.323 150.142C116.323 151.42 117.311 152.153 118.556 152.153ZM118.709 151.25C117.908 151.25 117.328 150.892 117.328 150.193C117.328 149.426 118.027 149.188 118.811 149.085C119.237 149.034 120.379 148.915 120.55 148.71V149.631C120.55 150.449 119.902 151.25 118.709 151.25ZM126.238 145.455H124.84V143.886H123.834V145.455H122.846V146.307H123.834V150.398C123.834 151.54 124.755 152.085 125.607 152.085C125.982 152.085 126.221 152.017 126.357 151.966L126.153 151.062C126.067 151.08 125.931 151.114 125.709 151.114C125.266 151.114 124.84 150.977 124.84 150.125V146.307H126.238V145.455ZM130.425 152.136C131.754 152.136 132.726 151.472 133.032 150.483L132.061 150.21C131.805 150.892 131.213 151.233 130.425 151.233C129.244 151.233 128.43 150.47 128.383 149.068H133.135V148.642C133.135 146.205 131.686 145.369 130.322 145.369C128.55 145.369 127.373 146.767 127.373 148.778C127.373 150.79 128.532 152.136 130.425 152.136ZM128.383 148.199C128.452 147.18 129.172 146.273 130.322 146.273C131.413 146.273 132.112 147.091 132.112 148.199H128.383Z" fill="#959595"/>
<path d="M344.109 152C346.768 152 348.268 150.347 348.268 147.619C348.268 144.909 346.768 143.273 344.229 143.273H341.416V152H344.109ZM342.473 151.062V144.21H344.161C346.206 144.21 347.246 145.506 347.246 147.619C347.246 149.75 346.206 151.062 344.041 151.062H342.473ZM349.905 152H350.911V145.455H349.905V152ZM350.416 144.364C350.808 144.364 351.132 144.057 351.132 143.682C351.132 143.307 350.808 143 350.416 143C350.024 143 349.7 143.307 349.7 143.682C349.7 144.057 350.024 144.364 350.416 144.364ZM357.389 146.92C357.074 145.991 356.366 145.369 355.071 145.369C353.69 145.369 352.667 146.153 352.667 147.261C352.667 148.165 353.204 148.77 354.406 149.051L355.497 149.307C356.157 149.46 356.468 149.776 356.468 150.227C356.468 150.79 355.872 151.25 354.934 151.25C354.112 151.25 353.596 150.896 353.417 150.193L352.463 150.432C352.697 151.544 353.613 152.136 354.951 152.136C356.473 152.136 357.508 151.305 357.508 150.176C357.508 149.264 356.937 148.689 355.77 148.403L354.798 148.165C354.022 147.973 353.673 147.713 353.673 147.21C353.673 146.648 354.27 146.239 355.071 146.239C355.949 146.239 356.311 146.724 356.485 147.176L357.389 146.92ZM360.948 152.153C362.09 152.153 362.687 151.54 362.891 151.114H362.942V152H363.948V147.688C363.948 145.608 362.363 145.369 361.528 145.369C360.539 145.369 359.414 145.71 358.903 146.903L359.857 147.244C360.079 146.767 360.603 146.256 361.562 146.256C362.487 146.256 362.942 146.746 362.942 147.585V147.619C362.942 148.105 362.448 148.062 361.255 148.216C360.04 148.374 358.715 148.642 358.715 150.142C358.715 151.42 359.704 152.153 360.948 152.153ZM361.102 151.25C360.3 151.25 359.721 150.892 359.721 150.193C359.721 149.426 360.42 149.188 361.204 149.085C361.63 149.034 362.772 148.915 362.942 148.71V149.631C362.942 150.449 362.295 151.25 361.102 151.25ZM365.92 152H366.892V150.994H367.011C367.233 151.352 367.659 152.136 368.92 152.136C370.556 152.136 371.699 150.824 371.699 148.744C371.699 146.682 370.556 145.369 368.903 145.369C367.625 145.369 367.233 146.153 367.011 146.494H366.926V143.273H365.92V152ZM366.909 148.727C366.909 147.261 367.556 146.273 368.784 146.273C370.062 146.273 370.693 147.347 370.693 148.727C370.693 150.125 370.045 151.233 368.784 151.233C367.574 151.233 366.909 150.21 366.909 148.727ZM374.243 143.273H373.237V152H374.243V143.273ZM378.829 152.136C380.158 152.136 381.13 151.472 381.437 150.483L380.465 150.21C380.21 150.892 379.617 151.233 378.829 151.233C377.648 151.233 376.835 150.47 376.788 149.068H381.539V148.642C381.539 146.205 380.09 145.369 378.727 145.369C376.954 145.369 375.778 146.767 375.778 148.778C375.778 150.79 376.937 152.136 378.829 152.136ZM376.788 148.199C376.856 147.18 377.576 146.273 378.727 146.273C379.817 146.273 380.516 147.091 380.516 148.199H376.788ZM385.54 152.136C386.802 152.136 387.228 151.352 387.45 150.994H387.569V152H388.54V143.273H387.535V146.494H387.45C387.228 146.153 386.836 145.369 385.558 145.369C383.904 145.369 382.762 146.682 382.762 148.744C382.762 150.824 383.904 152.136 385.54 152.136ZM385.677 151.233C384.415 151.233 383.768 150.125 383.768 148.727C383.768 147.347 384.398 146.273 385.677 146.273C386.904 146.273 387.552 147.261 387.552 148.727C387.552 150.21 386.887 151.233 385.677 151.233ZM398.533 146.92C398.218 145.991 397.511 145.369 396.215 145.369C394.835 145.369 393.812 146.153 393.812 147.261C393.812 148.165 394.349 148.77 395.55 149.051L396.641 149.307C397.302 149.46 397.613 149.776 397.613 150.227C397.613 150.79 397.016 151.25 396.079 151.25C395.256 151.25 394.741 150.896 394.562 150.193L393.607 150.432C393.842 151.544 394.758 152.136 396.096 152.136C397.617 152.136 398.653 151.305 398.653 150.176C398.653 149.264 398.082 148.689 396.914 148.403L395.942 148.165C395.167 147.973 394.817 147.713 394.817 147.21C394.817 146.648 395.414 146.239 396.215 146.239C397.093 146.239 397.455 146.724 397.63 147.176L398.533 146.92ZM403.013 145.455H401.615V143.886H400.61V145.455H399.621V146.307H400.61V150.398C400.61 151.54 401.53 152.085 402.382 152.085C402.757 152.085 402.996 152.017 403.132 151.966L402.928 151.062C402.843 151.08 402.706 151.114 402.485 151.114C402.042 151.114 401.615 150.977 401.615 150.125V146.307H403.013V145.455ZM406.452 152.153C407.594 152.153 408.191 151.54 408.395 151.114H408.446V152H409.452V147.688C409.452 145.608 407.867 145.369 407.032 145.369C406.043 145.369 404.918 145.71 404.407 146.903L405.361 147.244C405.583 146.767 406.107 146.256 407.066 146.256C407.99 146.256 408.446 146.746 408.446 147.585V147.619C408.446 148.105 407.952 148.062 406.759 148.216C405.544 148.374 404.219 148.642 404.219 150.142C404.219 151.42 405.208 152.153 406.452 152.153ZM406.605 151.25C405.804 151.25 405.225 150.892 405.225 150.193C405.225 149.426 405.924 149.188 406.708 149.085C407.134 149.034 408.276 148.915 408.446 148.71V149.631C408.446 150.449 407.799 151.25 406.605 151.25ZM414.134 145.455H412.737V143.886H411.731V145.455H410.742V146.307H411.731V150.398C411.731 151.54 412.651 152.085 413.504 152.085C413.879 152.085 414.117 152.017 414.254 151.966L414.049 151.062C413.964 151.08 413.827 151.114 413.606 151.114C413.163 151.114 412.737 150.977 412.737 150.125V146.307H414.134V145.455ZM418.321 152.136C419.651 152.136 420.622 151.472 420.929 150.483L419.957 150.21C419.702 150.892 419.109 151.233 418.321 151.233C417.141 151.233 416.327 150.47 416.28 149.068H421.031V148.642C421.031 146.205 419.582 145.369 418.219 145.369C416.446 145.369 415.27 146.767 415.27 148.778C415.27 150.79 416.429 152.136 418.321 152.136ZM416.28 148.199C416.348 147.18 417.068 146.273 418.219 146.273C419.31 146.273 420.009 147.091 420.009 148.199H416.28Z" fill="#959595"/>
</svg>
