<svg width="480" height="200" viewBox="0 0 480 200" fill="none" xmlns="http://www.w3.org/2000/svg">
<rect width="480" height="200" fill="white"/>
<rect y="80" width="200" height="40" rx="4" fill="#DCDCDC"/>
<path d="M60.2029 98.1406H63.0154C62.6575 95.5518 60.3755 93.7301 57.416 93.7301C53.9579 93.7301 51.2924 96.223 51.2924 100.467C51.2924 104.609 53.7853 107.179 57.4735 107.179C60.7782 107.179 63.1369 105.089 63.1369 101.643V99.9943H57.6589V102.078H60.4714C60.4331 103.702 59.3272 104.731 57.4863 104.731C55.4089 104.731 54.0985 103.178 54.0985 100.442C54.0985 97.7188 55.4601 96.1783 57.4608 96.1783C58.8862 96.1783 59.8514 96.9134 60.2029 98.1406ZM69.6392 107.192C72.0682 107.192 73.7045 106.009 74.0881 104.188L71.5696 104.021C71.2947 104.769 70.5916 105.159 69.6839 105.159C68.3224 105.159 67.4595 104.258 67.4595 102.794V102.788H74.1456V102.04C74.1456 98.7031 72.1257 97.054 69.5305 97.054C66.6413 97.054 64.7685 99.1058 64.7685 102.136C64.7685 105.249 66.6158 107.192 69.6392 107.192ZM67.4595 101.1C67.517 99.9815 68.3672 99.0866 69.5753 99.0866C70.7578 99.0866 71.576 99.9304 71.5824 101.1H67.4595ZM81.1449 97.1818H79.2976V94.8295H76.5746V97.1818H75.2322V99.2273H76.5746V104.341C76.5618 106.265 77.8722 107.217 79.8473 107.134C80.5504 107.109 81.049 106.968 81.3239 106.879L80.8956 104.852C80.7614 104.878 80.4737 104.942 80.218 104.942C79.6747 104.942 79.2976 104.737 79.2976 103.983V99.2273H81.1449V97.1818ZM95.2537 99.9815C95.0108 98.1726 93.5534 97.054 91.0733 97.054C88.5613 97.054 86.9057 98.2173 86.9121 100.109C86.9057 101.58 87.8326 102.532 89.7502 102.915L91.4505 103.254C92.307 103.427 92.6969 103.74 92.7097 104.232C92.6969 104.814 92.0641 105.229 91.1117 105.229C90.1401 105.229 89.4945 104.814 89.3283 104.015L86.65 104.156C86.9057 106.035 88.5037 107.192 91.1053 107.192C93.6493 107.192 95.4711 105.894 95.4775 103.957C95.4711 102.538 94.5442 101.688 92.6394 101.298L90.8624 100.94C89.9483 100.742 89.6096 100.429 89.6159 99.956C89.6096 99.3679 90.2743 98.9844 91.1181 98.9844C92.0641 98.9844 92.6266 99.5021 92.7608 100.135L95.2537 99.9815ZM102.414 97.1818H100.567V94.8295H97.8441V97.1818H96.5018V99.2273H97.8441V104.341C97.8313 106.265 99.1417 107.217 101.117 107.134C101.82 107.109 102.319 106.968 102.593 106.879L102.165 104.852C102.031 104.878 101.743 104.942 101.488 104.942C100.944 104.942 100.567 104.737 100.567 103.983V99.2273H102.414V97.1818ZM106.988 107.185C108.439 107.185 109.379 106.553 109.858 105.638H109.935V107H112.517V100.378C112.517 98.0384 110.536 97.054 108.349 97.054C105.997 97.054 104.45 98.179 104.073 99.9688L106.592 100.173C106.777 99.5213 107.359 99.0419 108.337 99.0419C109.263 99.0419 109.794 99.5085 109.794 100.314V100.352C109.794 100.985 109.123 101.068 107.416 101.234C105.473 101.413 103.728 102.065 103.728 104.258C103.728 106.201 105.115 107.185 106.988 107.185ZM107.768 105.306C106.93 105.306 106.33 104.916 106.33 104.168C106.33 103.401 106.962 103.024 107.921 102.89C108.516 102.807 109.487 102.666 109.813 102.449V103.491C109.813 104.52 108.963 105.306 107.768 105.306ZM114.63 107H117.353V101.445C117.353 100.237 118.235 99.4062 119.436 99.4062C119.814 99.4062 120.331 99.4702 120.587 99.5533V97.1371C120.344 97.0795 120.005 97.0412 119.73 97.0412C118.631 97.0412 117.73 97.6804 117.372 98.8949H117.27V97.1818H114.63V107ZM127.832 97.1818H125.985V94.8295H123.262V97.1818H121.92V99.2273H123.262V104.341C123.249 106.265 124.56 107.217 126.535 107.134C127.238 107.109 127.737 106.968 128.011 106.879L127.583 104.852C127.449 104.878 127.161 104.942 126.906 104.942C126.362 104.942 125.985 104.737 125.985 103.983V99.2273H127.832V97.1818ZM133.975 107.192C136.404 107.192 138.04 106.009 138.424 104.188L135.906 104.021C135.631 104.769 134.928 105.159 134.02 105.159C132.658 105.159 131.795 104.258 131.795 102.794V102.788H138.482V102.04C138.482 98.7031 136.462 97.054 133.866 97.054C130.977 97.054 129.104 99.1058 129.104 102.136C129.104 105.249 130.952 107.192 133.975 107.192ZM131.795 101.1C131.853 99.9815 132.703 99.0866 133.911 99.0866C135.094 99.0866 135.912 99.9304 135.918 101.1H131.795ZM143.876 107.16C145.462 107.16 146.286 106.246 146.663 105.428H146.778V107H149.463V93.9091H146.746V98.831H146.663C146.299 98.032 145.513 97.054 143.87 97.054C141.716 97.054 139.894 98.7287 139.894 102.104C139.894 105.389 141.639 107.16 143.876 107.16ZM144.739 104.993C143.403 104.993 142.675 103.804 142.675 102.091C142.675 100.391 143.391 99.2209 144.739 99.2209C146.062 99.2209 146.804 100.339 146.804 102.091C146.804 103.842 146.05 104.993 144.739 104.993Z" fill="#7D7D7D"/>
<path d="M50.3848 101.107H150.607V102.826H50.3848V101.107Z" fill="#7D7D7D"/>
<g clip-path="url(#clip0)">
<rect x="280" y="80" width="200" height="40" rx="4" fill="#DCDCDC"/>
<g opacity="0.2">
<line x1="344.233" y1="-162.424" x2="120.511" y2="157.084" stroke="#838383" stroke-width="2"/>
<line x1="360.616" y1="-150.953" x2="136.894" y2="168.556" stroke="#838383" stroke-width="2"/>
<line x1="376.999" y1="-139.481" x2="153.277" y2="180.027" stroke="#838383" stroke-width="2"/>
<line x1="393.382" y1="-128.01" x2="169.66" y2="191.499" stroke="#838383" stroke-width="2"/>
<line x1="409.765" y1="-116.538" x2="186.043" y2="202.97" stroke="#838383" stroke-width="2"/>
<line x1="426.148" y1="-105.067" x2="202.426" y2="214.442" stroke="#838383" stroke-width="2"/>
<line x1="442.531" y1="-93.5951" x2="218.809" y2="225.913" stroke="#838383" stroke-width="2"/>
<line x1="458.914" y1="-82.1236" x2="235.192" y2="237.385" stroke="#838383" stroke-width="2"/>
<line x1="475.297" y1="-70.6521" x2="251.575" y2="248.856" stroke="#838383" stroke-width="2"/>
<line x1="491.68" y1="-59.1806" x2="267.958" y2="260.328" stroke="#838383" stroke-width="2"/>
<line x1="508.063" y1="-47.709" x2="284.341" y2="271.799" stroke="#838383" stroke-width="2"/>
<line x1="524.446" y1="-36.2375" x2="300.724" y2="283.271" stroke="#838383" stroke-width="2"/>
<line x1="540.829" y1="-24.766" x2="317.107" y2="294.742" stroke="#838383" stroke-width="2"/>
<line x1="557.212" y1="-13.2944" x2="333.49" y2="306.214" stroke="#838383" stroke-width="2"/>
<line x1="573.595" y1="-1.82291" x2="349.873" y2="317.685" stroke="#838383" stroke-width="2"/>
<line x1="589.978" y1="9.64865" x2="366.256" y2="329.157" stroke="#838383" stroke-width="2"/>
<line x1="606.361" y1="21.1201" x2="382.639" y2="340.628" stroke="#838383" stroke-width="2"/>
<line x1="622.745" y1="32.5916" x2="399.022" y2="352.1" stroke="#838383" stroke-width="2"/>
<line x1="639.128" y1="44.0632" x2="415.405" y2="363.571" stroke="#838383" stroke-width="2"/>
</g>
<path d="M340.203 98.1406H343.015C342.657 95.5518 340.376 93.7301 337.416 93.7301C333.958 93.7301 331.292 96.223 331.292 100.467C331.292 104.609 333.785 107.179 337.474 107.179C340.778 107.179 343.137 105.089 343.137 101.643V99.9943H337.659V102.078H340.471C340.433 103.702 339.327 104.731 337.486 104.731C335.409 104.731 334.099 103.178 334.099 100.442C334.099 97.7188 335.46 96.1783 337.461 96.1783C338.886 96.1783 339.851 96.9134 340.203 98.1406ZM349.639 107.192C352.068 107.192 353.705 106.009 354.088 104.188L351.57 104.021C351.295 104.769 350.592 105.159 349.684 105.159C348.322 105.159 347.46 104.258 347.46 102.794V102.788H354.146V102.04C354.146 98.7031 352.126 97.054 349.531 97.054C346.641 97.054 344.768 99.1058 344.768 102.136C344.768 105.249 346.616 107.192 349.639 107.192ZM347.46 101.1C347.517 99.9815 348.367 99.0866 349.575 99.0866C350.758 99.0866 351.576 99.9304 351.582 101.1H347.46ZM361.145 97.1818H359.298V94.8295H356.575V97.1818H355.232V99.2273H356.575V104.341C356.562 106.265 357.872 107.217 359.847 107.134C360.55 107.109 361.049 106.968 361.324 106.879L360.896 104.852C360.761 104.878 360.474 104.942 360.218 104.942C359.675 104.942 359.298 104.737 359.298 103.983V99.2273H361.145V97.1818ZM375.254 99.9815C375.011 98.1726 373.553 97.054 371.073 97.054C368.561 97.054 366.906 98.2173 366.912 100.109C366.906 101.58 367.833 102.532 369.75 102.915L371.45 103.254C372.307 103.427 372.697 103.74 372.71 104.232C372.697 104.814 372.064 105.229 371.112 105.229C370.14 105.229 369.494 104.814 369.328 104.015L366.65 104.156C366.906 106.035 368.504 107.192 371.105 107.192C373.649 107.192 375.471 105.894 375.477 103.957C375.471 102.538 374.544 101.688 372.639 101.298L370.862 100.94C369.948 100.742 369.61 100.429 369.616 99.956C369.61 99.3679 370.274 98.9844 371.118 98.9844C372.064 98.9844 372.627 99.5021 372.761 100.135L375.254 99.9815ZM382.414 97.1818H380.567V94.8295H377.844V97.1818H376.502V99.2273H377.844V104.341C377.831 106.265 379.142 107.217 381.117 107.134C381.82 107.109 382.319 106.968 382.593 106.879L382.165 104.852C382.031 104.878 381.743 104.942 381.488 104.942C380.944 104.942 380.567 104.737 380.567 103.983V99.2273H382.414V97.1818ZM386.988 107.185C388.439 107.185 389.379 106.553 389.858 105.638H389.935V107H392.517V100.378C392.517 98.0384 390.536 97.054 388.349 97.054C385.997 97.054 384.45 98.179 384.073 99.9688L386.592 100.173C386.777 99.5213 387.359 99.0419 388.337 99.0419C389.263 99.0419 389.794 99.5085 389.794 100.314V100.352C389.794 100.985 389.123 101.068 387.416 101.234C385.473 101.413 383.728 102.065 383.728 104.258C383.728 106.201 385.115 107.185 386.988 107.185ZM387.768 105.306C386.93 105.306 386.33 104.916 386.33 104.168C386.33 103.401 386.962 103.024 387.921 102.89C388.516 102.807 389.487 102.666 389.813 102.449V103.491C389.813 104.52 388.963 105.306 387.768 105.306ZM394.63 107H397.353V101.445C397.353 100.237 398.235 99.4062 399.436 99.4062C399.814 99.4062 400.331 99.4702 400.587 99.5533V97.1371C400.344 97.0795 400.005 97.0412 399.73 97.0412C398.631 97.0412 397.73 97.6804 397.372 98.8949H397.27V97.1818H394.63V107ZM407.832 97.1818H405.985V94.8295H403.262V97.1818H401.92V99.2273H403.262V104.341C403.249 106.265 404.56 107.217 406.535 107.134C407.238 107.109 407.737 106.968 408.011 106.879L407.583 104.852C407.449 104.878 407.161 104.942 406.906 104.942C406.362 104.942 405.985 104.737 405.985 103.983V99.2273H407.832V97.1818ZM413.975 107.192C416.404 107.192 418.04 106.009 418.424 104.188L415.906 104.021C415.631 104.769 414.928 105.159 414.02 105.159C412.658 105.159 411.795 104.258 411.795 102.794V102.788H418.482V102.04C418.482 98.7031 416.462 97.054 413.866 97.054C410.977 97.054 409.104 99.1058 409.104 102.136C409.104 105.249 410.952 107.192 413.975 107.192ZM411.795 101.1C411.853 99.9815 412.703 99.0866 413.911 99.0866C415.094 99.0866 415.912 99.9304 415.918 101.1H411.795ZM423.876 107.16C425.462 107.16 426.286 106.246 426.663 105.428H426.778V107H429.463V93.9091H426.746V98.831H426.663C426.299 98.032 425.513 97.054 423.87 97.054C421.716 97.054 419.894 98.7287 419.894 102.104C419.894 105.389 421.639 107.16 423.876 107.16ZM424.739 104.993C423.403 104.993 422.675 103.804 422.675 102.091C422.675 100.391 423.391 99.2209 424.739 99.2209C426.062 99.2209 426.804 100.339 426.804 102.091C426.804 103.842 426.05 104.993 424.739 104.993Z" fill="#7D7D7D"/>
</g>
<path d="M67.1214 143.273H66.1158V152H67.1214V143.273ZM68.9634 152H69.9691V145.455H68.9634V152ZM69.4748 144.364C69.8668 144.364 70.1907 144.057 70.1907 143.682C70.1907 143.307 69.8668 143 69.4748 143C69.0827 143 68.7589 143.307 68.7589 143.682C68.7589 144.057 69.0827 144.364 69.4748 144.364ZM72.8168 148.062C72.8168 146.92 73.5241 146.273 74.4872 146.273C75.4205 146.273 75.9872 146.882 75.9872 147.909V152H76.9929V147.841C76.9929 146.17 76.1023 145.369 74.777 145.369C73.7884 145.369 73.1747 145.812 72.8679 146.477H72.7827V145.455H71.8111V152H72.8168V148.062ZM81.5749 152.136C82.9045 152.136 83.8761 151.472 84.1829 150.483L83.2113 150.21C82.9556 150.892 82.3633 151.233 81.5749 151.233C80.3945 151.233 79.5806 150.47 79.5337 149.068H84.2852V148.642C84.2852 146.205 82.8363 145.369 81.4727 145.369C79.6999 145.369 78.5238 146.767 78.5238 148.778C78.5238 150.79 79.6829 152.136 81.5749 152.136ZM79.5337 148.199C79.6019 147.18 80.3221 146.273 81.4727 146.273C82.5636 146.273 83.2624 147.091 83.2624 148.199H79.5337ZM89.565 147.79H85.7468V148.727H89.565V147.79ZM94.1811 145.455H92.7834V143.886H91.7777V145.455H90.7891V146.307H91.7777V150.398C91.7777 151.54 92.6982 152.085 93.5504 152.085C93.9254 152.085 94.1641 152.017 94.3004 151.966L94.0959 151.062C94.0107 151.08 93.8743 151.114 93.6527 151.114C93.2095 151.114 92.7834 150.977 92.7834 150.125V146.307H94.1811V145.455ZM96.8402 148.062C96.8402 146.92 97.5689 146.273 98.5618 146.273C99.5078 146.273 100.079 146.869 100.079 147.909V152H101.085V147.841C101.085 146.158 100.19 145.369 98.8516 145.369C97.8203 145.369 97.2322 145.8 96.9254 146.477H96.8402V143.273H95.8345V152H96.8402V148.062ZM102.924 152H103.93V147.858C103.93 146.972 104.629 146.324 105.583 146.324C105.852 146.324 106.129 146.375 106.197 146.392V145.369C106.082 145.361 105.818 145.352 105.669 145.352C104.885 145.352 104.203 145.795 103.964 146.443H103.896V145.455H102.924V152ZM109.849 152.136C111.622 152.136 112.815 150.79 112.815 148.761C112.815 146.716 111.622 145.369 109.849 145.369C108.076 145.369 106.883 146.716 106.883 148.761C106.883 150.79 108.076 152.136 109.849 152.136ZM109.849 151.233C108.502 151.233 107.889 150.074 107.889 148.761C107.889 147.449 108.502 146.273 109.849 146.273C111.196 146.273 111.809 147.449 111.809 148.761C111.809 150.074 111.196 151.233 109.849 151.233ZM118.475 149.324C118.475 150.551 117.538 151.114 116.788 151.114C115.952 151.114 115.356 150.5 115.356 149.545V145.455H114.35V149.614C114.35 151.284 115.237 152.085 116.464 152.085C117.452 152.085 118.1 151.557 118.407 150.892H118.475V152H119.481V145.455H118.475V149.324ZM123.965 154.591C125.533 154.591 126.794 153.875 126.794 152.188V145.455H125.823V146.494H125.721C125.499 146.153 125.09 145.369 123.811 145.369C122.158 145.369 121.016 146.682 121.016 148.693C121.016 150.739 122.209 151.898 123.794 151.898C125.073 151.898 125.482 151.148 125.703 150.79H125.789V152.119C125.789 153.21 125.022 153.705 123.965 153.705C122.776 153.705 122.358 153.078 122.09 152.716L121.289 153.278C121.698 153.964 122.503 154.591 123.965 154.591ZM123.931 150.994C122.669 150.994 122.022 150.04 122.022 148.676C122.022 147.347 122.652 146.273 123.931 146.273C125.158 146.273 125.806 147.261 125.806 148.676C125.806 150.125 125.141 150.994 123.931 150.994ZM129.641 148.062C129.641 146.92 130.37 146.273 131.363 146.273C132.309 146.273 132.88 146.869 132.88 147.909V152H133.885V147.841C133.885 146.158 132.99 145.369 131.652 145.369C130.621 145.369 130.033 145.8 129.726 146.477H129.641V143.273H128.635V152H129.641V148.062Z" fill="#959595"/>
<path d="M345.638 152.136C346.9 152.136 347.326 151.352 347.547 150.994H347.667V152H348.638V143.273H347.632V146.494H347.547C347.326 146.153 346.934 145.369 345.655 145.369C344.002 145.369 342.86 146.682 342.86 148.744C342.86 150.824 344.002 152.136 345.638 152.136ZM345.775 151.233C344.513 151.233 343.865 150.125 343.865 148.727C343.865 147.347 344.496 146.273 345.775 146.273C347.002 146.273 347.65 147.261 347.65 148.727C347.65 150.21 346.985 151.233 345.775 151.233ZM350.62 152H351.625V145.455H350.62V152ZM351.131 144.364C351.523 144.364 351.847 144.057 351.847 143.682C351.847 143.307 351.523 143 351.131 143C350.739 143 350.415 143.307 350.415 143.682C350.415 144.057 350.739 144.364 351.131 144.364ZM355.393 152.153C356.536 152.153 357.132 151.54 357.337 151.114H357.388V152H358.393V147.688C358.393 145.608 356.808 145.369 355.973 145.369C354.984 145.369 353.859 145.71 353.348 146.903L354.303 147.244C354.524 146.767 355.048 146.256 356.007 146.256C356.932 146.256 357.388 146.746 357.388 147.585V147.619C357.388 148.105 356.893 148.062 355.7 148.216C354.486 148.374 353.161 148.642 353.161 150.142C353.161 151.42 354.149 152.153 355.393 152.153ZM355.547 151.25C354.746 151.25 354.166 150.892 354.166 150.193C354.166 149.426 354.865 149.188 355.649 149.085C356.075 149.034 357.217 148.915 357.388 148.71V149.631C357.388 150.449 356.74 151.25 355.547 151.25ZM362.871 154.591C364.439 154.591 365.701 153.875 365.701 152.188V145.455H364.729V146.494H364.627C364.405 146.153 363.996 145.369 362.718 145.369C361.064 145.369 359.922 146.682 359.922 148.693C359.922 150.739 361.115 151.898 362.701 151.898C363.979 151.898 364.388 151.148 364.61 150.79H364.695V152.119C364.695 153.21 363.928 153.705 362.871 153.705C361.682 153.705 361.265 153.078 360.996 152.716L360.195 153.278C360.604 153.964 361.409 154.591 362.871 154.591ZM362.837 150.994C361.576 150.994 360.928 150.04 360.928 148.676C360.928 147.347 361.559 146.273 362.837 146.273C364.064 146.273 364.712 147.261 364.712 148.676C364.712 150.125 364.047 150.994 362.837 150.994ZM370.201 152.136C371.973 152.136 373.167 150.79 373.167 148.761C373.167 146.716 371.973 145.369 370.201 145.369C368.428 145.369 367.235 146.716 367.235 148.761C367.235 150.79 368.428 152.136 370.201 152.136ZM370.201 151.233C368.854 151.233 368.24 150.074 368.24 148.761C368.24 147.449 368.854 146.273 370.201 146.273C371.547 146.273 372.161 147.449 372.161 148.761C372.161 150.074 371.547 151.233 370.201 151.233ZM375.707 148.062C375.707 146.92 376.415 146.273 377.378 146.273C378.311 146.273 378.878 146.882 378.878 147.909V152H379.884V147.841C379.884 146.17 378.993 145.369 377.668 145.369C376.679 145.369 376.065 145.812 375.759 146.477H375.673V145.455H374.702V152H375.707V148.062ZM383.647 152.153C384.789 152.153 385.386 151.54 385.591 151.114H385.642V152H386.647V147.688C386.647 145.608 385.062 145.369 384.227 145.369C383.238 145.369 382.113 145.71 381.602 146.903L382.556 147.244C382.778 146.767 383.302 146.256 384.261 146.256C385.186 146.256 385.642 146.746 385.642 147.585V147.619C385.642 148.105 385.147 148.062 383.954 148.216C382.74 148.374 381.414 148.642 381.414 150.142C381.414 151.42 382.403 152.153 383.647 152.153ZM383.801 151.25C383 151.25 382.42 150.892 382.42 150.193C382.42 149.426 383.119 149.188 383.903 149.085C384.329 149.034 385.471 148.915 385.642 148.71V149.631C385.642 150.449 384.994 151.25 383.801 151.25ZM389.489 143.273H388.483V152H389.489V143.273ZM395.711 143.273H394.706V152H395.711V143.273ZM397.553 152H398.559V145.455H397.553V152ZM398.065 144.364C398.457 144.364 398.781 144.057 398.781 143.682C398.781 143.307 398.457 143 398.065 143C397.673 143 397.349 143.307 397.349 143.682C397.349 144.057 397.673 144.364 398.065 144.364ZM401.407 148.062C401.407 146.92 402.114 146.273 403.077 146.273C404.01 146.273 404.577 146.882 404.577 147.909V152H405.583V147.841C405.583 146.17 404.692 145.369 403.367 145.369C402.378 145.369 401.765 145.812 401.458 146.477H401.373V145.455H400.401V152H401.407V148.062ZM410.165 152.136C411.494 152.136 412.466 151.472 412.773 150.483L411.801 150.21C411.545 150.892 410.953 151.233 410.165 151.233C408.984 151.233 408.17 150.47 408.124 149.068H412.875V148.642C412.875 146.205 411.426 145.369 410.062 145.369C408.29 145.369 407.114 146.767 407.114 148.778C407.114 150.79 408.273 152.136 410.165 152.136ZM408.124 148.199C408.192 147.18 408.912 146.273 410.062 146.273C411.153 146.273 411.852 147.091 411.852 148.199H408.124ZM419.041 146.92C418.726 145.991 418.018 145.369 416.723 145.369C415.342 145.369 414.32 146.153 414.32 147.261C414.32 148.165 414.857 148.77 416.058 149.051L417.149 149.307C417.81 149.46 418.121 149.776 418.121 150.227C418.121 150.79 417.524 151.25 416.587 151.25C415.764 151.25 415.249 150.896 415.07 150.193L414.115 150.432C414.349 151.544 415.266 152.136 416.604 152.136C418.125 152.136 419.161 151.305 419.161 150.176C419.161 149.264 418.589 148.689 417.422 148.403L416.45 148.165C415.675 147.973 415.325 147.713 415.325 147.21C415.325 146.648 415.922 146.239 416.723 146.239C417.601 146.239 417.963 146.724 418.138 147.176L419.041 146.92Z" fill="#959595"/>
<defs>
<clipPath id="clip0">
<rect width="200" height="40" fill="white" transform="translate(280 80)"/>
</clipPath>
</defs>
</svg>
