<svg width="480" height="200" viewBox="0 0 480 200" fill="none" xmlns="http://www.w3.org/2000/svg">
<rect width="480" height="200" fill="white"/>
<rect x="280" y="80" width="200" height="40" rx="4" fill="#949494"/>
<path d="M340.203 98.1406H343.015C342.657 95.5518 340.376 93.7301 337.416 93.7301C333.958 93.7301 331.292 96.223 331.292 100.467C331.292 104.609 333.785 107.179 337.474 107.179C340.778 107.179 343.137 105.089 343.137 101.643V99.9943H337.659V102.078H340.471C340.433 103.702 339.327 104.731 337.486 104.731C335.409 104.731 334.099 103.178 334.099 100.442C334.099 97.7188 335.46 96.1783 337.461 96.1783C338.886 96.1783 339.851 96.9134 340.203 98.1406ZM349.639 107.192C352.068 107.192 353.705 106.009 354.088 104.188L351.57 104.021C351.295 104.769 350.592 105.159 349.684 105.159C348.322 105.159 347.46 104.258 347.46 102.794V102.788H354.146V102.04C354.146 98.7031 352.126 97.054 349.531 97.054C346.641 97.054 344.768 99.1058 344.768 102.136C344.768 105.249 346.616 107.192 349.639 107.192ZM347.46 101.1C347.517 99.9815 348.367 99.0866 349.575 99.0866C350.758 99.0866 351.576 99.9304 351.582 101.1H347.46ZM361.145 97.1818H359.298V94.8295H356.575V97.1818H355.232V99.2273H356.575V104.341C356.562 106.265 357.872 107.217 359.847 107.134C360.55 107.109 361.049 106.968 361.324 106.879L360.896 104.852C360.761 104.878 360.474 104.942 360.218 104.942C359.675 104.942 359.298 104.737 359.298 103.983V99.2273H361.145V97.1818ZM375.254 99.9815C375.011 98.1726 373.553 97.054 371.073 97.054C368.561 97.054 366.906 98.2173 366.912 100.109C366.906 101.58 367.833 102.532 369.75 102.915L371.45 103.254C372.307 103.427 372.697 103.74 372.71 104.232C372.697 104.814 372.064 105.229 371.112 105.229C370.14 105.229 369.494 104.814 369.328 104.015L366.65 104.156C366.906 106.035 368.504 107.192 371.105 107.192C373.649 107.192 375.471 105.894 375.477 103.957C375.471 102.538 374.544 101.688 372.639 101.298L370.862 100.94C369.948 100.742 369.61 100.429 369.616 99.956C369.61 99.3679 370.274 98.9844 371.118 98.9844C372.064 98.9844 372.627 99.5021 372.761 100.135L375.254 99.9815ZM382.414 97.1818H380.567V94.8295H377.844V97.1818H376.502V99.2273H377.844V104.341C377.831 106.265 379.142 107.217 381.117 107.134C381.82 107.109 382.319 106.968 382.593 106.879L382.165 104.852C382.031 104.878 381.743 104.942 381.488 104.942C380.944 104.942 380.567 104.737 380.567 103.983V99.2273H382.414V97.1818ZM386.988 107.185C388.439 107.185 389.379 106.553 389.858 105.638H389.935V107H392.517V100.378C392.517 98.0384 390.536 97.054 388.349 97.054C385.997 97.054 384.45 98.179 384.073 99.9688L386.592 100.173C386.777 99.5213 387.359 99.0419 388.337 99.0419C389.263 99.0419 389.794 99.5085 389.794 100.314V100.352C389.794 100.985 389.123 101.068 387.416 101.234C385.473 101.413 383.728 102.065 383.728 104.258C383.728 106.201 385.115 107.185 386.988 107.185ZM387.768 105.306C386.93 105.306 386.33 104.916 386.33 104.168C386.33 103.401 386.962 103.024 387.921 102.89C388.516 102.807 389.487 102.666 389.813 102.449V103.491C389.813 104.52 388.963 105.306 387.768 105.306ZM394.63 107H397.353V101.445C397.353 100.237 398.235 99.4062 399.436 99.4062C399.814 99.4062 400.331 99.4702 400.587 99.5533V97.1371C400.344 97.0795 400.005 97.0412 399.73 97.0412C398.631 97.0412 397.73 97.6804 397.372 98.8949H397.27V97.1818H394.63V107ZM407.832 97.1818H405.985V94.8295H403.262V97.1818H401.92V99.2273H403.262V104.341C403.249 106.265 404.56 107.217 406.535 107.134C407.238 107.109 407.737 106.968 408.011 106.879L407.583 104.852C407.449 104.878 407.161 104.942 406.906 104.942C406.362 104.942 405.985 104.737 405.985 103.983V99.2273H407.832V97.1818ZM413.975 107.192C416.404 107.192 418.04 106.009 418.424 104.188L415.906 104.021C415.631 104.769 414.928 105.159 414.02 105.159C412.658 105.159 411.795 104.258 411.795 102.794V102.788H418.482V102.04C418.482 98.7031 416.462 97.054 413.866 97.054C410.977 97.054 409.104 99.1058 409.104 102.136C409.104 105.249 410.952 107.192 413.975 107.192ZM411.795 101.1C411.853 99.9815 412.703 99.0866 413.911 99.0866C415.094 99.0866 415.912 99.9304 415.918 101.1H411.795ZM423.876 107.16C425.462 107.16 426.286 106.246 426.663 105.428H426.778V107H429.463V93.9091H426.746V98.831H426.663C426.299 98.032 425.513 97.054 423.87 97.054C421.716 97.054 419.894 98.7287 419.894 102.104C419.894 105.389 421.639 107.16 423.876 107.16ZM424.739 104.993C423.403 104.993 422.675 103.804 422.675 102.091C422.675 100.391 423.391 99.2209 424.739 99.2209C426.062 99.2209 426.804 100.339 426.804 102.091C426.804 103.842 426.05 104.993 424.739 104.993Z" fill="white"/>
<rect y="80" width="200" height="40" rx="4" fill="#DCDCDC"/>
<path d="M60.2029 98.1406H63.0154C62.6575 95.5518 60.3755 93.7301 57.416 93.7301C53.9579 93.7301 51.2924 96.223 51.2924 100.467C51.2924 104.609 53.7853 107.179 57.4735 107.179C60.7782 107.179 63.1369 105.089 63.1369 101.643V99.9943H57.6589V102.078H60.4714C60.4331 103.702 59.3272 104.731 57.4863 104.731C55.4089 104.731 54.0985 103.178 54.0985 100.442C54.0985 97.7188 55.4601 96.1783 57.4608 96.1783C58.8862 96.1783 59.8514 96.9134 60.2029 98.1406ZM69.6392 107.192C72.0682 107.192 73.7045 106.009 74.0881 104.188L71.5696 104.021C71.2947 104.769 70.5916 105.159 69.6839 105.159C68.3224 105.159 67.4595 104.258 67.4595 102.794V102.788H74.1456V102.04C74.1456 98.7031 72.1257 97.054 69.5305 97.054C66.6413 97.054 64.7685 99.1058 64.7685 102.136C64.7685 105.249 66.6158 107.192 69.6392 107.192ZM67.4595 101.1C67.517 99.9815 68.3672 99.0866 69.5753 99.0866C70.7578 99.0866 71.576 99.9304 71.5824 101.1H67.4595ZM81.1449 97.1818H79.2976V94.8295H76.5746V97.1818H75.2322V99.2273H76.5746V104.341C76.5618 106.265 77.8722 107.217 79.8473 107.134C80.5504 107.109 81.049 106.968 81.3239 106.879L80.8956 104.852C80.7614 104.878 80.4737 104.942 80.218 104.942C79.6747 104.942 79.2976 104.737 79.2976 103.983V99.2273H81.1449V97.1818ZM95.2537 99.9815C95.0108 98.1726 93.5534 97.054 91.0733 97.054C88.5613 97.054 86.9057 98.2173 86.9121 100.109C86.9057 101.58 87.8326 102.532 89.7502 102.915L91.4505 103.254C92.307 103.427 92.6969 103.74 92.7097 104.232C92.6969 104.814 92.0641 105.229 91.1117 105.229C90.1401 105.229 89.4945 104.814 89.3283 104.015L86.65 104.156C86.9057 106.035 88.5037 107.192 91.1053 107.192C93.6493 107.192 95.4711 105.894 95.4775 103.957C95.4711 102.538 94.5442 101.688 92.6394 101.298L90.8624 100.94C89.9483 100.742 89.6096 100.429 89.6159 99.956C89.6096 99.3679 90.2743 98.9844 91.1181 98.9844C92.0641 98.9844 92.6266 99.5021 92.7608 100.135L95.2537 99.9815ZM102.414 97.1818H100.567V94.8295H97.8441V97.1818H96.5018V99.2273H97.8441V104.341C97.8313 106.265 99.1417 107.217 101.117 107.134C101.82 107.109 102.319 106.968 102.593 106.879L102.165 104.852C102.031 104.878 101.743 104.942 101.488 104.942C100.944 104.942 100.567 104.737 100.567 103.983V99.2273H102.414V97.1818ZM106.988 107.185C108.439 107.185 109.379 106.553 109.858 105.638H109.935V107H112.517V100.378C112.517 98.0384 110.536 97.054 108.349 97.054C105.997 97.054 104.45 98.179 104.073 99.9688L106.592 100.173C106.777 99.5213 107.359 99.0419 108.337 99.0419C109.263 99.0419 109.794 99.5085 109.794 100.314V100.352C109.794 100.985 109.123 101.068 107.416 101.234C105.473 101.413 103.728 102.065 103.728 104.258C103.728 106.201 105.115 107.185 106.988 107.185ZM107.768 105.306C106.93 105.306 106.33 104.916 106.33 104.168C106.33 103.401 106.962 103.024 107.921 102.89C108.516 102.807 109.487 102.666 109.813 102.449V103.491C109.813 104.52 108.963 105.306 107.768 105.306ZM114.63 107H117.353V101.445C117.353 100.237 118.235 99.4062 119.436 99.4062C119.814 99.4062 120.331 99.4702 120.587 99.5533V97.1371C120.344 97.0795 120.005 97.0412 119.73 97.0412C118.631 97.0412 117.73 97.6804 117.372 98.8949H117.27V97.1818H114.63V107ZM127.832 97.1818H125.985V94.8295H123.262V97.1818H121.92V99.2273H123.262V104.341C123.249 106.265 124.56 107.217 126.535 107.134C127.238 107.109 127.737 106.968 128.011 106.879L127.583 104.852C127.449 104.878 127.161 104.942 126.906 104.942C126.362 104.942 125.985 104.737 125.985 103.983V99.2273H127.832V97.1818ZM133.975 107.192C136.404 107.192 138.04 106.009 138.424 104.188L135.906 104.021C135.631 104.769 134.928 105.159 134.02 105.159C132.658 105.159 131.795 104.258 131.795 102.794V102.788H138.482V102.04C138.482 98.7031 136.462 97.054 133.866 97.054C130.977 97.054 129.104 99.1058 129.104 102.136C129.104 105.249 130.952 107.192 133.975 107.192ZM131.795 101.1C131.853 99.9815 132.703 99.0866 133.911 99.0866C135.094 99.0866 135.912 99.9304 135.918 101.1H131.795ZM143.876 107.16C145.462 107.16 146.286 106.246 146.663 105.428H146.778V107H149.463V93.9091H146.746V98.831H146.663C146.299 98.032 145.513 97.054 143.87 97.054C141.716 97.054 139.894 98.7287 139.894 102.104C139.894 105.389 141.639 107.16 143.876 107.16ZM144.739 104.993C143.403 104.993 142.675 103.804 142.675 102.091C142.675 100.391 143.391 99.2209 144.739 99.2209C146.062 99.2209 146.804 100.339 146.804 102.091C146.804 103.842 146.05 104.993 144.739 104.993Z" fill="white"/>
<path d="M31.1069 146C30.783 144.21 29.3512 143.153 27.5955 143.153C25.3626 143.153 23.7433 144.875 23.7433 147.636C23.7433 150.398 25.3626 152.119 27.5955 152.119C29.3512 152.119 30.783 151.062 31.1069 149.273H30.0501C29.7944 150.483 28.7546 151.131 27.5955 151.131C26.0103 151.131 24.766 149.903 24.766 147.636C24.766 145.369 26.0103 144.142 27.5955 144.142C28.7546 144.142 29.7944 144.79 30.0501 146H31.1069ZM35.3374 152.136C37.1101 152.136 38.3033 150.79 38.3033 148.761C38.3033 146.716 37.1101 145.369 35.3374 145.369C33.5646 145.369 32.3714 146.716 32.3714 148.761C32.3714 150.79 33.5646 152.136 35.3374 152.136ZM35.3374 151.233C33.9908 151.233 33.3771 150.074 33.3771 148.761C33.3771 147.449 33.9908 146.273 35.3374 146.273C36.6839 146.273 37.2976 147.449 37.2976 148.761C37.2976 150.074 36.6839 151.233 35.3374 151.233ZM40.8441 148.062C40.8441 146.92 41.5515 146.273 42.5146 146.273C43.4478 146.273 44.0146 146.882 44.0146 147.909V152H45.0202V147.841C45.0202 146.17 44.1296 145.369 42.8043 145.369C41.8157 145.369 41.2021 145.812 40.8952 146.477H40.81V145.455H39.8384V152H40.8441V148.062ZM49.7045 145.455H48.3068V143.886H47.3011V145.455H46.3125V146.307H47.3011V150.398C47.3011 151.54 48.2216 152.085 49.0739 152.085C49.4489 152.085 49.6875 152.017 49.8239 151.966L49.6193 151.062C49.5341 151.08 49.3977 151.114 49.1761 151.114C48.733 151.114 48.3068 150.977 48.3068 150.125V146.307H49.7045V145.455ZM51.2173 152H52.223V147.858C52.223 146.972 52.9219 146.324 53.8764 146.324C54.1449 146.324 54.4219 146.375 54.4901 146.392V145.369C54.375 145.361 54.1108 145.352 53.9616 145.352C53.1776 145.352 52.4957 145.795 52.2571 146.443H52.1889V145.455H51.2173V152ZM57.6083 152.153C58.7504 152.153 59.3469 151.54 59.5515 151.114H59.6026V152H60.6083V147.688C60.6083 145.608 59.0231 145.369 58.1879 145.369C57.1992 145.369 56.0742 145.71 55.5629 146.903L56.5174 147.244C56.739 146.767 57.2631 146.256 58.2219 146.256C59.1467 146.256 59.6026 146.746 59.6026 147.585V147.619C59.6026 148.105 59.1083 148.062 57.9151 148.216C56.7006 148.374 55.3754 148.642 55.3754 150.142C55.3754 151.42 56.364 152.153 57.6083 152.153ZM57.7617 151.25C56.9606 151.25 56.381 150.892 56.381 150.193C56.381 149.426 57.0799 149.188 57.864 149.085C58.2901 149.034 59.4322 148.915 59.6026 148.71V149.631C59.6026 150.449 58.9549 151.25 57.7617 151.25ZM67.0803 146.92C66.7649 145.991 66.0575 145.369 64.7621 145.369C63.3814 145.369 62.3587 146.153 62.3587 147.261C62.3587 148.165 62.8956 148.77 64.0973 149.051L65.1882 149.307C65.8487 149.46 66.1598 149.776 66.1598 150.227C66.1598 150.79 65.5632 151.25 64.6257 151.25C63.8033 151.25 63.2876 150.896 63.1087 150.193L62.1541 150.432C62.3885 151.544 63.3047 152.136 64.6428 152.136C66.1641 152.136 67.1996 151.305 67.1996 150.176C67.1996 149.264 66.6286 148.689 65.4609 148.403L64.4893 148.165C63.7138 147.973 63.3643 147.713 63.3643 147.21C63.3643 146.648 63.9609 146.239 64.7621 146.239C65.6399 146.239 66.0021 146.724 66.1768 147.176L67.0803 146.92ZM71.56 145.455H70.1623V143.886H69.1566V145.455H68.168V146.307H69.1566V150.398C69.1566 151.54 70.0771 152.085 70.9293 152.085C71.3043 152.085 71.543 152.017 71.6793 151.966L71.4748 151.062C71.3896 151.08 71.2532 151.114 71.0316 151.114C70.5884 151.114 70.1623 150.977 70.1623 150.125V146.307H71.56V145.455ZM76.4478 152H77.4535V147.858C77.4535 146.972 78.1523 146.324 79.1069 146.324C79.3754 146.324 79.6523 146.375 79.7205 146.392V145.369C79.6055 145.361 79.3413 145.352 79.1921 145.352C78.408 145.352 77.7262 145.795 77.4876 146.443H77.4194V145.455H76.4478V152ZM82.8388 152.153C83.9808 152.153 84.5774 151.54 84.782 151.114H84.8331V152H85.8388V147.688C85.8388 145.608 84.2536 145.369 83.4183 145.369C82.4297 145.369 81.3047 145.71 80.7933 146.903L81.7479 147.244C81.9695 146.767 82.4936 146.256 83.4524 146.256C84.3771 146.256 84.8331 146.746 84.8331 147.585V147.619C84.8331 148.105 84.3388 148.062 83.1456 148.216C81.9311 148.374 80.6058 148.642 80.6058 150.142C80.6058 151.42 81.5945 152.153 82.8388 152.153ZM82.9922 151.25C82.1911 151.25 81.6115 150.892 81.6115 150.193C81.6115 149.426 82.3104 149.188 83.0945 149.085C83.5206 149.034 84.6626 148.915 84.8331 148.71V149.631C84.8331 150.449 84.1854 151.25 82.9922 151.25ZM90.521 145.455H89.1232V143.886H88.1175V145.455H87.1289V146.307H88.1175V150.398C88.1175 151.54 89.038 152.085 89.8903 152.085C90.2653 152.085 90.5039 152.017 90.6403 151.966L90.4357 151.062C90.3505 151.08 90.2141 151.114 89.9925 151.114C89.5494 151.114 89.1232 150.977 89.1232 150.125V146.307H90.521V145.455ZM92.0337 152H93.0394V145.455H92.0337V152ZM92.5451 144.364C92.9371 144.364 93.261 144.057 93.261 143.682C93.261 143.307 92.9371 143 92.5451 143C92.1531 143 91.8292 143.307 91.8292 143.682C91.8292 144.057 92.1531 144.364 92.5451 144.364ZM97.5405 152.136C99.3132 152.136 100.506 150.79 100.506 148.761C100.506 146.716 99.3132 145.369 97.5405 145.369C95.7678 145.369 94.5746 146.716 94.5746 148.761C94.5746 150.79 95.7678 152.136 97.5405 152.136ZM97.5405 151.233C96.1939 151.233 95.5803 150.074 95.5803 148.761C95.5803 147.449 96.1939 146.273 97.5405 146.273C98.8871 146.273 99.5007 147.449 99.5007 148.761C99.5007 150.074 98.8871 151.233 97.5405 151.233ZM102.775 152.068C103.196 152.068 103.542 151.723 103.542 151.301C103.542 150.879 103.196 150.534 102.775 150.534C102.353 150.534 102.007 150.879 102.007 151.301C102.007 151.723 102.353 152.068 102.775 152.068ZM102.775 147.21C103.196 147.21 103.542 146.865 103.542 146.443C103.542 146.021 103.196 145.676 102.775 145.676C102.353 145.676 102.007 146.021 102.007 146.443C102.007 146.865 102.353 147.21 102.775 147.21ZM111.772 143.273H110.716L108.534 144.722V145.795L110.664 144.381H110.716V152H111.772V143.273ZM115.032 152.068C115.454 152.068 115.799 151.723 115.799 151.301C115.799 150.879 115.454 150.534 115.032 150.534C114.61 150.534 114.265 150.879 114.265 151.301C114.265 151.723 114.61 152.068 115.032 152.068ZM120.126 152.119C121.817 152.119 123.075 151.058 123.075 149.631C123.075 148.523 122.418 147.717 121.319 147.534V147.466C122.201 147.197 122.751 146.473 122.751 145.489C122.751 144.253 121.775 143.153 120.16 143.153C118.651 143.153 117.398 144.082 117.347 145.455H118.37C118.408 144.585 119.235 144.074 120.143 144.074C121.106 144.074 121.728 144.658 121.728 145.54C121.728 146.46 121.008 147.057 119.972 147.057H119.273V147.994H119.972C121.298 147.994 122.035 148.668 122.035 149.631C122.035 150.555 121.229 151.182 120.109 151.182C119.099 151.182 118.298 150.662 118.234 149.818H117.16C117.224 151.19 118.434 152.119 120.126 152.119ZM125.09 152H126.198L130.085 144.261V143.273H124.494V144.21H128.994V144.278L125.09 152ZM135.798 150.884C136.22 150.884 136.565 150.538 136.565 150.116C136.565 149.695 136.22 149.349 135.798 149.349C135.376 149.349 135.031 149.695 135.031 150.116C135.031 150.538 135.376 150.884 135.798 150.884ZM135.798 146.469C136.22 146.469 136.565 146.124 136.565 145.702C136.565 145.28 136.22 144.935 135.798 144.935C135.376 144.935 135.031 145.28 135.031 145.702C135.031 146.124 135.376 146.469 135.798 146.469ZM144.796 143.273H143.739L141.557 144.722V145.795L143.688 144.381H143.739V152H144.796V143.273ZM151.056 147.636C151.056 149.784 151.635 151.574 152.675 153.091H153.561C152.743 151.966 152.096 149.665 152.096 147.636C152.096 145.608 152.743 143.307 153.561 142.182H152.675C151.635 143.699 151.056 145.489 151.056 147.636ZM155.182 152H156.239V148.097H160.023V147.159H156.239V144.21H160.415V143.273H155.182V152ZM164.015 152.153C165.157 152.153 165.753 151.54 165.958 151.114H166.009V152H167.015V147.688C167.015 145.608 165.429 145.369 164.594 145.369C163.605 145.369 162.48 145.71 161.969 146.903L162.924 147.244C163.145 146.767 163.669 146.256 164.628 146.256C165.553 146.256 166.009 146.746 166.009 147.585V147.619C166.009 148.105 165.515 148.062 164.321 148.216C163.107 148.374 161.782 148.642 161.782 150.142C161.782 151.42 162.77 152.153 164.015 152.153ZM164.168 151.25C163.367 151.25 162.787 150.892 162.787 150.193C162.787 149.426 163.486 149.188 164.27 149.085C164.696 149.034 165.838 148.915 166.009 148.71V149.631C166.009 150.449 165.361 151.25 164.168 151.25ZM168.85 152H169.856V145.455H168.85V152ZM169.362 144.364C169.754 144.364 170.077 144.057 170.077 143.682C170.077 143.307 169.754 143 169.362 143C168.969 143 168.646 143.307 168.646 143.682C168.646 144.057 168.969 144.364 169.362 144.364ZM172.703 143.273H171.698V152H172.703V143.273ZM176.693 148.318C176.693 146.17 176.114 144.381 175.074 142.864H174.188C175.006 143.989 175.653 146.29 175.653 148.318C175.653 150.347 175.006 152.648 174.188 153.773H175.074C176.114 152.256 176.693 150.466 176.693 148.318Z" fill="#959595"/>
<path d="M306.349 146C306.025 144.21 304.593 143.153 302.838 143.153C300.605 143.153 298.985 144.875 298.985 147.636C298.985 150.398 300.605 152.119 302.838 152.119C304.593 152.119 306.025 151.062 306.349 149.273H305.292C305.037 150.483 303.997 151.131 302.838 151.131C301.252 151.131 300.008 149.903 300.008 147.636C300.008 145.369 301.252 144.142 302.838 144.142C303.997 144.142 305.037 144.79 305.292 146H306.349ZM310.58 152.136C312.352 152.136 313.545 150.79 313.545 148.761C313.545 146.716 312.352 145.369 310.58 145.369C308.807 145.369 307.614 146.716 307.614 148.761C307.614 150.79 308.807 152.136 310.58 152.136ZM310.58 151.233C309.233 151.233 308.619 150.074 308.619 148.761C308.619 147.449 309.233 146.273 310.58 146.273C311.926 146.273 312.54 147.449 312.54 148.761C312.54 150.074 311.926 151.233 310.58 151.233ZM316.086 148.062C316.086 146.92 316.794 146.273 317.757 146.273C318.69 146.273 319.257 146.882 319.257 147.909V152H320.262V147.841C320.262 146.17 319.372 145.369 318.047 145.369C317.058 145.369 316.444 145.812 316.137 146.477H316.052V145.455H315.081V152H316.086V148.062ZM324.947 145.455H323.549V143.886H322.543V145.455H321.555V146.307H322.543V150.398C322.543 151.54 323.464 152.085 324.316 152.085C324.691 152.085 324.93 152.017 325.066 151.966L324.862 151.062C324.776 151.08 324.64 151.114 324.418 151.114C323.975 151.114 323.549 150.977 323.549 150.125V146.307H324.947V145.455ZM326.46 152H327.465V147.858C327.465 146.972 328.164 146.324 329.119 146.324C329.387 146.324 329.664 146.375 329.732 146.392V145.369C329.617 145.361 329.353 145.352 329.204 145.352C328.42 145.352 327.738 145.795 327.499 146.443H327.431V145.455H326.46V152ZM332.85 152.153C333.993 152.153 334.589 151.54 334.794 151.114H334.845V152H335.85V147.688C335.85 145.608 334.265 145.369 333.43 145.369C332.441 145.369 331.316 145.71 330.805 146.903L331.76 147.244C331.981 146.767 332.505 146.256 333.464 146.256C334.389 146.256 334.845 146.746 334.845 147.585V147.619C334.845 148.105 334.35 148.062 333.157 148.216C331.943 148.374 330.618 148.642 330.618 150.142C330.618 151.42 331.606 152.153 332.85 152.153ZM333.004 151.25C332.203 151.25 331.623 150.892 331.623 150.193C331.623 149.426 332.322 149.188 333.106 149.085C333.532 149.034 334.674 148.915 334.845 148.71V149.631C334.845 150.449 334.197 151.25 333.004 151.25ZM342.322 146.92C342.007 145.991 341.3 145.369 340.004 145.369C338.624 145.369 337.601 146.153 337.601 147.261C337.601 148.165 338.138 148.77 339.339 149.051L340.43 149.307C341.091 149.46 341.402 149.776 341.402 150.227C341.402 150.79 340.805 151.25 339.868 151.25C339.045 151.25 338.53 150.896 338.351 150.193L337.396 150.432C337.631 151.544 338.547 152.136 339.885 152.136C341.406 152.136 342.442 151.305 342.442 150.176C342.442 149.264 341.871 148.689 340.703 148.403L339.732 148.165C338.956 147.973 338.607 147.713 338.607 147.21C338.607 146.648 339.203 146.239 340.004 146.239C340.882 146.239 341.244 146.724 341.419 147.176L342.322 146.92ZM346.802 145.455H345.404V143.886H344.399V145.455H343.41V146.307H344.399V150.398C344.399 151.54 345.319 152.085 346.172 152.085C346.547 152.085 346.785 152.017 346.922 151.966L346.717 151.062C346.632 151.08 346.495 151.114 346.274 151.114C345.831 151.114 345.404 150.977 345.404 150.125V146.307H346.802V145.455ZM351.69 152H352.696V147.858C352.696 146.972 353.395 146.324 354.349 146.324C354.618 146.324 354.895 146.375 354.963 146.392V145.369C354.848 145.361 354.583 145.352 354.434 145.352C353.65 145.352 352.968 145.795 352.73 146.443H352.662V145.455H351.69V152ZM358.081 152.153C359.223 152.153 359.82 151.54 360.024 151.114H360.075V152H361.081V147.688C361.081 145.608 359.496 145.369 358.661 145.369C357.672 145.369 356.547 145.71 356.036 146.903L356.99 147.244C357.212 146.767 357.736 146.256 358.695 146.256C359.619 146.256 360.075 146.746 360.075 147.585V147.619C360.075 148.105 359.581 148.062 358.388 148.216C357.173 148.374 355.848 148.642 355.848 150.142C355.848 151.42 356.837 152.153 358.081 152.153ZM358.234 151.25C357.433 151.25 356.854 150.892 356.854 150.193C356.854 149.426 357.553 149.188 358.337 149.085C358.763 149.034 359.905 148.915 360.075 148.71V149.631C360.075 150.449 359.428 151.25 358.234 151.25ZM365.763 145.455H364.365V143.886H363.36V145.455H362.371V146.307H363.36V150.398C363.36 151.54 364.28 152.085 365.132 152.085C365.507 152.085 365.746 152.017 365.882 151.966L365.678 151.062C365.593 151.08 365.456 151.114 365.235 151.114C364.792 151.114 364.365 150.977 364.365 150.125V146.307H365.763V145.455ZM367.276 152H368.282V145.455H367.276V152ZM367.787 144.364C368.179 144.364 368.503 144.057 368.503 143.682C368.503 143.307 368.179 143 367.787 143C367.395 143 367.071 143.307 367.071 143.682C367.071 144.057 367.395 144.364 367.787 144.364ZM372.783 152.136C374.555 152.136 375.749 150.79 375.749 148.761C375.749 146.716 374.555 145.369 372.783 145.369C371.01 145.369 369.817 146.716 369.817 148.761C369.817 150.79 371.01 152.136 372.783 152.136ZM372.783 151.233C371.436 151.233 370.822 150.074 370.822 148.761C370.822 147.449 371.436 146.273 372.783 146.273C374.129 146.273 374.743 147.449 374.743 148.761C374.743 150.074 374.129 151.233 372.783 151.233ZM378.017 152.068C378.439 152.068 378.784 151.723 378.784 151.301C378.784 150.879 378.439 150.534 378.017 150.534C377.595 150.534 377.25 150.879 377.25 151.301C377.25 151.723 377.595 152.068 378.017 152.068ZM378.017 147.21C378.439 147.21 378.784 146.865 378.784 146.443C378.784 146.021 378.439 145.676 378.017 145.676C377.595 145.676 377.25 146.021 377.25 146.443C377.25 146.865 377.595 147.21 378.017 147.21ZM386.895 152.119C388.587 152.119 389.844 151.058 389.844 149.631C389.844 148.523 389.188 147.717 388.088 147.534V147.466C388.971 147.197 389.52 146.473 389.52 145.489C389.52 144.253 388.544 143.153 386.929 143.153C385.421 143.153 384.168 144.082 384.117 145.455H385.14C385.178 144.585 386.005 144.074 386.912 144.074C387.875 144.074 388.498 144.658 388.498 145.54C388.498 146.46 387.777 147.057 386.742 147.057H386.043V147.994H386.742C388.067 147.994 388.804 148.668 388.804 149.631C388.804 150.555 387.999 151.182 386.878 151.182C385.868 151.182 385.067 150.662 385.003 149.818H383.929C383.993 151.19 385.203 152.119 386.895 152.119ZM391.927 152.068C392.349 152.068 392.694 151.723 392.694 151.301C392.694 150.879 392.349 150.534 391.927 150.534C391.505 150.534 391.16 150.879 391.16 151.301C391.16 151.723 391.505 152.068 391.927 152.068ZM396.848 152.119C398.774 152.119 399.882 150.487 399.882 147.636C399.882 144.807 398.757 143.153 396.848 143.153C394.939 143.153 393.814 144.807 393.814 147.636C393.814 150.487 394.922 152.119 396.848 152.119ZM396.848 151.182C395.578 151.182 394.836 149.908 394.836 147.636C394.836 145.369 395.586 144.074 396.848 144.074C398.109 144.074 398.859 145.369 398.859 147.636C398.859 149.908 398.118 151.182 396.848 151.182ZM404.228 152.119C405.89 152.119 407.109 150.892 407.109 149.222C407.109 147.53 405.933 146.29 404.331 146.29C403.743 146.29 403.172 146.499 402.814 146.784H402.762L403.069 144.21H406.717V143.273H402.183L401.654 147.568L402.643 147.688C403.005 147.428 403.623 147.24 404.16 147.244C405.272 147.253 406.086 148.097 406.086 149.239C406.086 150.359 405.302 151.182 404.228 151.182C403.333 151.182 402.622 150.607 402.541 149.818H401.518C401.582 151.148 402.728 152.119 404.228 152.119ZM412.927 150.884C413.349 150.884 413.694 150.538 413.694 150.116C413.694 149.695 413.349 149.349 412.927 149.349C412.505 149.349 412.16 149.695 412.16 150.116C412.16 150.538 412.505 150.884 412.927 150.884ZM412.927 146.469C413.349 146.469 413.694 146.124 413.694 145.702C413.694 145.28 413.349 144.935 412.927 144.935C412.505 144.935 412.16 145.28 412.16 145.702C412.16 146.124 412.505 146.469 412.927 146.469ZM421.925 143.273H420.868L418.686 144.722V145.795L420.817 144.381H420.868V152H421.925V143.273ZM428.185 147.636C428.185 149.784 428.764 151.574 429.804 153.091H430.69C429.872 151.966 429.224 149.665 429.224 147.636C429.224 145.608 429.872 143.307 430.69 142.182H429.804C428.764 143.699 428.185 145.489 428.185 147.636ZM432.669 152L433.547 149.528H437.075L437.953 152H439.061L435.856 143.273H434.765L431.561 152H432.669ZM433.879 148.591L435.277 144.653H435.345L436.743 148.591H433.879ZM440.778 152L441.656 149.528H445.184L446.062 152H447.17L443.966 143.273H442.875L439.67 152H440.778ZM441.988 148.591L443.386 144.653H443.454L444.852 148.591H441.988ZM450.95 150.466H451.904V148.131H454.24V147.176H451.904V144.841H450.95V147.176H448.615V148.131H450.95V150.466ZM458.451 147.636C458.451 145.489 457.871 143.699 456.832 142.182H455.945C456.763 143.307 457.411 145.608 457.411 147.636C457.411 149.665 456.763 151.966 455.945 153.091H456.832C457.871 151.574 458.451 149.784 458.451 147.636Z" fill="#959595"/>
</svg>
