<svg viewBox="0 0 16 16" fill="#6E7387" xmlns="http://www.w3.org/2000/svg">
<path d="M15.8662 0.670017C15.8127 0.562813 15.7324 0.455612 15.6254 0.348409C15.5184 0.241205 15.4114 0.160804 15.3043 0.107203C15.2508 0.053601 15.175 0.0223338 15.0769 0.0134002C14.9788 0.00446684 14.903 0 14.8495 0H4.57525C4.23634 0 3.95987 0.102735 3.74582 0.308208C3.53177 0.513681 3.42475 0.786151 3.42475 1.12563C3.42475 1.48297 3.53177 1.76438 3.74582 1.96985C3.95987 2.17532 4.23634 2.27806 4.57525 2.27806H12.1204L0.347826 14.0436C0.115941 14.2758 0 14.5438 0 14.8476C0 15.1513 0.115941 15.4193 0.347826 15.6516C0.472687 15.7767 0.70903 15.9196 0.70903 15.9196C0.70903 15.9196 0.972128 16 1.1505 16C1.32887 16 1.47603 15.9732 1.59197 15.9196C1.70792 15.866 1.82832 15.7767 1.95318 15.6516L13.699 3.8861V11.4171C13.699 11.7744 13.806 12.0558 14.0201 12.2613C14.2341 12.4668 14.5106 12.5695 14.8495 12.5695C15.1884 12.5695 15.4649 12.4668 15.6789 12.2613C15.893 12.0558 16 11.7744 16 11.4171V1.12563C16 1.07203 15.9955 0.996092 15.9866 0.897823C15.9777 0.799553 15.9376 0.723618 15.8662 0.670017Z"/>
</svg>
