<svg viewBox="0 0 10 16" fill="#76767F" xmlns="http://www.w3.org/2000/svg">
<path d="M9.21519 0.417896C9.52045 0.723157 9.67757 1.0733 9.68654 1.46835C9.69552 1.86339 9.53841 2.24047 9.21519 2.59961L4.04373 7.98654L9.21519 13.3735C9.53841 13.7506 9.69552 14.1321 9.68654 14.5182C9.67757 14.9043 9.52045 15.2499 9.21519 15.5552C8.89197 15.8605 8.5104 16.0086 8.07046 15.9996C7.63053 15.9906 7.26691 15.8425 6.97961 15.5552C6.83596 15.4115 6.43194 14.9941 5.76755 14.3027C5.10315 13.6114 4.39837 12.8797 3.65317 12.1076C2.90798 11.3354 2.23911 10.6351 1.64654 10.0066C1.05397 9.37817 0.757694 9.06393 0.757694 9.06393C0.614042 8.92028 0.501815 8.75418 0.421011 8.56564C0.340206 8.3771 0.299805 8.18407 0.299805 7.98654C0.299805 7.78902 0.340206 7.59599 0.421011 7.40745C0.501815 7.2189 0.614042 7.05281 0.757694 6.90916C0.757694 6.90916 1.05397 6.59941 1.64654 5.97991C2.23911 5.36041 2.90798 4.66011 3.65317 3.879C4.39837 3.09789 5.10315 2.36169 5.76755 1.67036C6.43194 0.979031 6.83596 0.561548 6.97961 0.417896C7.26691 0.148547 7.63053 0.00938646 8.07046 0.000408115C8.5104 -0.00857023 8.89197 0.130591 9.21519 0.417896Z"/>
</svg>
