<svg viewBox="0 0 16 16" fill="#76767F" xmlns="http://www.w3.org/2000/svg">
<path d="M0.417896 4.08463C0.723157 3.77937 1.0733 3.62225 1.46835 3.61328C1.86339 3.6043 2.24047 3.76141 2.59961 4.08463L7.98654 9.25609L13.3735 4.08463C13.7506 3.76141 14.1321 3.6043 14.5182 3.61328C14.9043 3.62225 15.2499 3.77937 15.5552 4.08463C15.8605 4.40785 16.0086 4.78942 15.9996 5.22936C15.9906 5.66929 15.8425 6.03291 15.5552 6.32021C15.4115 6.46386 14.9941 6.86788 14.3027 7.53227C13.6114 8.19667 12.8797 8.90145 12.1076 9.64665C11.3354 10.3918 10.6351 11.0607 10.0066 11.6533C9.37817 12.2458 9.06393 12.5421 9.06393 12.5421C8.92028 12.6858 8.75418 12.798 8.56564 12.8788C8.3771 12.9596 8.18407 13 7.98654 13C7.78902 13 7.59599 12.9596 7.40745 12.8788C7.2189 12.798 7.05281 12.6858 6.90916 12.5421C6.90916 12.5421 6.59941 12.2458 5.97991 11.6533C5.36041 11.0607 4.66011 10.3918 3.879 9.64665C3.09789 8.90145 2.36169 8.19667 1.67036 7.53227C0.979031 6.86788 0.561548 6.46386 0.417896 6.32021C0.148547 6.03291 0.00938646 5.66929 0.000408115 5.22936C-0.00857023 4.78942 0.130591 4.40785 0.417896 4.08463Z"/>
</svg>
